<svg width="546" height="297" viewBox="0 0 546 297" fill="none" xmlns="http://www.w3.org/2000/svg">
<g opacity="0.05">
<path d="M384.56 39.6872C363.145 31.4753 342.827 32.0228 320.863 37.4973C299.447 42.9719 284.072 55.016 267.05 68.155C250.027 81.2939 231.906 94.4329 212.138 103.192C191.821 111.952 168.758 121.258 146.793 112.499C162.718 113.046 177.544 109.762 191.272 101.002C201.705 94.4329 219.826 80.7465 223.67 68.155H205.549C218.727 53.9211 235.201 42.9719 253.322 36.4024L244.536 26.0007C268.697 9.577 295.054 1.91259 324.158 0.817675C337.885 0.270218 351.613 1.91259 364.243 5.74479C377.971 9.577 388.404 16.1465 398.288 26.0007L384.56 39.6872ZM36.9705 97.1702C29.2829 97.1702 22.6935 97.7177 15.0059 99.9075C7.86742 102.097 1.27802 104.835 -5.86049 107.572C-19.0392 113.046 -31.6689 120.163 -44.2985 126.733C-49.7897 129.47 -56.3791 132.755 -62.4193 133.85C-69.0087 134.945 -77.7945 134.945 -83.8348 132.207C-90.4242 128.923 -95.9154 125.638 -101.407 120.711C-106.898 115.784 -112.389 110.857 -117.88 107.024C-123.92 103.192 -129.96 100.455 -136.001 96.6227C-133.255 96.6227 -118.978 96.0753 -122.822 90.0533C-126.117 85.1262 -133.804 82.9363 -139.845 81.8414C-153.572 79.1041 -167.3 79.1041 -181.028 79.1041C-169.497 69.2499 -156.867 64.3228 -141.492 64.3228C-127.215 64.3228 -115.683 70.8923 -103.603 78.0092C-97.5627 81.8414 -90.4242 88.4109 -84.3839 92.2431C-78.3437 96.0753 -71.7543 98.2651 -65.1649 100.455C-52.5353 104.835 -36.6109 102.645 -23.9813 98.2651C-13.5481 94.4329 -4.21317 90.0533 7.31824 90.0533C17.7514 88.4109 27.6355 91.1482 36.9705 97.1702Z" fill="white"/>
<path d="M-70.656 207.217C-48.1423 206.122 -29.4724 184.224 -16.8428 167.8C-3.11488 150.281 6.22003 124.003 27.6355 114.149C59.4842 99.9153 92.9803 111.959 122.083 127.288C149.539 140.975 187.977 138.785 215.433 126.741C245.634 113.602 268.697 91.1559 294.505 71.9949C318.667 53.9288 349.966 41.3373 387.306 51.1915L403.779 31.4831L407.074 63.7831L465.28 122.361L453.749 136.047H416.409V126.741C405.427 119.076 393.895 113.602 380.167 115.244C365.89 116.886 350.515 123.456 352.712 140.427C354.359 151.924 370.832 162.325 379.069 168.347C390.601 176.012 402.681 183.129 414.762 190.793C439.472 206.122 463.084 223.093 486.147 241.159C507.562 258.131 529.527 275.649 546 297L495.482 287.146C504.817 280.576 493.834 273.459 487.794 268.532C480.106 262.51 472.419 257.583 463.633 252.656C446.61 243.349 428.49 238.422 409.82 234.042C374.127 225.283 328.001 219.808 296.702 242.254C295.604 242.802 294.505 243.897 293.407 244.444L275.836 229.663C219.277 248.824 156.128 243.897 103.963 215.429C82.5471 230.21 57.8369 233.495 33.1267 236.232C9.51471 238.969 -15.1954 237.327 -39.3565 235.137C-97.0136 282.766 -175.537 310.686 -249.118 285.503L-199.698 272.912V283.861C-146.434 283.861 -101.956 246.634 -70.656 207.217Z" fill="white"/>
</g>
</svg>
