<?xml version="1.0" encoding="UTF-8"?>
<!DOCTYPE svg PUBLIC "-//W3C//DTD SVG 1.1//EN" "http://www.w3.org/Graphics/SVG/1.1/DTD/svg11.dtd">
<!-- Creator: CorelDRAW 2020 (64-Bit) -->
<svg xmlns="http://www.w3.org/2000/svg" xml:space="preserve" width="137.16mm" height="137.16mm" version="1.1" style="shape-rendering:geometricPrecision; text-rendering:geometricPrecision; image-rendering:optimizeQuality; fill-rule:evenodd; clip-rule:evenodd"
viewBox="0 0 13716 13716"
 xmlns:xlink="http://www.w3.org/1999/xlink"
 xmlns:xodm="http://www.corel.com/coreldraw/odm/2003">
 <defs>
  <style type="text/css">
   <![CDATA[
    .str1 {stroke:white;stroke-width:127;stroke-miterlimit:22.9256}
    .str0 {stroke:#2B2A29;stroke-width:381;stroke-miterlimit:22.9256}
    .fil1 {fill:none}
    .fil0 {fill:#333333}
   ]]>
  </style>
 </defs>
 <g id="Layer_x0020_1">
  <metadata id="CorelCorpID_0Corel-Layer"/>
  <g id="_1912248109936">
   <path class="fil0" d="M5607.57 4396.55c-215.64,-216.29 183.07,-493.04 -184.86,-1298.8l-200.72 -327.03c-101.06,-126.07 -104.91,-175.08 -257.94,-270.75 -471.66,-294.85 -922.2,-569.69 -1651.44,-313.14l1088.35 1096.63c-37.98,85.17 -973.11,1014.96 -1093.87,1111.02 -169.39,-131.14 -395.53,-385.53 -559.61,-550.36l-407.94 -409.03c-25.37,-26.04 -47.34,-50.87 -72.37,-72.67 -4.35,-3.78 -11.91,-10.02 -15.95,-13.34l-52.65 -36.44c-125.6,238.07 -103.9,686.77 -39.55,943.58 79.1,315.66 118.42,328.21 242.71,544.97 295.54,515.39 1017.74,842.9 1634.15,765.79 249.23,-31.17 241.15,-106.64 386.4,44.51 1062.57,1105.82 2349.9,2358.38 3455.8,3461.79 441.8,440.81 309.45,243.66 275.45,664.1 -34.01,420.6 123.4,931.05 363.89,1235.28l417.49 373.09c432.07,270.83 1178.11,384.66 1476.24,179.7 -177.07,-247.19 -1008.92,-946.47 -1081.06,-1123.41 75.69,-108.65 996.72,-1028.96 1094.86,-1083.12l842.48 829.02c50.65,50.57 80.12,80.55 130.51,131.76 58.64,59.6 79.22,84.94 144.91,128.6 282.84,-826.49 -123.81,-1739.72 -937.5,-2112.64 -849.09,-389.14 -1046.18,64.22 -1290.52,-191.3l-3707.26 -3707.81z"/>
   <path class="fil0" d="M7173.81 9109.59c-521.27,33.07 -864.28,3.45 -1310.09,-214.11 -163.63,-79.86 -541.99,-357.64 -647.17,-486.18 -74.26,-90.76 -107.94,-104.53 -173.39,-205.02 -302.76,-464.85 -461.91,-838.12 -437.69,-1447.93 15.88,-399.49 -127.81,-227.32 -436.04,-653.17 -503.37,40.22 -955.15,-4.76 -1376.65,-234.85 -336.71,-183.8 -188.62,-174.25 -634.44,-93.42 -224.15,40.65 -450.97,74.79 -673.12,124.77 -71.11,248.04 5.32,1525.44 -18.82,1916.9l1135.89 201.34c422.27,1381.93 583.4,767.19 173.74,1392.19 -141.73,216.22 -364.06,465.63 -386.62,630.51l1305.32 1313.81c193.19,-85.38 334.07,-194.78 494.46,-324.63 87.3,-70.66 132.2,-78.34 230.88,-149.42 346.57,-249.64 184.78,-180.3 727.81,53.64 149.21,64.27 437.51,130.46 562.83,204.18l188.66 1122.87 1870.97 0.82c97.22,-27.58 76.67,-156.42 112.6,-343.42 135.14,-703.41 171.24,-604.45 -12.13,-967.16 -305.03,-603.39 -233.18,-730.65 -266.9,-1400.19l-430.1 -441.53z"/>
   <path class="fil0" d="M6563.5 4606.23c550.37,-35.43 976.15,13.89 1457.95,298.17 619.09,365.29 1074.16,1072.19 1103.89,1797.15 25.08,611.73 -105.57,337.9 330.34,793.02 226.24,236.22 311.08,6.24 955.42,155.73 223.29,51.8 772.84,342.17 830.9,344.12 149.11,5.01 828.91,-143.31 1019.9,-180.13l-5.15 -1913.91 -1124.37 -204.43c-65.64,-183.16 -111.63,-361.36 -186,-535.77 -77.61,-182.03 -168.31,-332.52 -241.1,-503.96 39.04,-67.69 34.5,-47.17 80.35,-109.19l409.57 -581.33c77.27,-104.88 90.74,-146.64 148.01,-243.65l-1342.19 -1346.12c-158.45,69.08 -915.23,632.35 -915.54,632.4 -136.92,-33.42 -338.96,-160.05 -497.93,-225.23 -126.98,-52.06 -470.72,-155.66 -546.56,-207.11 -75.14,-126.99 -181.73,-905.43 -207.05,-1115.72l-1941.82 -6.18c-19.17,295.37 -96.17,624.85 -149.42,916.93 -44.47,243.91 15.83,185.62 113.01,373.66 50.51,97.74 114.99,234.9 157.52,366.68 114.48,354.69 113.56,546.14 106.86,923.46 -4.04,227.63 218.93,293.57 443.41,571.41z"/>
  </g>
  <g id="_1912248109696">
   <path class="fil1 str0" d="M6858 508c3507,0 6350,2843 6350,6350 0,3507 -2843,6350 -6350,6350 -3507,0 -6350,-2843 -6350,-6350 0,-3507 2843,-6350 6350,-6350z"/>
   <path class="fil1 str1" d="M6858 508c3507,0 6350,2843 6350,6350 0,3507 -2843,6350 -6350,6350 -3507,0 -6350,-2843 -6350,-6350 0,-3507 2843,-6350 6350,-6350z"/>
  </g>
 </g>
</svg>
