<?xml version="1.0" encoding="UTF-8"?>
<!DOCTYPE svg PUBLIC "-//W3C//DTD SVG 1.1//EN" "http://www.w3.org/Graphics/SVG/1.1/DTD/svg11.dtd">
<!-- Creator: CorelDRAW 2020 (64-Bit) -->
<svg xmlns="http://www.w3.org/2000/svg" xml:space="preserve" width="106.045mm" height="103.505mm" version="1.1" style="shape-rendering:geometricPrecision; text-rendering:geometricPrecision; image-rendering:optimizeQuality; fill-rule:evenodd; clip-rule:evenodd"
viewBox="0 0 10604.5 10350.5"
 xmlns:xlink="http://www.w3.org/1999/xlink"
 xmlns:xodm="http://www.corel.com/coreldraw/odm/2003">
 <defs>
  <style type="text/css">
   <![CDATA[
    .str0 {stroke:#2B2A29;stroke-width:190.5;stroke-miterlimit:22.9256}
    .fil10 {fill:none}
    .fil3 {fill:#131313}
    .fil5 {fill:#464646}
    .fil6 {fill:#6D6D6D}
    .fil7 {fill:#929292}
    .fil1 {fill:#9C100E}
    .fil4 {fill:#B2B2B1}
    .fil2 {fill:#D0D0D0}
    .fil0 {fill:#D73B2B}
    .fil8 {fill:#F0F0F0}
    .fil9 {fill:#F3B3AE}
   ]]>
  </style>
 </defs>
 <g id="Layer_x0020_1">
  <metadata id="CorelCorpID_0Corel-Layer"/>
  <g id="_1912276634864">
   <g>
    <path class="fil0" d="M6433.38 3864.24l76.91 -66.6c13.28,-43.23 1005.33,-1401.54 1074.07,-1464.77 -3.93,-32.55 -11.98,-25.49 19.08,-25.49l-3.31 0.27 21.11 -30.82 7.75 -27.82 1.08 -31.75 -24.45 -12.76 -20.62 3.34 -38.34 17.62c7.9,28.48 15.29,22.87 -11.44,24 2.44,27.45 9.16,21.21 -17.38,21.21l-477.39 628.64c-203.35,260.32 -657.98,825.75 -837.55,1088.52 -25.53,37.35 -24.55,37.85 -63.87,85.47l-431.17 549.17c-48.47,64.54 -74.4,96.45 -131.77,156.89 -172.54,-35.11 -480.27,-169.87 -748.69,179.68 -203.83,265.44 -117.86,527.47 31.24,749.36 -77.65,100.47 -224.81,275 -288.7,381.48 41.05,29.8 80.42,63.41 107.1,83.38 23.05,-105.47 344.72,-499.69 429.06,-606.56l657.96 -888.73c163.52,-207.98 219.01,-306.26 419.71,-518.96 48.57,-51.47 -27.97,40.88 23.26,-28 1.35,-1.82 4.31,-6.27 5.72,-8.22 1.53,-2.14 4.65,-6.72 6.28,-9.01 1.74,-2.48 4.95,-7.09 6.8,-9.71l123.07 -166.25c2.27,-3.01 5.27,-7.56 7.69,-10.57 2.47,-3.06 5.59,-7.43 8.25,-10.45l68.54 -52.56zm-169.66 239.69l15.74 -12.13 -15.74 12.13c-34.15,31.15 -17.36,8.12 -25.2,41.32l25.2 -41.32zm-66.79 93.04l16.02 -13.4 15.37 -20.68c-29.68,-12.45 -19.37,-13.29 -15.37,20.68l-16.02 13.4zm147.87 -200.28l68.3 -86.2 -68.3 86.2zm-54.48 74.63l29.14 -29.49c-33.84,8.81 -15.51,-18.68 -29.14,29.49z"/>
    <path class="fil1" d="M4677.04 6173.26l26.25 26.19c74.21,-27.74 98.8,-84.76 168.18,-178.27 51.34,-69.19 88.38,-125.32 140.87,-195.73 302.74,75.02 469.44,96.59 679.17,-110.66 203.21,-200.8 210.92,-374.44 117.77,-687.44 -35.02,-44.91 -48.33,-55.27 -58.93,-103.41 -32.5,-18.84 -13.64,14.96 -43.03,-33.88 24.72,-66.86 191.94,-275.4 244.17,-352.37 81.1,-119.49 179.03,-220.62 245.44,-340.72l16.02 -13.4c-4,-33.97 -14.31,-33.13 15.37,-20.68l10.2 -17.64c7.84,-33.2 -8.95,-10.17 25.2,-41.32l15.74 -12.13 10.86 -20.48c13.63,-48.17 -4.7,-20.68 29.14,-29.49 19.01,-42.28 -5.39,-16.34 25.34,-45.14l68.3 -86.2c44.73,-85.26 -30.9,36.42 20.28,-46.25l-68.54 52.56c-2.66,3.02 -5.78,7.39 -8.25,10.45 -2.42,3.01 -5.42,7.56 -7.69,10.57l-123.07 166.25c-1.85,2.62 -5.06,7.23 -6.8,9.71 -1.63,2.29 -4.75,6.87 -6.28,9.01 -1.41,1.95 -4.37,6.4 -5.72,8.22 -51.23,68.88 25.31,-23.47 -23.26,28 -200.7,212.7 -256.19,310.98 -419.71,518.96l-657.96 888.73c-84.34,106.87 -406.01,501.09 -429.06,606.56z"/>
    <path class="fil2" d="M6176.05 4417.2c-41.94,18.16 -197.95,206.02 -209.95,229 -39.17,75.05 -22.13,77.12 -82.81,132.35 -143.62,130.7 -79.06,150.77 0.71,240.52 25.52,28.72 17.02,17.95 35.15,52.39l39.68 72.13c-22.67,86.91 -24,208.83 -24.09,293.05 -0.12,107.03 -32.68,133.76 -74.32,245.75l-63.18 10.8c-32.28,184.62 -387.1,305.69 -514.14,273.48 -289.37,-73.34 -220.45,6.59 -379.76,160.13 -55.36,53.35 -114.13,250.29 -284.23,48.25l-24.25 -35.49c-2.45,-3.76 -6.16,-10.14 -8.14,-13.29 -2.02,-3.2 -4.85,-9.47 -8.12,-13.62 33.69,115.13 114.9,196.34 244.64,201.71 203.03,-278.91 69.94,-93.61 198.37,-235.14 29.13,-32.12 39.07,-43.83 63.48,-87.86 259.23,-4.06 146.64,109.82 364.53,47.69 90.31,-25.75 0.49,7.4 82.99,-47.95 220.29,-147.81 48.88,55.48 367.82,-284.77 125.8,-134.21 26.18,-111.69 101.6,-246.05 17.37,-30.94 61.77,-108.2 46.88,-188.33l-74.58 -107.08c-1.93,-2.74 -6.15,-8.43 -7.72,-10.64 -1.58,-2.22 -4.7,-7.51 -7.78,-10.64 16.49,-65.53 1.67,-26.06 6.18,-72.24 11.09,-113.5 -12.38,69.3 2.94,-32.59 6.99,-46.49 -8.25,-9.87 10.48,-42.41 -9.76,-3.81 -37.07,3.95 -66.58,-23.36 -95.17,-88.07 -12.28,-149.13 37.66,-180.44 47.03,-29.5 -25.35,7.73 55.52,-109.52 34.89,-50.57 53.38,-90.69 99.69,-118.75 69.23,-41.95 88.33,-8.21 71.33,-147.08 49.43,-37.82 148.51,-109.77 196.49,-185.6 30.77,-48.64 13.21,-46.03 38.46,-88.89 43.6,-73.97 29.63,2.19 124.57,-130.08 65.54,-91.32 74.47,-207.17 83.7,-179.79 1.13,3.35 49.38,-13.2 88.51,-65.76 70.22,-94.31 21.57,-173.41 128.71,-228.39l116.04 -72.55c-37.19,-79.51 -44.91,-60.23 84.27,-223.11 113.89,-143.58 122.6,-244.43 255.59,-273.17 4.47,-88.61 8.82,-88.25 40.82,-138.47 2.9,-4.56 11.36,-17.34 14.54,-21.76 2.34,-3.26 5.31,-7.68 7.77,-10.88l65.87 -64.21c-35.42,-47.85 -1.44,-51.13 45.89,-57.73l19.06 -31.05c-29.35,-47.19 -19.9,34.57 7.14,-12.04 67.68,-116.61 7.94,-44.26 72.89,-118.16 54.1,-61.54 87.76,-86.24 106.32,-171.45 -16.46,-13.62 -10.17,-12.18 -37.75,-25.9 -3.78,-1.88 -25.79,-8.82 -31.5,-10.83 -31.06,0 -23.01,-7.06 -19.08,25.49 -26.27,67.15 8.32,65.51 -57.22,124.03 -99.23,88.6 -25.1,31.06 -86.22,134.34 -104.06,175.82 -624.05,831.21 -741.33,1019.57l-179.55 256.98c-142.34,277.28 -93.67,89.63 -174.09,265.59 -112.68,246.53 -180.31,133.48 -169.9,283.82z"/>
    <path class="fil3" d="M5194.73 7202.74l-131.13 4.78c-39.01,9.94 -37.44,22.17 -25.64,-14.29 -8.79,-10.15 -66.86,42.8 10.41,-48.1l3.05 3.73c-66.11,8.94 -23.58,26.62 -60.33,-22.45l-33.3 71.59c-1.7,-3.13 -3.37,-8.25 -3.85,-9.96l-6.75 -31.19c-6.7,-26.13 0.62,-11.63 -11.75,-30.35 -8.69,31.09 -1.42,29.51 -30.6,56.77 -10.78,10.09 -35.64,24.87 -56.5,25.11 -53.45,0.64 -66.97,-32.56 -88.95,-71.71l-41.62 35.65 -30.07 -99.89c14.13,72.89 8.22,47.79 -8.72,125.04 -33.28,-12.6 -12.09,-3.93 -49.33,-21.82 -91.48,46.55 -52.25,42.62 -147.47,5.67 -3.67,-6.43 -11.12,-9.29 -12.35,-18.45 -1.44,-10.75 -8.6,-16.02 -8.26,-24.69 -21.05,61.03 20.08,36.8 -33.18,45.42l-11.49 -154.1 -0.96 -111.34c6.12,-48.73 -50.09,-55.77 159.48,-49.72 251.26,7.26 1193.47,-17.45 1283.48,12.52l20.95 3.5c4.44,-2.06 10.51,-3.73 13.94,-4.56l29.56 -7.46c53.14,-8.72 232.74,-31.07 233.02,37.12l-10.45 202.45c-7.7,71.73 5.65,45.27 -33.8,93.3 -38.91,23.67 -96.15,30.68 -153.24,17.56 -34.72,-7.98 -43.5,-17.63 -45.98,-19.23l7.85 -29.68 -9.38 -14.27 11.95 -17.46 -35.81 42.05 -9.22 -101.89c-17.05,68.93 -29.08,103.73 -77.14,106.58 -1.04,0.07 -9.31,1.71 -12.94,4.47 9.13,36.81 12.85,25.98 -25.8,16.19l-17.09 -12.22c-4.04,2.11 -9.87,32.94 -70.48,13.32 -35.33,-11.43 -34.12,-18.67 -45.11,-55.14l11.84 -15.9 -11.84 15.9c-63.34,39.52 -8.57,0.61 -48.37,2.27 -24.29,1.02 -10.72,-14.39 -30.99,28.88 0,-51.08 13.43,-39.48 -35.52,-39.48l4.73 49.27c-47.22,30.18 -107.31,23.28 -176.75,11.14l3.44 -58.99c-48.97,48.62 -28.74,-56.8 -41.46,52.52l-0.29 -92.22 -37.63 1.05c6.73,66.55 10.8,38.28 -15.3,90.99 -1.78,-5.79 -2.51,-19.3 -5.47,-27.74l-21.9 -43.85 9.97 30.92c-6.91,35.29 -4.56,23.76 -0.47,51.12l-38.99 -8.73zm-810.62 116.93l1800.61 -1.44 -8.38 -463.19 -1777.68 0.13 -14.55 464.5z"/>
    <path class="fil4" d="M6510.29 3797.64c-20.15,40.5 -15.13,25.43 -28.68,52.16l-17.8 37.95c-49.5,98.02 -82.81,84.55 -146.25,202.4 -30.6,56.83 -57.04,90.9 -93.12,140.79 -19.06,26.36 -35.48,43.9 -54.97,69.96l-240.36 344.43c-101.53,180.59 -177.8,149.05 -178.76,278.61 10.6,48.14 23.91,58.5 58.93,103.41 53.82,36.95 70.35,79.69 82.9,153.06 48.77,284.89 -49.39,393.36 -94.94,512.78 -62.02,15.13 -17.17,-5.16 -64.05,45.29 -125.76,135.33 -303.19,205.63 -486.97,174.23 -181.34,-30.98 -220.72,-21.81 -299.78,94.13 -63.17,92.64 -98.54,127.5 -153.18,224.64 -161.41,7.82 -44.43,7.89 -89.97,-32.03l-26.25 -26.19c-26.68,-19.97 -66.05,-53.58 -107.1,-83.38l8.66 22.77c3.27,4.15 6.1,10.42 8.12,13.62 1.98,3.15 5.69,9.53 8.14,13.29l24.25 35.49c170.1,202.04 228.87,5.1 284.23,-48.25 159.31,-153.54 90.39,-233.47 379.76,-160.13 127.04,32.21 481.86,-88.86 514.14,-273.48l63.18 -10.8c41.64,-111.99 74.2,-138.72 74.32,-245.75 0.09,-84.22 1.42,-206.14 24.09,-293.05l-39.68 -72.13c-18.13,-34.44 -9.63,-23.67 -35.15,-52.39 -79.77,-89.75 -144.33,-109.82 -0.71,-240.52 60.68,-55.23 43.64,-57.3 82.81,-132.35 12,-22.98 168.01,-210.84 209.95,-229 -10.41,-150.34 57.22,-37.29 169.9,-283.82 80.42,-175.96 31.75,11.69 174.09,-265.59l179.55 -256.98c117.28,-188.36 637.27,-843.75 741.33,-1019.57 61.12,-103.28 -13.01,-45.74 86.22,-134.34 65.54,-58.52 30.95,-56.88 57.22,-124.03 -68.74,63.23 -1060.79,1421.54 -1074.07,1464.77z"/>
    <path class="fil5" d="M4398.66 6855.17l1777.68 -0.13 8.38 463.19 -1800.61 1.44 14.55 -464.5zm-47.15 500.32c121.75,-28.29 1748.53,-28.06 1867.95,0.7 -27.11,-111.38 -26.1,-438.12 -0.5,-549.76 -148.15,25.89 -1727.78,26.47 -1867.32,-0.12 26.95,112.55 28.47,437.89 -0.13,549.18z"/>
    <path class="fil6" d="M4351.51 7355.49c28.6,-111.29 27.08,-436.63 0.13,-549.18 139.54,26.59 1719.17,26.01 1867.32,0.12 -25.6,111.64 -26.61,438.38 0.5,549.76 -119.42,-28.76 -1746.2,-28.99 -1867.95,-0.7zm0.13 -557.23l-7.74 557.21 1875.56 7.79 7.97 -556.79 -1875.79 -8.21z"/>
    <path class="fil5" d="M5234.19 7160.35c-21.65,15.55 -22.54,14.29 -39.46,42.39l38.99 8.73c-4.09,-27.36 -6.44,-15.83 0.47,-51.12zm32.7 -50.32l37.63 -1.05 0.29 92.22c12.72,-109.32 -7.51,-3.9 41.46,-52.52 133.3,15.08 14.68,10.21 66.06,-21.82l-107.81 -17.88 -4.57 -75.07 2.79 -120.09c29.05,-32.53 17.77,-26.91 128.02,-27.44 147.65,-0.71 110.95,-6.77 122.16,30.45 73.96,-26.54 47.38,-30.77 149.75,-30.17 60.26,0.35 95.49,1.24 156.23,-5.7l-1.59 33.97 14.5 32.03c0.02,0.11 27.64,21.82 -19.62,89.08l2.71 52.93 -40.84 1.43c-16.53,56.63 -17.56,60.93 -25.85,103.04 -32.6,-7.67 -25.8,-15.44 -25.8,16.19 38.65,9.79 34.93,20.62 25.8,-16.19 3.63,-2.76 11.9,-4.4 12.94,-4.47 48.06,-2.85 60.09,-37.65 77.14,-106.58l9.22 101.89 35.81 -42.05 -11.95 17.46c4.05,-2.79 10.19,-11.92 12.12,-8.4 2.38,4.34 9.72,-6.45 23.57,-16.64 26.34,-19.39 21.55,-16.77 44.58,-33.45l-8.19 -14.3 20.16 -27.3 0.67 8.9c-58.06,19.55 -57.62,16.2 -125.99,13.89l3.93 -36.19 2.77 -140.99 -5.14 -20.75c53.69,4.31 97.72,3.89 151.57,3.5 14.15,-0.1 60.02,-0.46 71.68,1.51 48.5,8.21 17.98,-9.15 37.27,18.41l16 1.68c-0.28,-68.19 -179.88,-45.84 -233.02,-37.12l-29.56 7.46c-3.43,0.83 -9.5,2.5 -13.94,4.56l-20.95 -3.5c-90.01,-29.97 -1032.22,-5.26 -1283.48,-12.52 -209.57,-6.05 -153.36,0.99 -159.48,49.72 60.42,-34.04 157.73,-18.99 256.39,-23.26l13.61 38.02 1.76 139.51c-42.93,4.8 -16.12,-7.37 -47.84,9.88l-10.21 93.34c37.24,17.89 16.05,9.22 49.33,21.82 16.94,-77.25 22.85,-52.15 8.72,-125.04l30.07 99.89 41.62 -35.65 7.91 -38.08c-32.08,-26.81 -32.08,-28.69 -48.3,-80.93 -3.88,-6.24 -46.98,-53.46 -16.48,-104.19 29.31,-48.76 15.4,-26.73 89.69,-27.88 204.6,-3.16 189.48,-13.57 190.88,35.25l47.44 -35.49c144.34,8.37 235.82,-27.56 247.08,32.95l-1.59 105.07 -9.13 86.66c-18.05,-18.95 -22.53,-22.82 -37.65,-31.52l4.04 31.82 -9.06 19.1 21.9 43.85c2.96,8.44 3.69,21.95 5.47,27.74 26.1,-52.71 22.03,-24.44 15.3,-90.99zm646.01 93.61c2.48,1.6 11.26,11.25 45.98,19.23 57.09,13.12 114.33,6.11 153.24,-17.56 39.45,-48.03 26.1,-21.57 33.8,-93.3l-109.25 -0.14 -5.85 49.3 64.45 -5.12 16.85 49.26 -199.22 -1.67 7.85 -29.68 -7.85 29.68z"/>
    <path class="fil7" d="M4703.29 6199.45c45.54,39.92 -71.44,39.85 89.97,32.03 54.64,-97.14 90.01,-132 153.18,-224.64 79.06,-115.94 118.44,-125.11 299.78,-94.13 183.78,31.4 361.21,-38.9 486.97,-174.23 46.88,-50.45 2.03,-30.16 64.05,-45.29 45.55,-119.42 143.71,-227.89 94.94,-512.78 -12.55,-73.37 -29.08,-116.11 -82.9,-153.06 93.15,313 85.44,486.64 -117.77,687.44 -209.73,207.25 -376.43,185.68 -679.17,110.66 -52.49,70.41 -89.53,126.54 -140.87,195.73 -69.38,93.51 -93.97,150.53 -168.18,178.27z"/>
    <path class="fil5" d="M4812.31 3597.84c47.15,-15.86 54.47,56.87 40.94,-203.98 44.02,69.05 32.91,107.55 86.35,175.86 73.18,-43.08 41.62,-71.76 104.11,-188.94 -15.15,245.97 -17.07,197.96 41.38,217.22 35.44,-36.16 29.9,-5.47 28.57,-162.56 -0.68,-80.85 14.42,-137.87 -28.57,-190.68 -97.78,6.89 -53.67,-29.35 -89.55,84.02 -15.24,48.14 -28.31,81.58 -37.11,128.36l-17.11 -22.79c-7.08,-12.56 -13.49,-23.91 -18.69,-37.23 -7.46,-19.06 -13.17,-48.3 -18.82,-68.82 -32.94,-119.6 -4.99,-79.38 -125.12,-85.99l3.91 284.92c13.09,102.88 0.75,41.36 29.71,70.61z"/>
    <path class="fil5" d="M7049.11 2064.52c41.2,30.14 49.23,-10.26 48.02,115.39 -0.71,73.47 10.83,121.83 -43.22,115.74 -70.12,-7.91 -67.89,-170.22 -4.8,-231.13zm-87.43 -43.18c-18.4,82.35 -46.08,131.94 -24.23,233.54 3.28,15.23 8.87,30.83 12.76,45.3l10.51 41.71c101.09,27.03 202.41,43.34 210.47,-142.58 6.84,-157.89 -44.49,-235.9 -209.51,-177.97z"/>
    <path class="fil5" d="M6299.89 1699.96c102.42,7.13 64.38,154.23 40.52,223.76 -85.73,-12.77 -87.15,-101.71 -68.03,-177.33 22.13,-87.54 -4.08,-9.64 27.51,-46.43zm-66.59 276.42c104.54,19.39 165.51,19.47 194.65,-91.36 97.55,-371.03 -382.35,-325 -194.65,91.36z"/>
    <path class="fil5" d="M5274.73 3308.42l96.11 22.53 -2.22 67.02 -96.21 15.88 2.32 -105.43zm-79.74 124.55l2.47 163.27 58.91 -12.29c0.66,2.34 5.74,-7.9 6.53,-10.55l11.39 -94.06 86.41 -6.47c110.33,-43.03 95.93,-66.59 80.87,-196.32 -93.75,-33.06 -133.48,-32.13 -252.05,-29.66l5.47 186.08z"/>
    <path class="fil5" d="M5103.38 1722.94c141.94,26.89 89.14,102.75 -1.75,87.86l1.75 -87.86zm40.73 -59.99c-41.44,-28.76 -38.26,-10.38 -33.94,-73.59 2.42,-0.82 -14.9,-44.72 56.71,-2.31 0.12,0.07 53.58,43.31 -22.77,75.9zm-66.67 54.04c-51.06,31.62 -41.46,6.79 -52.5,81.56 60.87,81.66 93.17,88.77 209.89,56.26 34.05,-71.44 44.48,-114.34 -21.22,-165.37 118.21,-189.74 -102.25,-185.34 -148.66,-146.58 -60.06,50.17 -8.26,121.56 12.49,174.13z"/>
    <path class="fil5" d="M8920.81 4536.66c-42.35,-53.04 -42.64,-170.77 -8.72,-231.03l50.42 2.92c31.18,78.87 56.52,199.46 -41.7,228.11zm-70.09 -279.59c-130.11,334.99 123.32,418.99 181.82,289.04 1.35,-3 17.19,-52.84 18.22,-57.75 11.41,-54.73 12.63,-86.68 -0.26,-141.87 -21.93,-93.84 -102.99,-128.33 -199.78,-89.42z"/>
    <path class="fil5" d="M5558 3595.28l1.39 -159.96c34.01,2.08 53.59,-2.05 89.95,1.07 66.67,5.72 33.75,-7.25 54.23,16.69 7.54,11.99 8.63,5.72 15.65,37.55 7.75,35.17 -2.23,-0.2 3.34,34.03 10.35,63.64 -8.52,5.28 17.11,73.5l46.87 -10.09 1.94 -282.49c-15.25,-70.57 17.59,-36.67 -48.72,-60.93 -39.96,29.1 -30.45,18.84 -31.9,140.07l-113.61 -0.53c-28.23,-113.01 29.32,-107.15 -54.53,-138.85 -37.39,24.01 -38.2,-32.49 -32.76,153.16 1.91,65.21 0.74,130.1 3.73,194.97l47.31 1.81z"/>
    <path class="fil5" d="M4499.43 1699.53c101.66,7.98 65.07,152.41 40.74,223.87 -58.99,-7.78 -67.32,-19.64 -72.9,-87.73l8.89 -103.48c12.83,-33.87 8.49,-15.37 23.27,-32.66zm-27 -50.82c-50.18,21.09 -49.18,-7.48 -69.98,85.8 -73.2,328.21 290.18,344.55 228.5,11.43 -16.98,-91.73 -54.65,-140.91 -158.52,-97.23z"/>
    <path class="fil5" d="M2957.4 2941.25c-67.49,-35.97 -72.42,-189.36 0,-229.07 63.76,36.96 76.89,192.25 0,229.07zm-51.58 -275.02c-138.96,77.06 -69.77,420.43 110.02,320.47 115.27,-64.08 76.18,-423.71 -110.02,-320.47z"/>
    <path class="fil5" d="M8522.12 3728.49c-48.83,-31.43 -15.07,39.17 -40.96,-48.77 -19.42,-65.98 -12.13,-149.19 40.96,-180.88 52.71,24.15 48.54,40.24 47.05,118.21 -1.28,66.82 1.24,79.04 -47.05,111.44zm-35.41 -285.29c-148.73,68.22 -98.85,445.28 101.77,333.34 92.56,-51.65 71.67,-412.9 -101.77,-333.34z"/>
    <path class="fil5" d="M1990.6 4534.55c-56.17,-58.51 -52.53,-172.05 2.98,-228.45 56.1,24.29 59.71,46.68 56.2,129.76 -3.13,74.55 -5.32,94.95 -59.18,98.69zm-45.73 -261.83c-3.58,2.68 -43.32,-1.25 -59.49,91.51 -36.22,207.8 77.52,277.55 180.61,217.19 121.01,-70.85 47.44,-434.69 -121.12,-308.7z"/>
    <path class="fil5" d="M3666.63 2296.93c-39.76,-22.15 -91.22,-144.23 0,-229.54 90.95,55.88 40.29,208.83 39.91,209.52 -1.5,2.68 -5.51,7.22 -7.15,9.24 -1.57,1.93 -7.92,4.79 -9.37,6.1 -65,58.31 49.63,-6.99 -23.39,4.68zm71.36 43.46c170.13,-167.64 -70.2,-485.31 -166.47,-272.48 -1.4,3.1 -15.27,48.79 -17.62,60.68 -10.93,55.14 -9.27,93.96 8.4,143.53 1.9,5.34 3.62,9.69 5.81,14.54 35.65,79.18 99.34,80.19 169.88,53.73z"/>
    <path class="fil5" d="M2338.25 3498.09c37.57,47.99 62.56,181.5 -17.34,230.4 -26.6,-19.06 -19.45,22.53 -39.7,-49.97 -20.46,-73.26 -17.47,-161.44 57.04,-180.43zm70.95 278.21c147.16,-464.62 -276.06,-419.3 -200.48,-87.79 26.98,118.39 90.47,106.72 200.48,87.79z"/>
    <path class="fil5" d="M9041.73 5386.6c-21.67,-87.16 -44.58,-157.15 25.95,-231.42 64.74,36.08 53.79,23.3 52.2,118.07 -1.54,91.09 2.49,106.8 -78.15,113.35zm-24.05 -257.65c-31.35,13 0.39,-109.35 -55.37,59.92 -91.97,279.21 221.28,365.27 230.87,100.49 3.59,-98.98 -27.13,-129.93 -52.85,-183.95 -121.97,-18.86 -138.99,-20.5 -122.65,23.54z"/>
    <path class="fil5" d="M7310.92 2064.84c77.33,17.42 77.11,17.69 76.51,115.65 -0.49,77.89 2.21,86.97 -47.36,117.18 -70.15,-56.08 -47.87,-148.5 -29.15,-232.83zm63 289.12c127.94,-73.3 89.41,-212.76 55.39,-334.43 -145.14,-23.11 -200.1,-24.24 -209.49,142.37 -7.25,128.77 38.21,193.76 154.1,192.06z"/>
    <path class="fil5" d="M8226.7 7313.98c-16.56,-41.89 -10.99,-21.28 -13.61,-55.94l12.47 -39.19 61.86 16.69c9.77,20.13 14.22,-6.37 13.23,39.08 -1.33,60.93 -58.27,58.7 -63.98,42.32 -1.24,-3.56 -6.6,-2.13 -9.97,-2.96zm-63.51 44.23c52.65,13.36 106.73,24.2 191.55,1.77 12.57,-52.17 31.32,-126.38 -0.86,-167.56 -2.13,-2.73 42.44,-23.59 -67.2,-29.45 -35.27,-1.88 -51.16,7.97 -81.27,17.91 37.86,-178.5 93.1,1.85 163.26,-136.02 -253.63,-51.09 -260.91,110.17 -205.48,313.35z"/>
    <path class="fil5" d="M1970.07 6381.9c-25.72,-78.52 -47.53,-178.58 23.51,-228.59 55.09,19.58 50.2,40.41 49.1,118.92 -1.26,89.92 1.4,96.08 -72.61,109.67zm111.15 48.93c149.03,-475.39 -280.14,-412.39 -198.62,-87.7 28.06,111.78 92.69,103.24 198.62,87.7z"/>
    <path class="fil5" d="M8931.99 6389.56c-77.04,-18.16 -82.46,-24.51 -78.31,-136.23 3.12,-83.98 8.19,-90.35 75.07,-99.54l5.26 20.24c22.85,85.05 26.32,104.92 -2.02,215.53zm-116.26 41.59c74.62,8.92 166.36,44.62 196.83,-84.13 78.97,-333.73 -284.26,-336.81 -230.2,-25.37 4.02,23.19 17.34,53.63 18.99,58.43l14.38 51.07z"/>
    <path class="fil5" d="M5430.61 1812.11c-48.2,-14.02 -10.5,49.44 -41.41,-37.73 -25.55,-72.05 -27.26,-179.74 60.23,-183.25 14.68,21.56 14.04,10.32 23.56,47.45l-4.83 143.1c-20.33,48.53 -34.13,28.94 -37.55,30.43zm36.28 -290.12c-252.41,8.25 -165.67,330.49 -68.28,349.52 176.36,34.46 164.73,-204.35 132.67,-274.8 -21.45,-47.12 -36.07,-44.78 -64.39,-74.72z"/>
    <path class="fil5" d="M8571.96 7097.35c23.18,80.64 19.4,117.1 -3.57,219.88 -76.44,-14.51 -79.46,-17.91 -79.28,-117.97 0.27,-146.18 58.99,-102.16 82.85,-101.91zm-91.19 -31.15c-3.29,3.12 -10.15,1.23 -11.62,7.04l-20.75 15.67c-2.01,2.29 -6.18,6.72 -8.16,9.49 -33.79,47.36 -26.9,128.92 -11.71,183.13 49.77,177.73 281.59,123.46 223.75,-148.51 -14.46,-67.99 -50.92,-124.25 -124.76,-104.9 -95.11,24.92 -22.68,15.14 -46.75,38.08z"/>
    <path class="fil5" d="M2068.53 7270.86c-21.36,-68.64 -6.78,-142.2 34.16,-183.19 52.38,22.17 57.74,32.42 58.02,111.68 0.35,101.52 -23.28,100.76 -38.13,117.07l-21.28 -0.79c-26.79,-23.71 -12.89,19.12 -32.77,-44.77zm113.29 95.6c104,-161.07 25.22,-433.12 -138.45,-319.39 -55.71,38.7 -64.66,155.79 -43.34,235.87 26.15,98.15 73.4,102.78 181.79,83.52z"/>
    <path class="fil5" d="M6067.91 1766.7c-2.09,30.33 35.75,19.83 -29.33,31.14 -91.79,15.93 -13.58,-1.21 -47.31,-14.49 -12.11,-29.25 -24.33,-33.31 7.34,-85.5 39.16,4.55 73.08,13.95 69.3,68.85zm-142.69 79.51c76.32,5.56 71.4,14.45 147.52,-15.12 -15.41,167.68 -67.52,60.73 -126.16,90.19l-21.96 23.73c-3.37,3.5 -6.09,11.49 -9.36,17.12 202.1,95.93 267.81,-56.77 199.7,-302.69 -163.04,-46.65 -240.77,8.68 -189.74,186.77z"/>
    <path class="fil5" d="M8069.62 2719.1c0.03,0.05 24.82,-16.09 26.69,97.61 1.24,74.97 -6.97,95.97 -27.65,134.17 -24.49,-7.59 -64.17,20.48 -67.34,-116.13 -1.95,-84.12 -2.35,-112.17 68.3,-115.65zm84.71 210.03c70.6,-233.06 -94.11,-341.59 -183.11,-243.74 -2.57,2.83 -5.62,7.28 -7.85,10.4l-12.66 23.94c-27.98,58.21 -26.31,186.51 13.16,242.62 20.84,29.63 46.2,44.74 107.01,37.38 63.24,-7.66 62.43,-28.2 83.45,-70.6z"/>
    <path class="fil7" d="M6433.38 3864.24c-51.18,82.67 24.45,-39.01 -20.28,46.25l-68.3 86.2c-30.73,28.8 -6.33,2.86 -25.34,45.14l-29.14 29.49 -10.86 20.48 -15.74 12.13 -25.2 41.32 -10.2 17.64 -15.37 20.68 -16.02 13.4c-66.41,120.1 -164.34,221.23 -245.44,340.72 -52.23,76.97 -219.45,285.51 -244.17,352.37 29.39,48.84 10.53,15.04 43.03,33.88 0.96,-129.56 77.23,-98.02 178.76,-278.61l240.36 -344.43c19.49,-26.06 35.91,-43.6 54.97,-69.96 36.08,-49.89 62.52,-83.96 93.12,-140.79 63.44,-117.85 96.75,-104.38 146.25,-202.4l17.8 -37.95c13.55,-26.73 8.53,-11.66 28.68,-52.16l-76.91 66.6z"/>
    <path class="fil5" d="M1910.63 5387.56c-69.32,-12.8 -79.73,-21.1 -80.18,-115.7 -0.79,-167 76.45,-103.2 85.18,-102.9 18.72,78.23 16.92,117.32 -5,218.6zm33.11 48.84c95.17,-105.79 52.39,-199.48 26.66,-323.87 -82.64,-8.18 -136.3,-43.09 -190.03,57.3 -20.96,39.15 -78.13,308.95 163.37,266.57z"/>
    <path class="fil5" d="M3421.93 2206.59c29.2,83.2 -22.23,117.47 -60.59,79.29 -55.6,-55.33 -9.48,-94.5 60.59,-79.29zm-112.32 -181.95c-161.9,415.4 244.25,411.32 187.51,168.13 -55.98,-63.34 -77.25,-66.69 -159.21,-27.96 43.57,-203.16 78.09,-14.77 158.88,-113.9 -42.2,-33.57 -118.59,-63.07 -187.18,-26.27z"/>
    <path class="fil5" d="M2011.76 3643.79c-12.93,-23.29 -32.17,-4.85 35.2,-113.37 11.23,127.56 -1.26,96.1 -35.2,113.37zm-107.3 64.13l125.42 -10.88c33.12,70.87 16.99,65.68 54.62,87.49 72.58,-30.95 -13.78,1.87 84.29,-112.89 -58.73,-63.97 -46.28,-18.48 -43.51,-230.71 -139.85,2.96 -112.07,24.26 -174.91,136.08 -47.46,84.45 -42.16,37.14 -45.91,130.91z"/>
    <path class="fil5" d="M1616.35 4317.71c68.56,12.99 48.34,-32.26 122.05,8.6 -10.8,100.34 -15.07,20.71 -80.2,90.93 66.45,75.57 94.36,-16.72 92.46,99.76l-81.73 10.16c-58.77,-5.62 -13.82,-36.15 -68.94,5.47 3.88,29.03 -7.6,42.12 56.17,59.45 134.96,36.65 250.98,-72.79 122.17,-174.84 74.84,-52.3 58.79,-138.69 -6.47,-163.98 -4.03,-1.56 -186.87,-41.25 -155.51,64.45z"/>
    <path class="fil5" d="M9203.21 4253.57c38.94,23.63 -64.11,51.45 161.23,-11.71l432.13 -112.24c59.91,-18.51 46.05,2.14 56.49,-57.9 -66.39,-41.72 -424.94,81.96 -512.02,106.04 -67.07,18.54 -134.27,15.23 -137.83,75.81z"/>
    <path class="fil5" d="M1176.72 7657.11c59.9,52.02 68.12,17.64 137.2,-26.28 48.03,-30.54 108.06,-64.12 162.06,-93.28l242.66 -138.81c90.37,-47.14 53.53,14.52 56.07,-75.68 -0.78,-0.51 21.3,-48.53 -71.96,0.51l-378.6 223.76c-73.86,44.73 -119.28,52.31 -147.43,109.78z"/>
    <path class="fil5" d="M555.18 5308.32c34.4,31.45 -70.17,29.72 165.37,27.27l456.29 1.14c88.89,-19.12 30.99,16.92 50.13,-46.59 -47.58,-43.41 -241.15,-24.22 -342.7,-24.37l-274.76 -2.36c-96.31,18.48 -17.03,-12.94 -54.33,44.91z"/>
    <path class="fil5" d="M8648.46 4379.53l-53.51 37.71 59.23 35.41c41,13.53 20.51,-1.86 35.28,37.33 -74.29,120.01 -64.6,-29.24 -156.91,54.56 32.4,48.98 96.59,72.01 178.03,44.61 77.49,-26.07 91.66,-122.21 2.07,-171.91 78.36,-48.25 33.3,-138.84 27.6,-145.39l-109.36 -26.55c-68.28,3.95 -73.77,16.48 -90.91,64.21 71.3,38.59 4.12,7.76 63.23,7.26 55.74,-0.47 106.27,3.11 45.25,62.76z"/>
    <path class="fil5" d="M8800.31 7323.91c-20.14,80.02 -68.32,9.63 120.16,115.2l323.34 185.85c71.65,40.5 95.58,80.93 147.7,30.77 -33.33,-65.53 -322.93,-208.8 -434.82,-273.65 -70.07,-40.62 -92.69,-79.4 -156.38,-58.17z"/>
    <path class="fil5" d="M8745.29 5277.75l12.92 -28.98 21.84 -47.63c24.24,-35.79 -33.35,-19.03 30.77,-32.04l-6.43 134.73 -83.13 -1.18 24.03 -24.9zm-76.29 12.94l-13.92 61.89c38.97,-7.09 46.26,-12.51 87.11,-12.48l45.88 9.4c2.39,-4.1 8.21,4.13 12.39,6.02l-5.47 88.24 83.86 4.2c-8.82,-102.29 -9.99,-55.23 37.46,-121.45 -95.41,-98.16 25.59,73.78 -31.55,-33.34 -26.58,-49.82 -12.68,-129.09 -5.2,-198.3 -134.03,8.07 -95.08,-29 -143.37,65.43 -25.69,50.26 -53.85,81.63 -67.19,130.39z"/>
    <path class="fil5" d="M8799.46 3276.68c9.64,3.2 9.56,22.84 78.57,-9.85 89.5,-42.4 492.13,-280.4 513.37,-322.39l-22.43 -29.41c-56.17,11.98 -232.88,121.76 -296.91,159.35 -55.39,32.52 -93.57,56.51 -148.93,88.16 -187.23,107.04 -141.81,25.5 -123.67,114.14z"/>
    <path class="fil5" d="M8721.21 6356.53l-5.24 -79.57 -4.85 -30.46 -23.13 -11.72 -105.12 -4.96c-4.8,-68.64 -8.65,-29.25 14.49,-69.06l116.87 -1.54 -2.2 -50.78 -182.68 -13.12 -20.73 189.39c68.32,0.16 74.16,-17.49 138.88,4.03l2.44 75.02c-123.79,41.46 -82.44,-44.64 -157.91,22.71 23.52,37.75 51.11,57.82 120.86,57.06 100.48,-1.09 100.45,-20.51 108.32,-87z"/>
    <path class="fil5" d="M9344.56 5290.14c13.25,43.6 -40.21,48.64 141.07,45.37l364.08 -0.38c233.25,3.27 146.42,13.38 165.47,-44.99 -24.71,-20.22 37.22,-27.41 -147.18,-24.71l-488.53 3.34c-42.37,11.97 -10.95,-1.24 -34.91,21.37z"/>
    <path class="fil5" d="M6339.88 1385.24c47.49,-27.04 24.77,19.9 71.41,-154.76l115.61 -430.99c15.95,-79.31 24.21,-38.05 -17.93,-71.21 -53.62,21.95 -22.06,-27.15 -52.24,61.66 -6.34,18.66 -16.64,65.7 -22.25,87.63l-91.54 344.57c-18.15,70.4 -52.77,121.3 -3.06,163.1z"/>
    <path class="fil5" d="M4230.38 1385.34c60.69,-44.6 -2.93,-150.28 -45.6,-320.55l-68.22 -259.13c-22.96,-87.55 -6.54,-57.31 -56.77,-79.3 -31.73,30.81 -38.36,-7.36 3.5,145.36 14.77,53.88 31.64,114.94 46.35,173.56 14.14,56.39 32.48,112.54 47.42,171.02 37.96,148.64 14.97,137.27 73.32,169.04z"/>
    <path class="fil5" d="M2915.92 1202.57c-22.61,57.16 11.19,80.79 56.85,160.91 51.19,89.85 220.48,405.51 277.2,432.84 50.12,-53.52 5.51,-69.74 -35.03,-145.35l-229.28 -407.14c-49.84,-79.54 15.72,-52.35 -69.74,-41.26z"/>
    <path class="fil5" d="M716.61 4071.72c11.72,60.17 -15.69,27.14 42.98,53.58l432.76 110.69c274.8,77.35 130.14,45.81 175.7,17.58 -3.42,-60.75 -49.46,-52.63 -124.13,-71.26l-473.46 -127.05c-48.48,-1.08 -26.4,-1.01 -53.85,16.46z"/>
    <path class="fil5" d="M1491.4 5172.95l51.21 -6.43c52.45,-7.72 6.62,-10.51 73.97,-6.87 21.34,153.18 -110.32,144.67 -146.03,289.6 75.97,-6.85 199.91,13.92 243.43,-31.81 -19.44,-68.9 -19.57,-44.65 -112.68,-42.48 30.64,-38.26 132.32,-120.32 88.06,-215.67 -36.57,-78.76 -211,-85.12 -197.96,13.66z"/>
    <path class="fil5" d="M716.08 6526.74c32.77,22.45 -47.65,43.08 171.56,-12.55l343.72 -93.85c76.78,-18.68 135.78,-7.99 135.31,-75.45 -40.97,-21.44 62.87,-41.93 -158.22,14.45l-432.31 111.58c-63.06,19.52 -46.02,0.14 -60.06,55.82z"/>
    <path class="fil5" d="M7318.38 1789.31c59.06,2.35 233.9,-352.83 271.89,-414.58 48.8,-79.33 85.19,-115.76 61.61,-170.24 -57.72,-11.93 -31.94,-11.49 -103.68,112.35l-222.33 378.97c-44.94,78.81 -18.85,73.89 -7.49,93.5z"/>
    <path class="fil5" d="M9203 6344.89c3.86,62.01 45.89,52.93 121.4,72.58l344.48 92.5c103.94,28.48 132.33,54.24 186.1,16.77 -14.22,-56.3 28.08,-34.73 -135.02,-71.74l-473.91 -125.55c-51.94,4.15 -13.7,-1.4 -43.05,15.44z"/>
    <path class="fil5" d="M8127.47 3501.69c50.16,27.04 172.94,-33.67 131.23,86.36 -31.89,91.79 -120.59,93.25 -140.38,196.53 43.79,0.39 88.33,1.1 132.04,0.83 120.4,-0.73 90.49,-8.51 110.22,-22.84 -11.41,-41.71 30.59,-50.41 -113.9,-44.04 61.77,-81.27 110.7,-115.78 82.11,-253.84 -80.06,-35.19 -156.81,-50.48 -201.32,37z"/>
    <path class="fil5" d="M1176.89 2963.94l537.68 317.4c46.89,12.13 39.94,2.17 57.5,-3.6 12.3,-61.62 17.16,-32.4 -28.3,-65.7l-540.7 -295.14 -26.18 47.04z"/>
    <path class="fil5" d="M2572.91 2742.64l-0.42 95.13 133.98 3.14 -0.98 86.55c-118.57,24.67 -99.81,-39.99 -135.41,-0.43 -65.81,73.13 -7.6,48.21 -7.03,52.52 269.87,102.9 301.12,-234.41 85.06,-189.25 -18.39,-18.14 -8.01,5.63 -15.73,-41.49 -0.47,-2.82 3.09,-6.9 2.92,-13.72 -0.18,-7.11 2.95,-9.42 5.55,-13.55l129.27 -31.9c-59.14,-24.81 -89.01,-12.04 -158.24,-20.98 -2.83,3.91 -5.93,9.62 -7.45,12.41 -26.18,47.96 -14.17,81.08 -25.46,49.77 -0.93,-2.57 -3.61,8.12 -6.06,11.8z"/>
    <path class="fil5" d="M8408.86 5144.65c23.15,46.24 45.1,19.22 63.83,73.73 5.97,17.38 3.66,102.56 3.71,126.31 -13.4,46.08 -55.83,10.03 -77.27,72.75 22.9,22.66 -7.31,11.35 34.74,22.53 11.79,3.13 56.5,5.84 69.62,5.93 90.12,0.6 84.57,-3.44 114.4,-28.46 -28.17,-62.74 1.26,-9.54 -65.66,-54.56l1.99 -269.22c-70.79,10.8 -89.74,10.2 -145.36,50.99z"/>
    <path class="fil5" d="M7724.38 2672.62l-40.17 15.88 -5.1 42.46 67.36 10.62 -1.93 166.27c-3.86,3.48 -11.37,1.6 -13.64,8.39 -11.59,34.73 -48.14,-15.65 -59.02,64.36 50.37,25.73 145.02,15.68 211.52,15.84 -0.77,-111.5 34.52,-37.68 -58.91,-70.4l-2.51 -270.59 -97.6 17.17z"/>
    <path class="fil5" d="M8236.48 6121.27c20.75,48.87 9.83,22.21 28.58,43.67 2.89,3.31 8.72,7.51 11.24,10.11 2.38,2.47 9.87,11.4 11.66,8.3 1.73,-3 8.18,4.46 11.67,7.5l-0.78 172.23c-99.01,36.48 -43.15,-33.57 -73.6,54.55 57.55,34.18 107.81,10.42 214.12,27.78l8.82 -75.01 -71.55 -9.55 0.36 -262.23 -140.52 22.65z"/>
    <path class="fil5" d="M8268.29 4275.62c48.82,126.57 66.67,-33.75 66.64,232.55 -3.18,2.71 -9.23,1.19 -10.84,6.34 -14.78,47.27 -15.98,-23.58 -65.67,48.22 56.32,48.76 164.89,45.65 224.69,0l-56.69 -46.72c-2.38,-1.78 -7.71,-4.89 -11.18,-7.84l-0.56 -256.62 -146.39 24.07z"/>
    <path class="fil5" d="M7886.06 7072.3c27,83.73 -19.14,2.11 61.62,54.56l0.09 163.67c-4.54,4 -50.29,18.87 -76.35,54.55 18.48,13.76 13.31,29.03 104.9,32.46 94.07,3.52 94.07,-11.57 118.77,-32.46 -66.72,-106.9 -72.16,59.85 -70.79,-305.85 -57.73,-9.47 -90.39,2.01 -138.24,33.07z"/>
    <path class="fil5" d="M1626.43 6164.23l72.95 8.54 -0.7 210.08 -73.24 -5.58 0.14 59.94 209.18 9.89 7.08 -78.95c-115.38,13.76 -38.99,8.68 -70.11,-19.21l-4.01 -249.61c-36.9,-1.56 -53.88,-0.29 -80.56,9.83 -83.31,31.6 -41.83,-1.66 -60.73,55.07z"/>
    <path class="fil5" d="M6685.19 2053.14c23.95,72.5 -15.36,-0.65 61.72,54.56 0.64,269.75 -2.23,121.12 -77,218.23 18.71,13.78 13.04,29.56 106.31,32.5 90.08,2.85 91.49,-10.34 117.31,-32.5 -52.07,-83.56 49.89,44.39 -20.86,-20.36 -69.91,-64 -50.89,-17.12 -48.65,-285.61 -58.51,-11.92 -88.8,0.23 -138.83,33.18z"/>
    <path class="fil5" d="M7865.96 3489.79c21.45,34.74 4.68,3.27 27.58,26.79 62.33,64.01 42.38,169.46 40.93,173.27 -56.46,61.42 59.11,-54.44 -35.85,25.13 -45.88,38.46 -17.45,-11.34 -43.62,47.59 53.63,32.23 167.37,36.95 222.33,0 -30.82,-76.51 -67.5,-8.45 -73.31,-125.41 -3.28,-66.19 6.43,-121.17 -4.29,-189.48 -67.43,-1.91 -89.88,4.99 -133.77,42.11z"/>
    <path class="fil5" d="M4126.82 1645.19c5.31,91.44 38.59,61.2 140.14,62.01 -49.4,95.73 -71.76,148.85 -84.87,279.59 133.94,-16.93 62.4,-35.66 103.38,-170.62 26.12,-86.02 78.15,-92.78 65.5,-171.6l-224.15 0.62z"/>
    <path class="fil5" d="M2408.39 2423.34c-17.28,-78.91 -378.35,-438.63 -460.81,-459.06 22.2,83.34 141.43,179.9 214.27,247.26 67.78,62.69 156.09,197.21 246.54,211.8z"/>
    <polygon class="fil5" points="8572.39,1976.12 8554.1,1994.94 8536.27,2012.24 8517.88,2030.71 8499.73,2049.43 8482.03,2067.12 8462.61,2084.06 8446.62,2104.2 8426.52,2122.95 8409.12,2139.18 8390.58,2159 8372.71,2176.52 8354.74,2193.67 8335.98,2213.03 8317.94,2231.11 8299.15,2248.44 8281.57,2266.98 8262.39,2284.92 8245.97,2303.37 8226.69,2323.19 8211.06,2339.71 8190.63,2359.88 8173.77,2375.91 8161.97,2393.03 8162.97,2424.73 8197.47,2422.52 8216.55,2402.24 8235.23,2384.8 8253.91,2366.12 8271.74,2348.33 8289.71,2330.43 8308.01,2310.86 8328.78,2294.52 8345.94,2276.29 8363.04,2258.51 8382.13,2240.25 8400.32,2222.81 8416.44,2203.31 8435.91,2185.66 8452.99,2166.62 8471.32,2148.08 8489.97,2128.86 8508.68,2112.7 8525.94,2092.59 8545.44,2075.47 8563.27,2057.43 8581.99,2040.28 8601.81,2022.73 8624.59,1963.18 8587.02,1964.82 "/>
    <path class="fil6" d="M4719 7017.66l-6.34 -97.71 270.43 0.89 -17.55 105.74 -25.11 -18.84 -1.55 94.81c73.51,-39.83 -5.64,11.3 36.98,-31.75 37.05,-37.41 0.94,-21.06 35.59,-33.39 -1.99,95.46 -3.91,23.25 19.08,49.28 81.91,-12.12 33.5,-4.04 47.01,-14.48 6.25,-48.27 1.45,-26.77 -66.09,-34.8l1.89 -29.09 -8.11 -87.25 272.38 -2.77c-11.26,-60.51 -102.74,-24.58 -247.08,-32.95l-47.44 35.49c-1.4,-48.82 13.72,-38.41 -190.88,-35.25 -74.29,1.15 -60.38,-20.88 -89.69,27.88 -30.5,50.73 12.6,97.95 16.48,104.19z"/>
    <path class="fil8" d="M5744.84 7044.52c-14.58,33.84 -40.79,13.78 -41.71,13.64 -43.03,-55.76 0.26,-60.52 0.26,-60.52 23.13,6.75 64.04,-5.54 41.45,46.88zm-115.22 -6.66l-1.81 34.35c36.84,36.31 27.06,33.38 98.77,33.87l35.13 -20.15 -9.22 49.01c-23.57,18.92 26.56,20.72 -49.19,24.53 -103.84,-3.78 -35.58,-10.88 -57.55,30.03l99.57 7.91 17.09 12.22c0,-31.63 -6.8,-23.86 25.8,-16.19 8.29,-42.11 9.32,-46.41 25.85,-103.04l-0.17 -76.45c-49.87,-85.07 -58.92,-74.08 -167.74,-54.38l-16.53 78.29z"/>
    <path class="fil8" d="M4814.76 7125.01c-19.36,-67.34 12.63,-102.65 33.92,-123.86 23.77,27.86 35.2,31.63 34.81,91.76 -0.47,69.65 -11.38,54.29 -34.81,74.33 -41.58,-31.04 -9.74,41.89 -33.92,-42.23zm-47.46 -26.42l-7.91 38.08c21.98,39.15 35.5,72.35 88.95,71.71 20.86,-0.24 45.72,-15.02 56.5,-25.11 29.18,-27.26 21.91,-25.68 30.6,-56.77l3.44 -23.95 1.55 -94.81c-22.66,-43.29 -49.69,-95.22 -134.44,-49.11 -43.99,23.94 -30.49,83.24 -38.69,139.96z"/>
    <path class="fil5" d="M7467.28 2676.81c-5.27,2.31 -12.46,1.42 -15.02,8.52l36.59 258.81c-6.27,1.86 -79.05,16.55 -84.85,18.27l99.04 21.92c32.3,0.17 77.42,-5.63 111.34,-7.91 -30.17,-86.4 -58.08,5.82 -65.3,-103.57 -3.92,-59.47 1.87,-138.12 -0.46,-201.4l-62.28 -25.69 -19.06 31.05z"/>
    <path class="fil8" d="M5054.38 7013.35l48.8 -4.81c62.68,-20.79 20.6,-13.65 50.51,9.2l-16.07 16.91c-2.9,3.3 -14.91,14.92 -17.79,18.69 -17.76,23.29 -7.3,-2.14 -21.82,42.75l53.82 18.61 11.97 36.83 -32.25 12.84c-59.77,-20.88 -13.78,-16.7 -80.13,-15.51l-3.05 -3.73 -10.41 48.1c31.76,-7.78 25.64,-15.85 25.64,14.29l131.13 -4.78c16.92,-28.1 17.81,-26.84 39.46,-42.39l-9.97 -30.92 9.06 -19.1 -41.22 -38.03c40.35,-51.96 -23.1,16.74 22.12,-32.85l-8.37 -70.26c-39.48,-15.31 -73.02,-24.92 -127.2,-18.29 -33.45,31.69 -32.72,-51.13 -24.23,62.45z"/>
    <path class="fil8" d="M4519.89 7075.88l13.48 -81.9c43.39,15.07 42.16,-31.09 60.73,64.36 8.39,43.12 7.57,61.51 -13.95,86.32 -56.25,25.27 -48.41,20.11 -60.26,-68.78zm-50.03 -77.54l1.32 106.52c0.34,6.66 0.45,14.09 1.1,19.98 0.63,5.81 1.44,13.83 2.13,19.61l7.77 36.87c95.22,36.95 55.99,40.88 147.47,-5.67l10.21 -93.34c-13.92,-59.68 -1.72,-74.81 -12.98,-130.83 -89.25,-6.4 -105.7,-2.11 -157.02,46.86z"/>
    <path class="fil6" d="M5552.92 6916.83l-0.89 100.91 37.5 2.29 -8.47 52.03 46.75 0.15 1.81 -34.35 -40.09 -17.83 8.37 -99.14 259.41 -5.96 -5.12 121.11 -38.3 -22.09 0.17 76.45 40.84 -1.43 -2.71 -52.93c47.26,-67.26 19.64,-88.97 19.62,-89.08l-14.5 -32.03 1.59 -33.97c-60.74,6.94 -95.97,6.05 -156.23,5.7 -102.37,-0.6 -75.79,3.63 -149.75,30.17 -11.21,-37.22 25.49,-31.16 -122.16,-30.45 -110.25,0.53 -98.97,-5.09 -128.02,27.44l250.18 3.01z"/>
    <path class="fil7" d="M5882.22 7046.2c15.24,-1.11 64.87,-6.72 76.73,-4.77 52.3,8.57 24.73,-4.37 45.33,27.07l-0.67 -8.9c25.28,-12.4 20.27,40.18 24.61,-41.86 -90.37,-59.45 -39.11,40.9 -108.14,-36.36 51.17,-60.7 77.02,-46.1 159.46,-31.41l4.7 102.68c52.26,-19.93 93.89,-19.02 56.13,-144.77l-255.38 -2.67 -2.77 140.99z"/>
    <path class="fil6" d="M5248.85 1245.25c57.83,-144.91 -13.91,-587.39 36.28,-669.61 32.35,52.9 13.48,28.53 12.68,149.92 -0.95,143.62 -15,421.05 23.6,519.09l-3.08 -673.6 -57.35 3.22 -12.13 670.98z"/>
    <path class="fil4" d="M5299.95 7033.91l75.53 -16.51 -14.5 -46.55 103.02 -24.7 -0.79 114.95c22.84,-38.52 22.45,-18.29 40.14,-29.82l58.79 0.78 -10.11 -14.32 0.89 -100.91 -250.18 -3.01 -2.79 120.09z"/>
    <path class="fil5" d="M5248.85 1245.25l72.56 -0.6c-38.6,-98.04 -24.55,-375.47 -23.6,-519.09 0.8,-121.39 19.67,-97.02 -12.68,-149.92 -50.19,82.22 21.55,524.7 -36.28,669.61z"/>
    <path class="fil8" d="M8931.99 6389.56c28.34,-110.61 24.87,-130.48 2.02,-215.53l-5.26 -20.24c-66.88,9.19 -71.95,15.56 -75.07,99.54 -4.15,111.72 1.27,118.07 78.31,136.23z"/>
    <path class="fil8" d="M8069.62 2719.1c-70.65,3.48 -70.25,31.53 -68.3,115.65 3.17,136.61 42.85,108.54 67.34,116.13 20.68,-38.2 28.89,-59.2 27.65,-134.17 -1.87,-113.7 -26.66,-97.56 -26.69,-97.61z"/>
    <path class="fil8" d="M5375.48 7017.4l27.69 4.35 7.54 123.22c-68,44.79 -26.18,-24.14 -54.22,53.94l143.48 -1.47c-1.36,-3.22 -3.13,-12.03 -4.02,-9.68l-13.47 -19.63c-2.01,-2.28 -8.06,-8.06 -9.99,-10.14 -2.07,-2.24 -7.67,-6.76 -11.51,-10.15l4.22 -20.98 -1.99 -65.76 0.79 -114.95 -103.02 24.7 14.5 46.55z"/>
    <path class="fil8" d="M1910.63 5387.56c21.92,-101.28 23.72,-140.37 5,-218.6 -8.73,-0.3 -85.97,-64.1 -85.18,102.9 0.45,94.6 10.86,102.9 80.18,115.7z"/>
    <path class="fil8" d="M9041.73 5386.6c80.64,-6.55 76.61,-22.26 78.15,-113.35 1.59,-94.77 12.54,-81.99 -52.2,-118.07 -70.53,74.27 -47.62,144.26 -25.95,231.42z"/>
    <path class="fil8" d="M8571.96 7097.35c-23.86,-0.25 -82.58,-44.27 -82.85,101.91 -0.18,100.06 2.84,103.46 79.28,117.97 22.97,-102.78 26.75,-139.24 3.57,-219.88z"/>
    <path class="fil8" d="M8920.81 4536.66c98.22,-28.65 72.88,-149.24 41.7,-228.11l-50.42 -2.92c-33.92,60.26 -33.63,177.99 8.72,231.03z"/>
    <path class="fil8" d="M2101.3 7315.63l21.28 0.79c14.85,-16.31 38.48,-15.55 38.13,-117.07 -0.28,-79.26 -5.64,-89.51 -58.02,-111.68 -40.94,40.99 -55.52,114.55 -34.16,183.19 19.88,63.89 5.98,21.06 32.77,44.77z"/>
    <path class="fil5" d="M5465.2 7126.86l-4.22 20.98 53.87 -0.58c48.95,0 35.52,-11.6 35.52,39.48 20.27,-43.27 6.7,-27.86 30.99,-28.88 39.8,-1.66 -14.97,37.25 48.37,-2.27l11.84 -15.9c106.57,-7.74 37.17,-6.43 61.73,19.78 75.75,-3.81 25.62,-5.61 49.19,-24.53 4.45,-42.38 14.84,-34.51 -25.91,-28.86 -71.71,-0.49 -61.93,2.44 -98.77,-33.87l-46.75 -0.15 8.47 -52.03 -37.5 -2.29 10.11 14.32 -3.77 56.95c-22.3,-1.34 -41.07,-4.48 -57.2,2.15l-17.99 14.82c-2.01,1.52 -7.52,13.23 -8.91,10 -1.46,-3.41 -5.68,7.59 -9.07,10.88z"/>
    <path class="fil8" d="M6299.89 1699.96c-31.59,36.79 -5.38,-41.11 -27.51,46.43 -19.12,75.62 -17.7,164.56 68.03,177.33 23.86,-69.53 61.9,-216.63 -40.52,-223.76z"/>
    <path class="fil8" d="M7049.11 2064.52c-63.09,60.91 -65.32,223.22 4.8,231.13 54.05,6.09 42.51,-42.27 43.22,-115.74 1.21,-125.65 -6.82,-85.25 -48.02,-115.39z"/>
    <path class="fil4" d="M4719 7017.66c16.22,52.24 16.22,54.12 48.3,80.93 8.2,-56.72 -5.3,-116.02 38.69,-139.96 84.75,-46.11 111.78,5.82 134.44,49.11l25.11 18.84 17.55 -105.74 -270.43 -0.89 6.34 97.71z"/>
    <path class="fil8" d="M5430.61 1812.11c3.42,-1.49 17.22,18.1 37.55,-30.43l4.83 -143.1c-9.52,-37.13 -8.88,-25.89 -23.56,-47.45 -87.49,3.51 -85.78,111.2 -60.23,183.25 30.91,87.17 -6.79,23.71 41.41,37.73z"/>
    <path class="fil8" d="M1970.07 6381.9c74.01,-13.59 71.35,-19.75 72.61,-109.67 1.1,-78.51 5.99,-99.34 -49.1,-118.92 -71.04,50.01 -49.23,150.07 -23.51,228.59z"/>
    <path class="fil8" d="M1990.6 4534.55c53.86,-3.74 56.05,-24.14 59.18,-98.69 3.51,-83.08 -0.1,-105.47 -56.2,-129.76 -55.51,56.4 -59.15,169.94 -2.98,228.45z"/>
    <path class="fil8" d="M8522.12 3728.49c48.29,-32.4 45.77,-44.62 47.05,-111.44 1.49,-77.97 5.66,-94.06 -47.05,-118.21 -53.09,31.69 -60.38,114.9 -40.96,180.88 25.89,87.94 -7.87,17.34 40.96,48.77z"/>
    <path class="fil8" d="M2338.25 3498.09c-74.51,18.99 -77.5,107.17 -57.04,180.43 20.25,72.5 13.1,30.91 39.7,49.97 79.9,-48.9 54.91,-182.41 17.34,-230.4z"/>
    <path class="fil8" d="M7310.92 2064.84c-18.72,84.33 -41,176.75 29.15,232.83 49.57,-30.21 46.87,-39.29 47.36,-117.18 0.6,-97.96 0.82,-98.23 -76.51,-115.65z"/>
    <path class="fil8" d="M3666.63 2296.93c73.02,-11.67 -41.61,53.63 23.39,-4.68 1.45,-1.31 7.8,-4.17 9.37,-6.1 1.64,-2.02 5.65,-6.56 7.15,-9.24 0.38,-0.69 51.04,-153.64 -39.91,-209.52 -91.22,85.31 -39.76,207.39 0,229.54z"/>
    <path class="fil8" d="M4499.43 1699.53c-14.78,17.29 -10.44,-1.21 -23.27,32.66l-8.89 103.48c5.58,68.09 13.91,79.95 72.9,87.73 24.33,-71.46 60.92,-215.89 -40.74,-223.87z"/>
    <path class="fil8" d="M2957.4 2941.25c76.89,-36.82 63.76,-192.11 0,-229.07 -72.42,39.71 -67.49,193.1 0,229.07z"/>
    <path class="fil4" d="M5013.34 7008.32l41.04 5.03 48.8 -4.81 -48.8 4.81c-8.49,-113.58 -9.22,-30.76 24.23,-62.45 54.18,-6.63 87.72,2.98 127.2,18.29l8.37 70.26c32.74,-22.77 14.28,30.7 30.97,-33.22 -2.45,36.56 -5.24,0.66 30.87,17.14l1.59 -105.07 -272.38 2.77 8.11 87.25z"/>
    <path class="fil4" d="M5589.53 7020.03l40.09 17.83 16.53 -78.29c108.82,-19.7 117.87,-30.69 167.74,54.38l38.3 22.09 5.12 -121.11 -259.41 5.96 -8.37 99.14z"/>
    <path class="fil5" d="M4938.88 7102.55l-3.44 23.95c12.37,18.72 5.05,4.22 11.75,30.35l6.75 31.19c0.48,1.71 2.15,6.83 3.85,9.96l33.3 -71.59c36.75,49.07 -5.78,31.39 60.33,22.45 66.35,-1.19 20.36,-5.37 80.13,15.51l32.25 -12.84 -11.97 -36.83 -53.82 -18.61c-28.93,-18.9 -11.61,52.91 -20.47,-23.88 -13.51,10.44 34.9,2.36 -47.01,14.48 -22.99,-26.03 -21.07,46.18 -19.08,-49.28 -34.65,12.33 1.46,-4.02 -35.59,33.39 -42.62,43.05 36.53,-8.08 -36.98,31.75zm99.08 90.68c-11.8,36.46 -13.37,24.23 25.64,14.29 0,-30.14 6.12,-22.07 -25.64,-14.29l10.41 -48.1c-77.27,90.9 -19.2,37.95 -10.41,48.1z"/>
    <path class="fil8" d="M6003.61 7059.6c4.7,34.87 13.23,27.3 -20.16,27.3l8.19 14.3 -3.45 39.8c0.39,1.63 4.43,6.28 6.16,9.7l68.86 -74.35 21.03 -23.7 -4.7 -102.68c-82.44,-14.69 -108.29,-29.29 -159.46,31.41 69.03,77.26 17.77,-23.09 108.14,36.36 -4.34,82.04 0.67,29.46 -24.61,41.86z"/>
    <path class="fil7" d="M4415.94 6918.16l0.96 111.34 54.28 75.36 -1.32 -106.52c-28.66,11.73 -33.87,-12.55 -22.98,12.78l1.62 -75.85 237.44 -2.35 -13.61 -38.02c-98.66,4.27 -195.97,-10.78 -256.39,23.26z"/>
    <path class="fil6" d="M5299.95 7033.91l4.57 75.07 107.81 17.88c-51.38,32.03 67.24,36.9 -66.06,21.82l-3.44 58.99c69.44,12.14 129.53,19.04 176.75,-11.14l-19.61 0.91 -143.48 1.47c28.04,-78.08 -13.78,-9.15 54.22,-53.94l-7.54 -123.22 -27.69 -4.35 -75.53 16.51z"/>
    <path class="fil4" d="M4469.86 6998.34c51.32,-48.97 67.77,-53.26 157.02,-46.86 11.26,56.02 -0.94,71.15 12.98,130.83 31.72,-17.25 4.91,-5.08 47.84,-9.88l-1.76 -139.51 -237.44 2.35 -1.62 75.85c-10.89,-25.33 -5.68,-1.05 22.98,-12.78z"/>
    <path class="fil2" d="M5991.64 7101.2c-23.03,16.68 -18.24,14.06 -44.58,33.45 -13.85,10.19 -21.19,20.98 -23.57,16.64 -1.93,-3.52 -8.07,5.61 -12.12,8.4l9.38 14.27 -7.85 29.68 199.22 1.67 -16.85 -49.26 -64.45 5.12 5.85 -49.3 26.54 -35.52 -68.86 74.35c-1.73,-3.42 -5.77,-8.07 -6.16,-9.7l3.45 -39.8z"/>
    <path class="fil7" d="M8601.81 2022.73l-7.55 11.7 -12.27 5.85 -7.19 11.04 -11.53 6.11 -5.79 12.74 -12.04 5.3 -7.55 11.98 -11.95 5.14 -5.67 12.91 -11.59 7.2 -6.92 11.26 -11.79 4.9 -6.75 12.63 -11.9 6.59 -5.93 11.98 -12.4 6.56 -5.93 11.51 -11.15 7.53 -7.56 10.2 -11.91 7.45 -4.73 11.93 -11.39 7.57 -6.05 11.66 -12.14 5.78 -6.15 12.25 -12.94 6.01 -5.48 11.99 -11.62 5.79 -6.23 12.71 -10.93 5.52 -8.01 12.11 -12.76 4.23 -6.19 12.92 -12.11 6.65 -6.2 11.53 -11.77 6.37 -6.26 11.87 -11.57 5.92 -6.84 12.24 -11.84 6.44 -6.56 11.31 -12.12 6.13 -6.53 11.74 -12.55 8.54 -4.48 10.37 -30.61 -2.03 0.59 -6.13 -19.19 -12.23 -0.48 -9.93 18.67 -9.54 -0.2 -9.14 12 -7.98 6.55 -9.9 10.31 -6.13 7.85 -12.17 12.58 -8 6.99 -8.6 8.64 -7.92 7.03 -12.73 12.25 -7.09 7.04 -10.34 9.38 -8.11 9.52 -9.11 9.66 -8.83 7.69 -10.22 9.89 -8.32 7.84 -10.27 10.95 -7.06 7.91 -10.65 10.13 -7.43 8.18 -10.47 10.58 -8.89 7.33 -9.66 10.64 -7.49 7.98 -10.26 9.89 -7.26 8.35 -10.73 10.19 -9.09 7.8 -9.41 9.6 -6.82 9.12 -10.91 10.98 -7.84 6.07 -11.18 9.92 -8.96 8.22 -9.54 11.2 -7.4 7.82 -9.87 9.88 -7.82 7.39 -11.2 10.76 -7.52 7.7 -10.63 10.69 -7.84 7.97 -9.67 9.86 -7.63 8.06 -10.84 10.23 -7.98 7.69 -10.55 6.94 -0.75 10.23 -18.85 16.75 -4.14 10.59 21.35 8.19 -2.61 -20.5 55.51 -10.47 6.65zm-21.73 -57.16c-26.67,-2.98 -20.21,-8.66 -17.92,18.53 -26.82,-2.1 -20.86,-8.27 -17.92,18.47 -26.56,-2.45 -20.74,-8.69 -18.66,17.51 -27.56,-3.38 -21.43,-9.44 -18.46,18.15 -25.97,-2.38 -19.34,-7.86 -17.27,19.02 -26.87,-2.08 -21.39,-8.7 -19.02,17.27 -27.61,-2.97 -21.52,-9.1 -18.14,18.5l-17.05 19.02c-26.65,-1.39 -21.18,-8.05 -18.72,17.73 -26.49,-2.65 -20.1,-8.42 -17.99,18.5 -26.4,-1.21 -20.87,-7.74 -18.24,17.99 -27.29,-2.99 -21.42,-9.25 -18.62,17.75 -26.42,-3.3 -19.72,-8.73 -17.91,18.55 -25.66,-1.38 -19.75,-7.54 -18.31,17.9 -27.58,-2.49 -22.04,-9.13 -18.86,17.71 -26.62,-2.46 -20.38,-8.33 -17.73,18.59 -25.83,-2.55 -19.03,-7.88 -17.35,19.05 -25.99,-1.26 -20.51,-7.83 -18.9,17.22 -28.3,-3.25 -22.82,-10.03 -19.29,17.43 -25.21,-2.28 -17.67,-6.95 -15.67,20.65 -26.2,-1.21 -20.98,-8.08 -19.57,16.6 -26.8,-2.23 -20.82,-8.4 -18.16,18.3 -26.75,-2.63 -20.73,-8.75 -18.55,17.88 -26.48,-1.72 -20.25,-7.88 -18.47,18.68l0.48 9.93c-1.14,26.49 -7.57,20.61 18.6,18.36 -4.48,32.73 -8.65,21.03 15,14.49 61.51,-16.98 -17.35,49.5 15.61,-12.46l17.03 -18.91 18.65 -17.87 18.4 -17.75c25.15,0.77 19.09,6.9 18.41,-18.16l18.03 -18.24 18.31 -18.18 18.95 -17.15c27.58,2.44 22.08,9.13 18.94,-17.63 27.1,3.08 20.81,8.91 17.85,-18.5 27.39,3.2 21.36,9.32 18.42,-18 27.22,2.68 21.36,8.93 18.29,-18.03 27.7,3.35 21.14,9.04 17.44,-19.23l16.64 -19.38 18.71 -17.73 18.33 -18.07 17.83 -18.57 18.54 -17.53c26.93,1.79 21,8.17 18.51,-18.46l17.62 -18.05c28.33,2.64 23.15,9.75 19.59,-17.28 25.95,2.11 19.52,7.75 17.32,-18.85 28.01,2.57 23.01,9.68 19.46,-16.89 27.72,4.09 21.31,9.81 18.02,-18.35 13.46,-10.95 24.67,-4.48 38.87,-15.57 5.92,-89.32 4.64,-9.36 -18.37,-39.94 4.3,-30.38 11.01,-24.61 -18.78,-18.74l-16.75 4.14c-25.74,-0.28 -19.62,-6.45 -17.17,19.6z"/>
    <path class="fil6" d="M6649.03 1119.54c39.94,-54.28 119.52,-266.91 89.96,-315.66 -32.77,55.64 -121.44,263.8 -89.96,315.66z"/>
    <path class="fil6" d="M6140.37 6907.88c37.76,125.75 -3.87,124.84 -56.13,144.77l-21.03 23.7 -26.54 35.52 -5.85 49.3 5.85 -49.3 109.25 0.14 10.45 -202.45 -16 -1.68c-19.29,-27.56 11.23,-10.2 -37.27,-18.41 -11.66,-1.97 -57.53,-1.61 -71.68,-1.51 -53.85,0.39 -97.88,0.81 -151.57,-3.5l5.14 20.75 255.38 2.67z"/>
    <path class="fil6" d="M564.05 5544.73c49.94,30.53 258.55,13.29 333.85,-4.28 -55.65,-47.31 -259.91,-21.18 -333.85,4.28z"/>
    <path class="fil6" d="M9617.48 4631.23c97.86,-18.36 267.63,-16.92 335.76,-68.5 -44.29,-16.17 -169.37,9.45 -243.19,22 -154.48,26.29 -36.67,-10.04 -92.57,46.5z"/>
    <path class="fil6" d="M9652.8 4829.7c36.47,29.74 -15.73,21.6 65.86,20.31 19.79,-0.31 73.87,-7.36 94.62,-10.1 28.8,-3.81 58.93,-7.06 86.09,-10.45 144.51,-18.09 34.93,16.64 95.67,-47.73l-342.24 47.97z"/>
    <path class="fil6" d="M9656.79 5762.96c53.66,29.82 268.93,49.46 332.13,32.78 -48.19,-35.44 -282.1,-61.81 -332.13,-32.78z"/>
    <path class="fil6" d="M10004.25 5546.11c-72.47,-32.74 -238.36,-40.03 -328.17,-17.49 36.54,28.31 288.5,42.13 328.17,17.49z"/>
    <path class="fil6" d="M582.71 5796.84c65.58,18.29 264.39,-3.95 327.11,-33.88 -43.65,-22.4 -286.39,-2.96 -327.11,33.88z"/>
    <path class="fil6" d="M5976.17 956.57c19.54,-30.79 16.05,-20.55 23.79,-66.41 1.03,-6.14 0.87,-10.96 1.75,-17.22l7.96 -61.53c11.12,-65.1 21.05,-126.59 34.59,-192.47 -64.62,64.39 -67.16,190.56 -76.65,268.83 -5.19,42.86 -2.74,46.92 8.56,68.8z"/>
    <path class="fil6" d="M914.29 4847.2c-45.74,-38.82 -259.87,-49.14 -339.08,-64.36 46.88,49.3 5.58,42.26 162.97,54.93 51.35,4.13 125.56,10.73 176.11,9.43z"/>
    <path class="fil6" d="M647.95 6254.05c66.58,63.76 -21.02,51.48 260.56,-10.72 43.74,-9.66 30.27,4.4 73.34,-25.74 -18.26,-11.24 -9.89,-12.23 -45.85,-7.13 -69.27,9.83 -174.94,53.43 -288.05,43.59z"/>
    <path class="fil6" d="M6180.58 1014c69.92,-66.24 6.19,99.3 67.19,-182.68 11.44,-52.9 40.16,-116.15 19.37,-155.57 -29.24,34.85 -66.87,253.9 -86.56,338.25z"/>
    <path class="fil6" d="M4842.37 938.78l-40.82 -336.39c-32.64,46.91 -10.99,147.94 -1.72,242.34 15.73,160.2 -8.57,42.37 42.54,94.05z"/>
    <path class="fil6" d="M4587.44 959.41c34.34,-48.37 13.28,-54.65 -1.23,-151.58 -41.79,-279.38 0.05,-132.1 -60.49,-188.61l61.72 340.19z"/>
    <path class="fil6" d="M618.32 4562.73c34.39,21.2 259.28,56.52 335.56,68.64 -75.17,-77.39 -76.71,-35.85 -221.56,-64.14 -43.69,-8.53 -74.93,-25.73 -114,-4.5z"/>
    <path class="fil6" d="M7421.39 2734.54c91.27,-3.7 40.78,-11.69 52.27,61.48 0.43,2.78 -2.72,97.99 -2.63,111.84 -65.61,61.29 -59.51,-11.1 -75.02,72.74 18.95,13 0.47,11.38 36.5,18.15 45.69,8.59 138.61,8.25 181.87,-22.33 -33.92,2.28 -79.04,8.08 -111.34,7.91l-99.04 -21.92c5.8,-1.72 78.58,-16.41 84.85,-18.27l-36.59 -258.81c2.56,-7.1 9.75,-6.21 15.02,-8.52 -47.33,6.6 -81.31,9.88 -45.89,57.73z"/>
    <path class="fil6" d="M4321.83 683.27l-22.82 28.12 41 227.24c31.06,103.09 2.65,29.03 48.28,71.78 -10.69,-54.62 -28.52,-123.24 -36.97,-166.03 -10.61,-53.64 -21.55,-106.52 -29.49,-161.11z"/>
    <path class="fil6" d="M9629.89 6217.13l-34.74 23.13c58.68,5.31 113.9,15.74 170.41,27.35 169.25,34.76 104.17,33.49 156.74,-13 -106.27,15.06 -177.72,-34.65 -292.41,-37.48z"/>
    <path class="fil6" d="M3919.29 1120.31c19.79,-27.35 20.09,-3.04 2.91,-63.03l-91.9 -252.92c-30.22,43.37 65.11,275.59 88.99,315.95z"/>
    <path class="fil6" d="M5558 3595.28c48.33,-22.49 27.95,-81.91 28.39,-149.87l117.18 7.67c-0.3,8.93 -4.68,70.47 -4.2,74.54 14.85,123.95 -11.98,37.42 40.3,70.54 -25.63,-68.22 -6.76,-9.86 -17.11,-73.5 -5.57,-34.23 4.41,1.14 -3.34,-34.03 -7.02,-31.83 -8.11,-25.56 -15.65,-37.55 -20.48,-23.94 12.44,-10.97 -54.23,-16.69 -36.36,-3.12 -55.94,1.01 -89.95,-1.07l-1.39 159.96z"/>
    <path class="fil6" d="M894.4 5082.96c-26.48,-21.92 29.38,-36.31 -155.6,-36.95 -56.6,-0.2 -112.32,0.82 -168.93,-0.43 25.67,17.43 -1.06,13.79 58.84,24.79l265.69 12.59z"/>
    <polygon class="fil8" points="5272.41,3413.85 5368.62,3397.97 5370.84,3330.95 5274.73,3308.42 "/>
    <path class="fil6" d="M5521.54 908.44l27.85 -336.83c-51.44,51.88 -23.32,-68.24 -38.93,80.87 -5.13,48.99 -9.7,225.94 11.08,255.96z"/>
    <path class="fil6" d="M619.57 6035.74l243.9 -16.38c116.61,-19.72 47.03,-2.72 93.45,-54.48l-256.05 48.45c-37.72,5.77 -47.82,6.64 -81.3,22.41z"/>
    <path class="fil5" d="M1994.85 2360.81c23.71,-25.87 54.07,-0.64 -61.98,-100.49 -2.99,-2.58 -6.97,-6.1 -10.03,-8.61l-142.27 -114.75c5,54.03 -11,11.23 36.52,55.49l177.76 168.36z"/>
    <path class="fil6" d="M5055.85 911.7c17.38,-41.02 2.04,-288.01 -0.89,-295.8 -22.92,-60.71 6.81,-4.36 -36.31,-47.37 6.46,110.79 25.47,264.28 37.2,343.17z"/>
    <path class="fil6" d="M9583.87 4399.19c64.7,-16.09 234.5,-39.99 329.69,-80.33 -26.71,-13.22 -273.99,16.22 -329.69,80.33z"/>
    <path class="fil6" d="M653.06 4339.85c116.66,-5.52 276.99,75.15 328.86,41.02l-241.37 -61.36c-133.07,-20.01 -48.14,-9.69 -87.49,20.34z"/>
    <path class="fil6" d="M5727.59 935.3c43.09,-42.81 22.86,38.77 39.78,-76.78l20.23 -183.99c0.36,-6.32 1.02,-36.86 0.35,-41.74 -3.97,-29.23 -6.36,-21.94 -11.82,-32.26l-48.54 334.77z"/>
    <path class="fil6" d="M9953.79 6035.74l-341.35 -67c68.86,67.41 31.23,32.82 172.68,57.52 47.49,8.29 124.44,34.07 168.67,9.48z"/>
    <path class="fil5" d="M9499.66 7451c-40.28,-48.25 -224.81,-145.39 -298.93,-156.32 50.72,40.29 223.81,142.1 298.93,156.32z"/>
    <path class="fil6" d="M4848.68 7083.21c28.89,81.75 7.15,52.95 0,79.93 -4.78,-14.07 -52.17,13.98 0,-79.93zm0 84.03c23.43,-20.04 34.34,-4.68 34.81,-74.33 0.39,-60.13 -11.04,-63.9 -34.81,-91.76 -21.29,21.21 -53.28,56.52 -33.92,123.86 24.18,84.12 -7.66,11.19 33.92,42.23z"/>
    <path class="fil8" d="M5991.27 1783.35c33.73,13.28 -44.48,30.42 47.31,14.49 65.08,-11.31 27.24,-0.81 29.33,-31.14 3.78,-54.9 -30.14,-64.3 -69.3,-68.85 -31.67,52.19 -19.45,56.25 -7.34,85.5z"/>
    <path class="fil8" d="M8225.56 7218.85l-12.47 39.19c2.62,34.66 -2.95,14.05 13.61,55.94 3.37,0.83 8.73,-0.6 9.97,2.96 5.71,16.38 62.65,18.61 63.98,-42.32 0.99,-45.45 -3.46,-18.95 -13.23,-39.08l-61.86 -16.69z"/>
    <path class="fil8" d="M3361.34 2285.88c38.36,38.18 89.79,3.91 60.59,-79.29 -70.07,-15.21 -116.19,23.96 -60.59,79.29z"/>
    <path class="fil5" d="M3701.19 1194.6c29.74,-32.87 -52.99,-194.45 -75.99,-247.08 -24.16,-55.29 1.01,-34.62 -39.74,-52.17 16.3,49.55 34.04,95.9 54.73,148.21 21.77,55.07 44.31,121.39 61,151.04z"/>
    <path class="fil6" d="M2572.91 2742.64c2.45,-3.68 5.13,-14.37 6.06,-11.8 11.29,31.31 -0.72,-1.81 25.46,-49.77 1.52,-2.79 4.62,-8.5 7.45,-12.41 69.23,8.94 99.1,-3.83 158.24,20.98l-129.27 31.9c-2.6,4.13 -5.73,6.44 -5.55,13.55 0.17,6.82 -3.39,10.9 -2.92,13.72 7.72,47.12 -2.66,23.35 15.73,41.49l-7.26 -68.76 132.12 -4.82 1.32 -45.26c-48.55,-26.2 -130.35,-17.15 -194.23,-13.5l-7.15 84.68z"/>
    <path class="fil5" d="M2712.6 1754.32c-48.16,-77.27 -142.97,-233.51 -210.47,-282.15 16.85,35.17 24.76,48.38 39.02,69.75l119.75 171.84c29.84,32.35 8.52,13.43 51.7,40.56z"/>
    <path class="fil5" d="M3295.9 1376.99c-28.88,-69.07 -110.18,-244.34 -163.88,-291.82 17.8,51.7 112.34,272.32 163.88,291.82z"/>
    <path class="fil5" d="M8705.78 2538.62c22.33,-13.74 40.24,-23.16 61.85,-39.74 3.33,-2.55 7.6,-5.99 10.86,-8.63 3.18,-2.58 7.04,-6.41 10.14,-9.02l103.93 -91.89c44.42,-33.23 33.85,1.41 77.5,-75.12 -177.98,111.25 -74.6,62.75 -178.52,134.23 -37.44,25.74 -65.41,44.55 -85.76,90.17z"/>
    <path class="fil5" d="M977.3 7188.08l12.64 33.22c65.4,-23.16 233.88,-88.25 277.18,-136.03 -127.53,32.28 -173.32,95.58 -289.82,102.81z"/>
    <path class="fil5" d="M9699.7 6997.43c-49.21,-40.7 -235.47,-102.95 -319.58,-136.13 4.6,4.75 10.86,5.26 13.89,14.16 13.08,38.32 108.53,54.79 147.21,69.13 67.75,25.1 105.53,43.6 158.48,52.84z"/>
    <path class="fil5" d="M9463.39 3950.6c86.38,-24.07 261.56,-64.2 326.72,-125.51 -109.89,40.47 -274.02,75.65 -326.72,125.51z"/>
    <path class="fil5" d="M1001.7 3378.96c-32.37,0.11 -25.94,-8.96 -25.94,20.26 108.56,26.91 180.28,84.49 285.82,118.25 -19.23,-43.47 -77.89,-53.7 -115.72,-70.34 -52.68,-23.15 -117.29,-49.91 -144.16,-68.17z"/>
    <path class="fil8" d="M5101.63 1810.8c90.89,14.89 143.69,-60.97 1.75,-87.86l-1.75 87.86z"/>
    <path class="fil5" d="M3501.15 1286.7c-12.6,-61.54 -31.19,-85.89 -60.24,-151.57 -29.95,-67.72 -44,-117.49 -86.41,-158.11 21.64,63.04 102.23,266.91 146.65,309.68z"/>
    <path class="fil6" d="M9676.73 5081.17l322.96 -27.44c-33.42,-13.71 -242.93,-29.93 -322.96,27.44z"/>
    <path class="fil2" d="M5360.7 3472.87l-86.41 6.47 -11.39 94.06c-0.79,2.65 -5.87,12.89 -6.53,10.55l-58.91 12.29 -2.47 -163.27 -12.23 24.9c-38.67,185.93 84.32,198.27 96.77,104.16 3.84,-29.06 0.44,-44.2 -1.19,-71.68l82.36 -17.48z"/>
    <path class="fil5" d="M1742.17 2454.23c40.22,24.8 63.08,33.1 96.87,66.11l24.51 16.62 0.41 -30.5c-43.09,-24.64 -64.51,-34.1 -97.4,-66.37l-164.35 -125.66c47.37,81.98 8.52,9.05 103,102l36.96 37.8z"/>
    <path class="fil5" d="M6852.9 1196.41c36.69,-25.78 121.56,-265.74 134.3,-303.08 -48.27,20.35 -22.37,5.24 -71.45,135.13 -21.97,58.14 -45.92,110.44 -62.85,167.95z"/>
    <path class="fil7" d="M5011.45 7037.41c67.54,8.03 72.34,-13.47 66.09,34.8 8.86,76.79 -8.46,4.98 20.47,23.88l53.82 18.61 11.97 36.83 -32.25 12.84 32.25 -12.84 -11.97 -36.83 -53.82 -18.61c14.52,-44.89 4.06,-19.46 21.82,-42.75 2.88,-3.77 14.89,-15.39 17.79,-18.69l16.07 -16.91c-29.91,-22.85 12.17,-29.99 -50.51,-9.2l-48.8 4.81 -41.04 -5.03 -1.89 29.09z"/>
    <path class="fil6" d="M5463.21 7061.1l1.99 65.76c3.39,-3.29 7.61,-14.29 9.07,-10.88 1.39,3.23 6.9,-8.48 8.91,-10l17.99 -14.82c16.13,-6.63 34.9,-3.49 57.2,-2.15l3.77 -56.95 -58.79 -0.78c-17.69,11.53 -17.3,-8.7 -40.14,29.82z"/>
    <path class="fil5" d="M1185.67 3735.46c-36.73,-34.93 3.48,-16.6 -79.79,-48.98 -18.85,-7.32 -43.09,-16.17 -78.38,-29.99 -46.66,-18.29 -105.3,-42.53 -156.84,-53.55 48.13,42.36 236.63,104.86 315.01,132.52z"/>
    <path class="fil5" d="M9307.28 3518.82l220.11 -94.95c20.08,-9.12 19.44,-7.12 37.95,-19.21 25.95,-16.95 19.56,-15.28 36.1,-30.47 -61.91,19 -96.87,37.32 -163,67.83 -33.72,15.57 -45.8,18.25 -77.39,32.69 -67.69,30.92 -35.05,3.4 -53.77,44.11z"/>
    <path class="fil7" d="M4519.89 7075.88l48.2 -21.24 12.06 90.02c21.52,-24.81 22.34,-43.2 13.95,-86.32 -18.57,-95.45 -17.34,-49.29 -60.73,-64.36l-13.48 81.9z"/>
    <path class="fil5" d="M7277.41 1374.43c26.91,-13.02 17.14,-0.52 44,-48.33l115.44 -239.33c-62.14,56.22 -119.28,204.38 -159.44,287.66z"/>
    <path class="fil5" d="M9784.57 6771.66c-61.4,-60.38 -207.76,-83.85 -325.65,-125.71 4.28,4.12 10.29,4.5 12.95,12.21 2.52,7.3 9.17,8.97 12.7,11.09l300 102.41z"/>
    <path class="fil8" d="M5110.17 1589.36c-4.32,63.21 -7.5,44.83 33.94,73.59 76.35,-32.59 22.89,-75.83 22.77,-75.9 -71.61,-42.41 -54.29,1.49 -56.71,2.31z"/>
    <path class="fil5" d="M9385.76 3734.61c81.22,-26.62 272.96,-92.43 316.07,-133.58l-277.88 100.16c-4.48,2.82 -8.95,6.47 -12.95,9.35l-25.24 24.07z"/>
    <path class="fil5" d="M8547.86 2356.65c103.75,-14.2 43.64,-45.59 194.33,-155.63 60,-43.82 45.48,-29.9 50.05,-67.15l-244.38 222.78z"/>
    <path class="fil5" d="M784.94 6770.17c60.4,-16.74 107,-32.75 164.32,-51.63 30.03,-9.88 62.9,-18.74 82.7,-25.16l78.2 -45.94c-65.58,19.89 -90.17,30.63 -161.7,52.97 -75.83,23.69 -112.29,25.46 -163.52,69.76z"/>
    <path class="fil5" d="M4482.18 7181.32l-7.77 -36.87c-0.69,-5.78 -1.5,-13.8 -2.13,-19.61 -0.65,-5.89 -0.76,-13.32 -1.1,-19.98l-54.28 -75.36 11.49 154.1c53.26,-8.62 12.13,15.61 33.18,-45.42 -0.34,8.67 6.82,13.94 8.26,24.69 1.23,9.16 8.68,12.02 12.35,18.45z"/>
    <path class="fil7" d="M1939.59 1962.61c-73.12,-7.01 -11.02,27.11 2.27,33.33l17.83 18.3 17.47 18.95 18.64 17.76 18.95 17.4 15.9 20.32c-3.25,27.69 -9.35,21.62 18.33,18.19 -3.45,28.02 -9.53,21.93 18.52,17.99 -2.55,26.86 -8.95,21.25 17.32,18.68 -4.57,28.6 -10.42,22.18 18.53,18.27 -2.17,26.21 -8.14,20.19 18.12,17.84 -4.18,28.48 -10.05,22.08 18.75,18.05 -2.23,25.08 -7.01,17.73 20.2,16.05l17.06 19.03c-0.66,25.59 -7.17,19.89 17.64,18.96l19.67 16.78 18.78 17.46 16.07 20.1c-2.92,27.61 -9.48,22 17.47,19.04 -3.56,28.05 -9.75,22.06 18.18,18.35 -2.84,26.85 -8.58,20.5 18.71,17.53 -3.12,27.82 -9.9,22.46 16.92,19.41 -3.62,28.04 -9.66,21.92 18.42,18.05 -3.71,27.72 -9.49,21.37 18.57,17.82 -3.3,26.52 -8.42,19.5 19.42,17.01 -4.06,55.36 23.68,5.91 28.28,-4.62l24.04 -12.66 -24.04 12.66 -28.28 4.62 -19.42 -17.01 -18.57 -17.82 -18.42 -18.05 -16.92 -19.41 -18.71 -17.53 -18.18 -18.35 -17.47 -19.04 -16.07 -20.1 -18.78 -17.46 -19.67 -16.78 -17.64 -18.96 -17.06 -19.03 -20.2 -16.05 -18.75 -18.05 -18.12 -17.84 -18.53 -18.27 -17.32 -18.68 -18.52 -17.99 -18.33 -18.19 -15.9 -20.32 -18.95 -17.4 -18.64 -17.76 -17.47 -18.95 -17.83 -18.3 -2.27 -33.33 19.66 -17.96 10.4 4.53 18.02 19 17.95 18.26 18.29 18.22 18.06 18.33 18.37 17.9 18.04 18.38 18.31 18.14 18.87 17.1 19.06 17.88 16.79 19.33 18.14 18.28 18.21 18.14 17.73 18.56 18.11 18.31 18.31 18.11 18.35 17.95 18.28 18.06 18.11 18.31 18.25 18.21 18.43 17.68 19.72 16.78 16.85 19.69 18.08 18.13 18.36 18.25 22.44 13.63 -22.44 -13.63 -18.36 -18.25 -18.08 -18.13 -16.85 -19.69 -19.72 -16.78 -18.43 -17.68 -18.25 -18.21 -18.11 -18.31 -18.28 -18.06 -18.35 -17.95 -18.31 -18.11 -18.11 -18.31 -17.73 -18.56 -18.21 -18.14 -18.14 -18.28 -16.79 -19.33c1.32,-25.8 7.23,-19.38 -19.06,-17.88l-18.87 -17.1 -18.31 -18.14 -18.04 -18.38 -18.37 -17.9 -18.06 -18.33 -18.29 -18.22 -17.95 -18.26 -18.02 -19 -10.4 -4.53c-27.91,-4.7 -21.18,-10.49 -19.66,17.96z"/>
    <path class="fil4" d="M2177.79 1869.89c19.74,27.34 33.07,46.88 50.67,74.89 15.95,25.37 3.43,14.15 21.02,33.67 46.34,51.41 -2.4,6.98 52.18,38.23l-0.27 -31.51c-64.32,-26.41 -36.92,-25.47 -85.91,-82.28l-37.69 -33zm-4.3 -42.13l1.33 20.74c60.82,30 20.68,-1.98 63.36,51.6 34.37,43.15 16.24,36.45 60.61,68.56 -18.34,-25.47 -31.98,-49.39 -52.13,-76.84 -38.79,-52.85 -28.09,-39.3 -73.17,-64.06z"/>
    <path class="fil5" d="M2174.82 1848.5l2.97 21.39 37.69 33c48.99,56.81 21.59,55.87 85.91,82.28l0.27 31.51c5.3,2.33 14.22,6.4 16.21,6.3l23.2 -6.2c-26.75,-35.31 -26.34,-23.57 -39.68,-31.61l-2.6 -16.51c-44.37,-32.11 -26.24,-25.41 -60.61,-68.56 -42.68,-53.58 -2.54,-21.6 -63.36,-51.6l-1.33 -20.74 -50.76 -49.12 52.09 69.86z"/>
    <path class="fil5" d="M1723.24 2716.33c-38.75,-56.21 -151.31,-126.92 -218.66,-173.34l20.84 35.96c98.55,70.46 114.59,97.51 197.82,137.38z"/>
    <path class="fil6" d="M5878.29 7082.39c68.37,2.31 67.93,5.66 125.99,-13.89 -20.6,-31.44 6.97,-18.5 -45.33,-27.07 -11.86,-1.95 -61.49,3.66 -76.73,4.77l-3.93 36.19zm125.32 -22.79l-20.16 27.3c33.39,0 24.86,7.57 20.16,-27.3z"/>
    <path class="fil6" d="M5266.89 7110.03l9.13 -86.66c-36.11,-16.48 -33.32,19.42 -30.87,-17.14 -16.69,63.92 1.77,10.45 -30.97,33.22 -45.22,49.59 18.23,-19.11 -22.12,32.85l41.22 38.03 -4.04 -31.82c15.12,8.7 19.6,12.57 37.65,31.52z"/>
    <path class="fil5" d="M7673.05 1612.97c34.06,-15.88 37.88,-26.77 51.6,-47.17l136.2 -233.47c-55.46,54.16 -63.78,86.38 -93.13,133.05 -17.2,27.36 -1.9,4.15 -21.15,29.65l-73.52 117.94z"/>
    <path class="fil5" d="M4519.89 7075.88c11.85,88.89 4.01,94.05 60.26,68.78l-12.06 -90.02 -48.2 21.24z"/>
    <path class="fil5" d="M1158.1 7406.66c78.2,-28.66 167.57,-68.2 213.34,-113.58 -59.49,8.43 -163.86,64.6 -213.34,113.58z"/>
    <path class="fil5" d="M2379.33 1677.84l-31.84 9.67 174.31 201.01c-48.58,-111.62 -53.31,-57.71 -119.91,-170.21 -2.33,-3.94 -5.32,-9.14 -7.44,-12.81l-15.12 -27.66z"/>
    <path class="fil5" d="M1107.39 3950.38l-326.61 -126.35c67.84,74.33 9.33,23.57 152.17,70.89 62.67,20.76 108.13,40.04 174.44,55.46z"/>
    <path class="fil5" d="M7856.06 1755.6l74.75 -75.07c52.59,-75.14 107.77,-133.23 139.55,-210.17l-214.3 285.24z"/>
    <path class="fil5" d="M9581.45 7222.47l8.99 -30.35c-120.39,-19.24 -162.67,-69.86 -288.37,-107.81l279.38 138.16z"/>
    <path class="fil5" d="M2894.56 1614.9l-182.07 -279.27c4.35,32.17 49.08,95.31 68.42,127.07 16.57,27.21 28.83,50.24 41.04,69.62 2.18,3.46 4.58,7.98 6.91,11.42l25.31 33.31c3.85,4.24 7.85,8.11 11.66,12.02l28.73 25.83z"/>
    <path class="fil7" d="M8745.29 5277.75l12.92 -28.98 -12.92 28.98 -24.03 24.9 83.13 1.18 6.43 -134.73c-64.12,13.01 -6.53,-3.75 -30.77,32.04 21.14,47.37 15.8,49.93 -4.76,98.77l-30 -22.16z"/>
    <path class="fil5" d="M1370.48 3306.13l-298.5 -156.33c28.69,37.02 153.41,92.5 211.04,122.9 43.41,22.9 35.67,25.18 87.46,33.43z"/>
    <path class="fil5" d="M9201.47 3304.64c55.13,-8.66 99.76,-39.77 157.68,-68.84 36.63,-18.39 108.67,-48.44 137.53,-84.51l-295.21 153.35z"/>
    <path class="fil7" d="M5629.73 7155.59c10.99,36.47 9.78,43.71 45.11,55.14 60.61,19.62 66.44,-11.21 70.48,-13.32l-99.57 -7.91c21.97,-40.91 -46.29,-33.81 57.55,-30.03 -24.56,-26.21 44.84,-27.52 -61.73,-19.78l-11.84 15.9z"/>
    <path class="fil5" d="M1606.7 2917.54c-50.68,-62.78 -214.71,-163.86 -292.69,-201.01l292.69 201.01z"/>
    <path class="fil5" d="M8839.79 2718.02c79.99,-25.26 131.67,-87.37 192.53,-134.39 43.65,-33.73 39.98,-13.26 84.5,-72.35l-277.03 206.74z"/>
    <path class="fil7" d="M5703.13 7058.16c0.92,0.14 27.13,20.2 41.71,-13.64 22.59,-52.42 -18.32,-40.13 -41.45,-46.88 0,0 -43.29,4.76 -0.26,60.52z"/>
    <path class="fil8" d="M2011.76 3643.79c33.94,-17.27 46.43,14.19 35.2,-113.37 -67.37,108.52 -48.13,90.08 -35.2,113.37z"/>
    <path class="fil3" d="M8581.99 2040.28l-18.72 17.15 -17.83 18.04 -19.5 17.12 -17.26 20.11 -18.71 16.16 -18.65 19.22 -18.33 18.54 -17.08 19.04 -19.47 17.65 -16.12 19.5 -18.19 17.44 -19.09 18.26 -17.1 17.78 -17.16 18.23 -20.77 16.34 -18.3 19.57 -17.97 17.9 -17.83 17.79 -18.68 18.68 -18.68 17.44 -19.08 20.28 -34.5 2.21 -1 -31.7 11.8 -17.12 16.86 -16.03 20.43 -20.17 15.63 -16.52 19.28 -19.82 16.42 -18.45 19.18 -17.94 17.58 -18.54 18.79 -17.33 18.04 -18.08 18.76 -19.36 17.97 -17.15 17.87 -17.52 18.54 -19.82 17.4 -16.23 20.1 -18.75 15.99 -20.14 19.42 -16.94 17.7 -17.69 18.15 -18.72 18.39 -18.47 17.83 -17.3 18.29 -18.82 14.63 -11.3 37.57 -1.64 -22.78 59.55 -19.82 17.55zm-1.91 -74.71l-7.69 10.55 -10.23 7.98 -8.06 10.84 -9.86 7.63 -7.97 9.67 -10.69 7.84 -7.7 10.63 -10.76 7.52 -7.39 11.2 -9.88 7.82 -7.82 9.87 -11.2 7.4 -8.22 9.54 -9.92 8.96 -6.07 11.18 -10.98 7.84 -9.12 10.91 -9.6 6.82 -7.8 9.41 -10.19 9.09 -8.35 10.73 -9.89 7.26 -7.98 10.26 -10.64 7.49 -7.33 9.66 -10.58 8.89 -8.18 10.47 -10.13 7.43 -7.91 10.65 -10.95 7.06 -7.84 10.27 -9.89 8.32 -7.69 10.22 -9.66 8.83 -9.52 9.11 -9.38 8.11 -7.04 10.34 -12.25 7.09 -7.03 12.73 -8.64 7.92 -6.99 8.6 -12.58 8 -7.85 12.17 -10.31 6.13 -6.55 9.9 -12 7.98 0.2 9.14 -18.67 9.54 0.48 9.93 19.19 12.23 -0.59 6.13 30.61 2.03 4.48 -10.37 12.55 -8.54 6.53 -11.74 12.12 -6.13 6.56 -11.31 11.84 -6.44 6.84 -12.24 11.57 -5.92 6.26 -11.87 11.77 -6.37 6.2 -11.53 12.11 -6.65 6.19 -12.92 12.76 -4.23 8.01 -12.11 10.93 -5.52 6.23 -12.71 11.62 -5.79 5.48 -11.99 12.94 -6.01 6.15 -12.25 12.14 -5.78 6.05 -11.66 11.39 -7.57 4.73 -11.93 11.91 -7.45 7.56 -10.2 11.15 -7.53 5.93 -11.51 12.4 -6.56 5.93 -11.98 11.9 -6.59 6.75 -12.63 11.79 -4.9 6.92 -11.26 11.59 -7.2 5.67 -12.91 11.95 -5.14 7.55 -11.98 12.04 -5.3 5.79 -12.74 11.53 -6.11 7.19 -11.04 12.27 -5.85 7.55 -11.7 10.47 -6.65 20.5 -55.51 -8.19 2.61 -10.59 -21.35 -16.75 4.14 -10.23 18.85 -6.94 0.75z"/>
    <path class="fil7" d="M1625.44 6377.27l0.14 59.94 -0.14 -59.94 73.24 5.58 0.7 -210.08 -72.95 -8.54 49.73 28.81c2.59,1.39 8.38,4.27 12.6,6.36l2.24 176.23 -65.56 1.64z"/>
    <path class="fil5" d="M8046.92 1890.15l75.78 -70.94c2.59,-3.3 5.79,-7.69 8.33,-11.09l71.94 -130.94c-2.58,2.91 -6.23,6.88 -8.78,9.9l-16.9 21.08c-2.51,3.24 -5.44,7.85 -7.89,11.08 -3.27,4.32 -12,17.19 -15.24,21.3l-107.24 149.61z"/>
    <path class="fil3" d="M2408.39 2423.34c-90.45,-14.59 -178.76,-149.11 -246.54,-211.8 -72.84,-67.36 -192.07,-163.92 -214.27,-247.26 82.46,20.43 443.53,380.15 460.81,459.06zm-468.8 -460.73l2.27 33.33 17.83 18.3 17.47 18.95 18.64 17.76 18.95 17.4 15.9 20.32 18.33 18.19 18.52 17.99 17.32 18.68 18.53 18.27 18.12 17.84 18.75 18.05 20.2 16.05 17.06 19.03 17.64 18.96 19.67 16.78 18.78 17.46 16.07 20.1 17.47 19.04 18.18 18.35 18.71 17.53 16.92 19.41 18.42 18.05 18.57 17.82 19.42 17.01 28.28 -4.62 24.04 -12.66 -0.87 -16.19 -22.44 -13.63 -18.36 -18.25 -18.08 -18.13 -16.85 -19.69 -19.72 -16.78 -18.43 -17.68 -18.25 -18.21 -18.11 -18.31 -18.28 -18.06 -18.35 -17.95 -18.31 -18.11 -18.11 -18.31 -17.73 -18.56 -18.21 -18.14 -18.14 -18.28 -16.79 -19.33 -19.06 -17.88 -18.87 -17.1 -18.31 -18.14 -18.04 -18.38 -18.37 -17.9 -18.06 -18.33 -18.29 -18.22 -17.95 -18.26 -18.02 -19 -10.4 -4.53 -19.66 17.96z"/>
    <path class="fil2" d="M1834.76 6447.1c24.6,-28.73 35.42,66.57 21.81,-65.84 -58.36,-47.89 -6.01,-25.88 -84.84,-32.32 31.12,27.89 -45.27,32.97 70.11,19.21l-7.08 78.95z"/>
    <path class="fil5" d="M7067.93 1286.81c44.46,-44.19 124.27,-239.01 150.17,-310.43l-150.17 310.43z"/>
    <path class="fil7" d="M8687.99 6234.78l23.13 11.72 4.85 30.46 5.24 79.57c26.68,-36.91 23.92,-45.39 -5.24,-79.57l-4.85 -30.46 -23.13 -11.72 -98.9 -25.33 8.27 -48.69c-23.14,39.81 -19.29,0.42 -14.49,69.06l105.12 4.96z"/>
    <path class="fil8" d="M8758.21 5248.77l-12.92 28.98 30 22.16c20.56,-48.84 25.9,-51.4 4.76,-98.77l-21.84 47.63z"/>
    <path class="fil6" d="M8800.46 5355.52l-5.47 88.24 5.47 -88.24c-4.18,-1.89 -10,-10.12 -12.39,-6.02l-45.88 -9.4c-40.85,-0.03 -48.14,5.39 -87.11,12.48l13.92 -61.89c-25.71,39.57 -18.54,1.39 -16.27,69.98l147.73 -5.15z"/>
    <path class="fil4" d="M1742.17 2454.23c24.62,31.68 7.68,19.97 44.82,42.74 5.57,3.42 41.21,17.87 52.05,23.37 -33.79,-33.01 -56.65,-41.31 -96.87,-66.11zm24.39 -14.14c32.89,32.27 54.31,41.73 97.4,66.37 -34.67,-41.57 18.29,-2.65 -45.75,-42.37 -6.56,-4.06 -41.45,-18.8 -51.65,-24z"/>
    <path class="fil5" d="M869.17 6998.82l319.9 -136.35c-114.42,47.26 -265.97,88.01 -319.9,136.35z"/>
    <path class="fil5" d="M4848.68 7163.14c7.15,-26.98 28.89,1.82 0,-79.93 -52.17,93.91 -4.78,65.86 0,79.93z"/>
    <path class="fil4" d="M5499.97 7197.44l19.61 -0.91 -4.73 -49.27 -53.87 0.58c3.84,3.39 9.44,7.91 11.51,10.15 1.93,2.08 7.98,7.86 9.99,10.14l13.47 19.63c0.89,-2.35 2.66,6.46 4.02,9.68z"/>
    <path class="fil6" d="M2347.49 1687.51l31.84 -9.67c-75.5,-39.7 20.27,-25.16 -74.94,-57.97l43.1 67.64z"/>
    <path class="fil9" d="M7546.66 2225.46l-11.44 24 -17.38 21.21c26.54,0 19.82,6.24 17.38,-21.21 26.73,-1.13 19.34,4.48 11.44,-24l38.34 -17.62 20.62 -3.34 24.45 12.76 -1.08 31.75 -7.75 27.82 -21.11 30.82c37.37,0 27.84,8.25 21.11,-30.82l7.75 -27.82c45.58,-50.15 9.24,-22.58 1.08,-31.75l-24.45 -12.76c-22.14,-22.9 -9.38,-14.48 -20.62,3.34l-38.34 17.62z"/>
    <path class="fil7" d="M8299.63 6190.85c-3.49,-3.04 -9.94,-10.5 -11.67,-7.5 -1.79,3.1 -9.28,-5.83 -11.66,-8.3 -2.52,-2.6 -8.35,-6.8 -11.24,-10.11 -18.75,-21.46 -7.83,5.2 -28.58,-43.67l-5.62 56.34 68.77 13.24z"/>
    <path class="fil4" d="M975.76 3399.22c0,-29.22 -6.43,-20.15 25.94,-20.26 -26.83,-23.12 40.92,-20.59 -47.49,-18.4 1.75,77.78 -3.88,8.38 21.55,38.66z"/>
    <path class="fil7" d="M8654.18 4452.65l-59.23 -35.41 53.51 -37.71c-72.75,23.48 -43.65,0.21 -52.64,55.9l58.36 17.22z"/>
    <path class="fil4" d="M989.94 7221.3l-12.64 -33.22 -22.39 49.1c95.96,4.96 12.2,4.56 35.03,-15.88z"/>
    <polygon class="fil7" points="9595.15,6240.26 9629.89,6217.13 9579.87,6199.48 "/>
    <path class="fil5" d="M1069.59 7444.66c125.22,-8.52 25.02,8.4 68.01,-35.03l-68.01 35.03z"/>
    <polygon class="fil4" points="4299.01,711.39 4321.83,683.27 4285.36,668.63 "/>
    <path class="fil4" d="M8439.37 6445.41c17.07,-23.63 31.21,58.17 15.72,-64.15l-78.45 -20.41 71.55 9.55 -8.82 75.01z"/>
    <polygon class="fil7" points="9590.44,7192.12 9581.45,7222.47 9612.29,7234.12 "/>
    <path class="fil7" d="M5752.49 7134.94l9.22 -49.01 -35.13 20.15c40.75,-5.65 30.36,-13.52 25.91,28.86z"/>
    <path class="fil5" d="M8223.71 2036.45c28.06,-19.67 11.48,-5.26 35.12,-28.95l-35.12 28.95z"/>
    <path class="fil3" d="M1130.59 7419.21c3.41,2.12 10.19,-10.34 10.21,-6.35l0.01 0.01c-1.06,0.65 -13.62,4.23 -10.22,6.34z"/>
    <polygon class="fil4" points="7679.11,2730.96 7746.47,2741.58 7679.11,2730.96 7684.21,2688.5 7724.38,2672.62 7684.21,2688.5 "/>
    <line class="fil3" x1="8969.63" y1="2912.03" x2="8969.63" y2= "2912.03" />
   </g>
   <path class="fil10 str0" d="M5302.25 95.25c2875.74,0 5207,2274.39 5207,5080 0,2805.61 -2331.26,5080 -5207,5080 -2875.75,0 -5207,-2274.39 -5207,-5080 0,-2805.61 2331.25,-5080 5207,-5080z"/>
  </g>
 </g>
</svg>
