<svg xmlns="http://www.w3.org/2000/svg" width="503.857" height="306.075" viewBox="0 0 503.857 306.075">
    <defs>
        <clipPath id="ew1osciu7a">
            <path data-name="Path 21" d="M273.627 40.713c-81.612-5.121-110.562 35.132-152.04 76.767s-60.652 85.581-36.549 148.14 81.014 78.467 170.337 78.467 181.31 8.715 227.9-25.313 62.456-111.787-5.042-152.474c-39.76-23.962-91.786-118.507-204.606-125.587z" transform="translate(-74.463 -40.272)" style="fill:none"/>
        </clipPath>
    </defs>
    <g data-name="Group 24">
        <path data-name="Path 1" d="M273.627 40.713c-81.612-5.121-110.562 35.132-152.04 76.767s-60.652 85.581-36.549 148.14 81.014 78.467 170.337 78.467 181.31 8.715 227.9-25.313 62.456-111.787-5.042-152.474c-39.76-23.962-91.786-118.507-204.606-125.587z" transform="translate(-51.983 -40.272)" style="fill:#fff2db"/>
        <g data-name="Group 23">
            <g data-name="Group 22" style="clip-path:url(#ew1osciu7a)" transform="translate(22.48)">
                <g data-name="Group 14">
                    <g data-name="Group 1">
                        <path data-name="Path 2" d="M160.28 402.582c-.873-10.839-4.39-21.134-7.9-31.352-3.465-10.1-7.363-20.752-7.537-31.552-.076-4.662 2.052-14.143 8.7-12.362 2.247.6 3.661 3.042 4.675 4.941a53.822 53.822 0 0 1 3.308 7.843c3.485 10.106 4.112 20.925 4.085 31.531-.02 7.976-.575 15.991.077 23.954a.375.375 0 0 0 .75 0 186.076 186.076 0 0 1 2.566-33.353 146.655 146.655 0 0 1 3.722-15.564c.54-1.833 2.251-4.642 4.132-5.129 2.8-.725 6.255.055 7.33 3.073 4.016 11.273.612 23.407-3.129 34.244a144.073 144.073 0 0 1-5.182 13.539q-2.485 5.377-4.876 10.8a154.53 154.53 0 0 0-1.372 3.189c-.186.447.54.639.722.2 2.844-6.838 6.38-13.406 8.879-20.373 3.743-10.439 7.924-21.161 7.452-32.443a34.851 34.851 0 0 0-1.161-7.378c-.569-2.166-1.24-3.811-3.187-5.027a7.222 7.222 0 0 0-4.677-.73 4.259 4.259 0 0 0-3.717 2.382 12.5 12.5 0 0 0-1.555 2.192q-.572 1.887-1.1 3.783a147.9 147.9 0 0 0-2.01 8.091 147.6 147.6 0 0 0-2.462 15.062 202.55 202.55 0 0 0-1.121 23.445h.75c-.751-9.163.015-18.4-.093-27.577-.121-10.384-1.27-20.815-4.991-30.575-1.364-3.578-2.982-7.9-6.235-10.185-3.364-2.365-7.108.234-8.944 3.168-2.442 3.9-2.288 9.1-1.8 13.485a91.234 91.234 0 0 0 3.2 14.95c4.183 14.533 10.724 28.483 11.952 43.73.038.478.789.482.75 0z" transform="translate(-91.898 -111.911)" style="fill:#ffbc45"/>
                    </g>
                    <g data-name="Group 2">
                        <path data-name="Path 3" d="M165.068 425.741a51.516 51.516 0 0 0-.858-6.19.376.376 0 0 0-.736.1c.125 2.084.423 4.145.748 6.2.075.476.8.274.723-.2-.314-1.994-.6-3.988-.721-6.005l-.736.1a49.91 49.91 0 0 1 .831 5.991c.043.477.794.482.75 0z" transform="translate(-96.754 -135.19)" style="fill:#ffbc45"/>
                    </g>
                    <g data-name="Group 3">
                        <path data-name="Path 4" d="M142.646 411.917c-3.168-8.379-9.813-14.528-15.715-21a51.7 51.7 0 0 1-8.235-11.348c-2.014-3.987-4.748-9.975-2.006-14.2 2.37-3.647 7.554-.691 10.135 1.046a40.072 40.072 0 0 1 8.382 8.241 80.856 80.856 0 0 1 15.1 28.875 69.225 69.225 0 0 1 1.72 7.866c.077.477.8.274.723-.2a78.283 78.283 0 0 0-11.023-28.7c-4.237-6.817-9.526-14.144-16.728-18.076-2.336-1.275-5.38-2.254-7.783-.638-3.05 2.052-2.566 6.53-1.78 9.566 2.246 8.665 8.4 15.391 14.356 21.739 4.792 5.107 9.621 10.375 12.138 17.027.169.448.893.254.722-.2z" transform="translate(-84.575 -121.08)" style="fill:#ffbc45"/>
                    </g>
                    <g data-name="Group 4">
                        <path data-name="Path 5" d="M186.878 352.913c-4.965 7.735-4.024 17.606-5.542 26.319-.872 5.006-2.662 9.77-3.575 14.76-.966 5.273-2.025 10.516-3.281 15.729-.113.47.609.669.723.2q1.8-7.478 3.171-15.048c.856-4.748 2.505-9.286 3.423-14.017.875-4.509 1.25-9.033 1.675-13.6.455-4.894 1.36-9.768 4.054-13.967.262-.408-.387-.783-.647-.378z" transform="translate(-99.508 -118.525)" style="fill:#ffbc45"/>
                    </g>
                    <g data-name="Group 5">
                        <path data-name="Path 6" d="M153.577 337.8c.337 5.651 2.252 11 3.554 16.472 1.452 6.1 2.636 12.282 3.865 18.432 1.2 5.99 2.27 12.006 3.556 17.977a91.274 91.274 0 0 1 2.42 18.726.375.375 0 0 0 .75 0 87.959 87.959 0 0 0-2.016-16.861q-1.864-9.292-3.7-18.588c-1.171-5.944-2.351-11.9-3.674-17.81-1.363-6.089-3.632-12.084-4.006-18.349-.028-.48-.778-.483-.75 0z" transform="translate(-94.276 -114.693)" style="fill:#ffbc45"/>
                    </g>
                    <g data-name="Group 6">
                        <path data-name="Path 7" d="M128.679 379.394a100.388 100.388 0 0 1 14.536 18.172c2.15 3.3 4.1 6.754 6.042 10.177 2.176 3.829 3.416 7.881 4.991 11.965.172.445.9.253.723-.2-1.422-3.686-2.483-7.438-4.385-10.922-2-3.668-4.114-7.337-6.371-10.853a101.131 101.131 0 0 0-15.006-18.869c-.35-.333-.881.2-.53.53z" transform="translate(-88.011 -125.042)" style="fill:#ffbc45"/>
                    </g>
                    <g data-name="Group 7">
                        <path data-name="Path 8" d="M130.039 392.838c4.549 3.057 9.537 5.459 13.841 8.879.374.3.908-.229.53-.53-4.356-3.461-9.388-5.9-13.992-9-.4-.271-.778.379-.379.647z" transform="translate(-88.338 -128.39)" style="fill:#ffbc45"/>
                    </g>
                    <g data-name="Group 8">
                        <path data-name="Path 9" d="M146.79 392.121a29.047 29.047 0 0 1 3.6 7.583 81.744 81.744 0 0 1 2.718 9.712c.109.471.831.271.722-.2a85.4 85.4 0 0 0-2.889-10.18 28.082 28.082 0 0 0-3.5-7.293c-.289-.38-.94-.007-.648.378z" transform="translate(-92.558 -128.254)" style="fill:#ffbc45"/>
                    </g>
                    <g data-name="Group 9">
                        <path data-name="Path 10" d="M179.741 380.536c.257 3.166 1.788 6.054 1.89 9.243.015.483.765.484.75 0-.1-3.194-1.633-6.077-1.89-9.243-.039-.477-.789-.482-.75 0z" transform="translate(-100.828 -125.397)" style="fill:#ffbc45"/>
                    </g>
                    <g data-name="Group 10">
                        <path data-name="Path 11" d="M159.76 345.416c-1.05 3.294-.907 6.882-1.352 10.283-.063.477.687.472.75 0 .437-3.336.3-6.852 1.325-10.083.147-.462-.576-.658-.723-.2z" transform="translate(-95.485 -116.626)" style="fill:#ffbc45"/>
                    </g>
                    <g data-name="Group 11">
                        <path data-name="Path 12" d="M152.239 363.551c1.645 2.321 2.991 4.826 4.686 7.113a17.473 17.473 0 0 1 3.407 6.713c.1.472.827.271.722-.2a15.993 15.993 0 0 0-2.69-5.769c-1.85-2.724-3.575-5.551-5.479-8.235-.277-.391-.927-.017-.647.378z" transform="translate(-93.923 -121.096)" style="fill:#ffbc45"/>
                    </g>
                    <g data-name="Group 12">
                        <path data-name="Path 13" d="M167.674 375.751c-.765 4.613-1.51 9.228-1.95 13.886-.045.482.7.477.75 0 .435-4.591 1.169-9.139 1.923-13.687.079-.472-.644-.675-.723-.2z" transform="translate(-97.317 -124.221)" style="fill:#ffbc45"/>
                    </g>
                    <g data-name="Group 13">
                        <path data-name="Path 14" d="M192.279 359.857c-1.853 4.841-5 9.112-7.188 13.8-.2.435.442.815.647.378 2.222-4.745 5.386-9.07 7.263-13.976.173-.453-.552-.645-.723-.2z" transform="translate(-102.159 -120.245)" style="fill:#ffbc45"/>
                    </g>
                </g>
                <g data-name="Group 21">
                    <g data-name="Group 15">
                        <path data-name="Path 15" d="M542.466 425.478a31.715 31.715 0 0 0-5.9-9.475c-3.234-3.511-7.408-5.823-10.268-9.708a121.046 121.046 0 0 1-7.5-12.213 23.115 23.115 0 0 1-2.936-7.632 34.99 34.99 0 0 1-.135-8.183l-.564.324a18.122 18.122 0 0 1 4.61 3.422c1.451 1.267 3.161 2.23 4.712 3.366a45.341 45.341 0 0 1 9.515 9.752 58.224 58.224 0 0 1 5.836 11.094c1.444 3.291 2.618 7.049 4.758 9.967.234.319.836.142.685-.289a65.384 65.384 0 0 1-3.464-23.565 89.388 89.388 0 0 1 1.1-10.875 28.219 28.219 0 0 1 3.171-10.049h-.647a18.891 18.891 0 0 1 1.411 5.36 35.29 35.29 0 0 0 1.848 5.973 79.128 79.128 0 0 1 3.383 13.435 41.273 41.273 0 0 1 .37 14.156c-.674 4.438-1.9 8.778-2.826 13.168-.083.4.487.687.685.288 1.326-2.667 2.57-5.369 3.678-8.134 1.208-3.014 2.007-6.144 3.075-9.2 1.677-4.805 4.538-9.175 9.129-11.57 5.492-2.864 18.047-5.716 19.48 3.192l.55-.424c-8.3-3.512-14.8 4.24-18.967 10.418a151.67 151.67 0 0 1-8.964 12.016 43.671 43.671 0 0 1-3.914 4.793c-1.33 1.2-3.913 3.033-5.8 2.855-.481-.045-.477.705 0 .75 2.5.235 5.963-2.3 7.354-4.222 2.841-3.921 6.214-7.429 9.055-11.353 4.682-6.464 10.875-18.835 20.857-14.61a.38.38 0 0 0 .551-.423c-1.423-8.837-12.983-6.857-18.872-4.429a18.845 18.845 0 0 0-9.78 9.441c-1.5 2.988-2.249 6.251-3.308 9.4a88.452 88.452 0 0 1-4.773 11.124l.685.289c.968-4.609 2.217-9.159 2.925-13.82a39.494 39.494 0 0 0-.339-13.186 84.393 84.393 0 0 0-3.515-14.151 43.9 43.9 0 0 1-1.848-5.972 21.217 21.217 0 0 0-1.486-5.538.377.377 0 0 0-.647 0c-3.418 5.82-3.91 13.389-4.315 19.989a64.608 64.608 0 0 0 3.431 25.076l.685-.289c-2.255-3.077-3.5-7.093-5.025-10.579a56.487 56.487 0 0 0-6.357-11.544 46.058 46.058 0 0 0-8.495-8.574c-1.8-1.39-3.793-2.528-5.512-4.027a16.63 16.63 0 0 0-4.312-3.147.381.381 0 0 0-.564.324c-.347 4.828-.157 9.432 1.946 13.856a116.818 116.818 0 0 0 7.754 13.136 28.066 28.066 0 0 0 4.031 4.952c1.689 1.63 3.7 2.912 5.447 4.479a29.879 29.879 0 0 1 7.586 10.987c.184.439.909.247.723-.2z" transform="translate(-184.75 -123.063)" style="fill:#ffbc45"/>
                    </g>
                    <g data-name="Group 16">
                        <path data-name="Path 16" d="M531.2 437.618c-4.245-6.865-7.631-16.179-15.768-19.32-4.331-1.672-9.564-.721-13.629 1.208-4.588 2.178-8.234 6.051-11.462 9.868a.378.378 0 0 0 .364.627c6.948-2.047 15.673-2.471 22.112 1.371 3.076 1.835 5.484 4.95 7.909 7.533 1.6 1.708 2.78 4.581 5.263 5.176.47.113.669-.609.2-.723-1.663-.4-2.79-2.218-3.752-3.5a42.716 42.716 0 0 0-2.989-3.39c-2.48-2.66-4.91-5.332-8.316-6.785-6.4-2.729-14.068-2.342-20.625-.411l.364.627c5.914-6.993 14.5-14.27 24.361-10.882 4.042 1.388 6.942 5.1 9.211 8.527 2.23 3.367 3.988 7.016 6.11 10.447.253.411.9.035.648-.378z" transform="translate(-178.591 -134.728)" style="fill:#ffbc45"/>
                    </g>
                    <g data-name="Group 17">
                        <path data-name="Path 17" d="M529.729 400.717c3.035 6.368 8.421 11.07 12.294 16.875a68.683 68.683 0 0 1 5.051 9.252c1.786 3.868 1.22 7.851 1.19 11.983a.375.375 0 0 0 .75 0c.025-3.491.623-7.185-.544-10.539a58 58 0 0 0-5.166-10.07c-3.763-6.37-9.713-11.134-12.928-17.878-.208-.436-.854-.055-.647.378z" transform="translate(-188.468 -130.399)" style="fill:#ffbc45"/>
                    </g>
                    <g data-name="Group 18">
                        <path data-name="Path 18" d="M515.96 426.4c5.554 2.943 10.979 6.014 14.828 11.1 1.367 1.806 2.7 3.637 4.089 5.425.408.525 1.54 2.483 2.392 2.393.476-.049.48-.8 0-.75-.626.065-2.653-3.2-2.956-3.605-1.26-1.663-2.481-3.358-3.765-5-3.628-4.649-9.1-7.5-14.209-10.209-.426-.226-.8.421-.378.647z" transform="translate(-184.984 -136.8)" style="fill:#ffbc45"/>
                    </g>
                    <g data-name="Group 19">
                        <path data-name="Path 19" d="M556.913 399.03c.062 3.3.959 6.475 1.345 9.741a45.254 45.254 0 0 1-.488 11.844c-1.059 7.14-.567 14.385-2.534 21.4l.737.1v-.845a.375.375 0 0 0-.75 0v.845a.376.376 0 0 0 .736.1c1.9-6.786 1.739-13.883 2.471-20.84a72.854 72.854 0 0 0 .686-11.235c-.18-3.748-1.384-7.351-1.454-11.112a.375.375 0 0 0-.75 0z" transform="translate(-194.863 -130.028)" style="fill:#ffbc45"/>
                    </g>
                    <g data-name="Group 20">
                        <path data-name="Path 20" d="M581.5 405.463c-5.733 3.627-9.9 9.9-13.167 15.715-3.147 5.6-5.914 12.5-12.177 15.263-.441.194-.06.84.378.647 5.574-2.457 8.51-8.233 11.248-13.33 3.477-6.472 7.76-13.638 14.1-17.646.408-.258.031-.906-.378-.648z" transform="translate(-195.048 -131.715)" style="fill:#ffbc45"/>
                    </g>
                </g>
            </g>
        </g>
    </g>
    <g data-name="Group 49">
        <g data-name="Group 46">
            <path data-name="Path 22" d="M376.959 237.132a7.222 7.222 0 0 1-7.221 7.223 7.223 7.223 0 0 1-7.222-7.223v-5.012a7.222 7.222 0 0 1 7.222-7.221 7.221 7.221 0 0 1 7.221 7.221z" transform="translate(-124.123 -86.51)" style="fill:#ffbc45"/>
            <path data-name="Path 23" d="M438 329.684c-1.991-9.728-10.612-36.034-31.613-45.541s-40.679-1.768-47.973 2.651-15.7 21.667-19.453 37.8-16.581 15.918-26.529 19.455l4.642 16.8 102.578.663.221-2.653c26.745-1.542 20.114-19.449 18.127-29.175zm-104.9 25.755c4.09 0 22.328-13.707 26.087-13.266 1.878 10.059 2.1 15.365 2.321 16.029s-27.308 5.526-28.408-2.763z" transform="translate(-111.579 -100.213)" style="fill:#ffbc45"/>
            <path data-name="Path 24" d="M387.683 295c-1.325 6.336-6.779 45.1 2.507 70.6a166.64 166.64 0 0 0 17.979 0c-2.063-13.412-6.19-50.553 2.357-71.776-8.546.138-22.843 1.176-22.843 1.176z" transform="translate(-129.725 -103.769)" style="fill:#ffe4b5"/>
            <path data-name="Path 25" d="M392.471 279.8c-7.295.444-8.99 8.328-5.673 13.191s9.578.883 10.684-1.547c7.885 7.442 18.128.737 20.338-10.317 0-.886-12.525-3.319-25.349-1.327z" transform="translate(-129.797 -100.068)" style="fill:#ffe4b5"/>
            <path data-name="Path 26" d="M408.305 218.6c-.333-7.356-7.885-21.393-25.792-20.6-12.748.98-14.3 13.057-14.3 13.057a22.279 22.279 0 0 1-2.726 4.224c-.663-5.658 2.914-20.652 19.013-21.054 18.127-.453 26.784 13.734 27.118 23.922a1.981 1.981 0 0 1-3.313.451z" transform="translate(-124.849 -78.825)" style="fill:#ffbc45"/>
            <path data-name="Path 27" d="M371.789 208.172c-6.122 4.194-9.789 11.175-6.687 18.117s3.983 10 .974 15.434c-4.234 7.642-6.018 14.775-2.833 21.262 19.2-2.652 27.653-4.811 27.653-4.811s-7.425-50.812-19.107-50.002z" transform="translate(-123.898 -82.319)" style="fill:#31241c"/>
            <path data-name="Path 28" d="M407.4 254.819s4.749 14.311 5.2 20.357c.409 5.544-17.936 9.244-19.238 3.432-1.356-6.915-3.372-18.672-3.372-18.672" transform="translate(-131.003 -94.003)" style="fill:#c97440"/>
            <path data-name="Path 29" d="m408.925 260.8-1.525-5.976-17.412 5.118s.621 3.612 1.415 8.139a17.146 17.146 0 0 0 17.521-7.281z" transform="translate(-131.003 -94.003)" style="fill:#ab5d2d"/>
            <path data-name="Path 30" d="M372.333 233.419a17.269 17.269 0 0 0 18.021 16.481 17.271 17.271 0 0 0 16.484-18.025l-.815-18.244A17.27 17.27 0 0 0 388 197.15a17.269 17.269 0 0 0-16.482 18.023z" transform="translate(-126.373 -79.556)" style="fill:#c97440"/>
            <g data-name="Group 25">
                <path data-name="Path 31" d="M400.446 219.941c-2.18-1.171-5.042-1.714-7.321-.538-.852.439-.1 1.723.751 1.284 1.775-.916 4.138-.364 5.819.538.845.454 1.6-.831.751-1.284z" transform="translate(-131.695 -84.969)" style="fill:#31241c"/>
            </g>
            <g data-name="Group 26">
                <path data-name="Path 32" d="M374.807 222.679a4.372 4.372 0 0 1 3.878-1.049c.936.192 1.334-1.241.4-1.434a5.939 5.939 0 0 0-5.325 1.432c-.7.661.357 1.711 1.052 1.052z" transform="translate(-126.88 -85.299)" style="fill:#31241c"/>
            </g>
            <g data-name="Group 27">
                <path data-name="Path 33" d="M387.651 239.3a.561.561 0 0 1-.372-.14l-3.365-2.963a.563.563 0 0 1 .1-.912l3.39-1.908a.562.562 0 0 1 .552.98l-2.7 1.519 2.77 2.44a.563.563 0 0 1-.372.984z" transform="translate(-129.434 -88.616)" style="fill:#31241c"/>
            </g>
            <g data-name="Group 28">
                <path data-name="Path 34" d="M389.711 246.065a4.449 4.449 0 0 1-2.492-.714.562.562 0 0 1 .633-.929 3.755 3.755 0 0 0 3.655.074 2.666 2.666 0 0 0 1.362-2.645.562.562 0 1 1 1.123-.051 3.791 3.791 0 0 1-1.937 3.678 4.852 4.852 0 0 1-2.344.587z" transform="translate(-130.248 -90.609)" style="fill:#31241c"/>
            </g>
            <path data-name="Path 35" d="M393.958 232.055a2.1 2.1 0 1 0 1.222-2.707 2.1 2.1 0 0 0-1.222 2.707z" transform="translate(-131.963 -87.59)" style="fill:#1a191f"/>
            <path data-name="Path 36" d="M377.213 233.058a2.1 2.1 0 1 0 1.224-2.7 2.1 2.1 0 0 0-1.224 2.7z" transform="translate(-127.77 -87.842)" style="fill:#1a191f"/>
            <g data-name="Group 29">
                <path data-name="Path 37" d="M377.132 232.6a.486.486 0 0 1-.256-.073l-2.048-1.255a.494.494 0 1 1 .516-.842l2.047 1.255a.493.493 0 0 1-.259.914z" transform="translate(-127.147 -87.877)" style="fill:#1a191f"/>
            </g>
            <g data-name="Group 30">
                <path data-name="Path 38" d="M397.658 231.536a.494.494 0 0 1-.282-.9l2.141-1.484a.494.494 0 0 1 .562.812l-2.141 1.484a.491.491 0 0 1-.28.088z" transform="translate(-132.8 -87.554)" style="fill:#1a191f"/>
            </g>
            <path data-name="Path 39" d="M423.691 232.219c-2.865-6.172.672-10-.853-15.883-1.336-5.143-7.457-4.983-10.615-12.268-4.838-11.171-29.728-21.226-39.009 1.441 10.317-7 20.893-3.359 24.906 1.812 8.095 10.429-.211 14.847 2.913 21.05 2.276 4.518 3.769 7.562.827 14.4s1.177 13.341 1.177 13.341c9.633-1.066 20.522-2.013 30.416-3.689 0-16.688-6.9-14.033-9.762-20.204z" transform="translate(-126.802 -78.246)" style="fill:#31241c"/>
            <path data-name="Path 40" d="M372.476 359.684c-8.4.736-11.641 3.243-19.159 7.222s-9.137 4.864-7.369 5.6c-4.421.295-1.843 2.651 1.253 1.619-2.062.885.811 1.844 4.937.3 1.032 1.621 6.338.886 9.728-1.031s11.5-3.539 18.864-1.032c.885-4.569-1.915-12.527-1.915-12.527z" transform="translate(-119.382 -120.265)" style="fill:#c97440"/>
            <path data-name="Path 41" d="M389.257 359.266c4.532-.994 17.208-2.028 24.724-1.584.442 5.895-2.8 17.833-2.8 17.833l-20.045-4.423a21.389 21.389 0 0 0-1.879-11.826z" transform="translate(-130.82 -119.738)" style="fill:#ffbc45"/>
            <g data-name="Group 31">
                <path data-name="Path 42" d="M388.594 358.8c8.95-1.294 18-1.269 27.02-1.522 4.345-.124 8.512-.627 12.817-1.121a34 34 0 0 1 12.869 1.613.375.375 0 0 0 .2-.723 39.224 39.224 0 0 0-11.689-1.739 44.98 44.98 0 0 0-5.633.7 67.839 67.839 0 0 1-7.832.495c-9.337.3-18.689.233-27.956 1.572-.477.069-.274.791.2.723z" transform="translate(-130.536 -119.167)" style="fill:#1f0e03"/>
            </g>
            <g data-name="Group 32">
                <path data-name="Path 43" d="M442.01 329.181a141.081 141.081 0 0 1 1.314 18.766.375.375 0 0 0 .75 0 142.57 142.57 0 0 0-1.34-18.965c-.066-.477-.788-.273-.723.2z" transform="translate(-144.031 -112.508)" style="fill:#1f0e03"/>
            </g>
            <g data-name="Group 33">
                <path data-name="Path 44" d="M390.856 375.857c2.71-.032 5.221 1.169 7.792 1.867 3.054.828 6.045 1.866 9.1 2.7a92.206 92.206 0 0 0 18.974 3.135c10.164.588 22.461.089 30.135-7.52a.375.375 0 0 0-.53-.53c-8.021 7.954-21.2 7.963-31.73 7.158a91.9 91.9 0 0 1-18.663-3.536c-2.72-.8-5.434-1.627-8.15-2.438-2.286-.683-4.5-1.618-6.926-1.589a.375.375 0 0 0 0 .75z" transform="translate(-131.13 -124.128)" style="fill:#1f0e03"/>
            </g>
            <g data-name="Group 34">
                <path data-name="Path 45" d="M370.866 318.961c-.67 2.01-.47 4.174-.441 6.263.04 2.875.252 5.744.4 8.614.148 2.834.234 5.67.462 8.5.21 2.612 1.2 5.088 1.333 7.675.025.48.775.483.75 0-.124-2.366-1.031-4.6-1.27-6.969-.262-2.588-.343-5.2-.459-7.793-.115-2.62-.3-5.236-.4-7.855s-.49-5.712.35-8.233c.153-.46-.571-.655-.723-.2z" transform="translate(-126.091 -110.002)" style="fill:#1f0e03"/>
            </g>
            <g data-name="Group 35">
                <path data-name="Path 46" d="M385.863 284.745c-1.176 4.149-2 9.445 2.648 11.777a6.055 6.055 0 0 0 5.207-.309 13.569 13.569 0 0 0 3.069-2.192c.95-.815 1.367.421 2.207 1.022 6.837 4.889 15.835-1.88 18.1-8.625.154-.459-.57-.655-.723-.2-2.416 7.2-12.739 13.807-18.681 6.467a.377.377 0 0 0-.53 0c-2.465 2.216-5.669 4.839-9.031 2.763-3.664-2.262-2.492-7.161-1.543-10.505a.375.375 0 0 0-.723-.2z" transform="translate(-129.74 -101.431)" style="fill:#1f0e03"/>
            </g>
            <g data-name="Group 36">
                <path data-name="Path 47" d="M354.383 377.608c2.362-.42 4.255-1.9 6.243-3.144 2.74-1.719 5.817-2.706 8.789-3.932.44-.181.247-.908-.2-.723-2.453 1.013-4.965 1.867-7.337 3.071-2.577 1.307-4.775 3.486-7.7 4-.475.085-.273.807.2.723z" transform="translate(-121.968 -122.793)" style="fill:#1f0e03"/>
            </g>
            <g data-name="Group 37">
                <path data-name="Path 48" d="M347.193 377.178c5.969-2.521 11.467-6.063 17.594-8.217.453-.16.258-.884-.2-.723-6.19 2.176-11.745 5.746-17.774 8.293-.444.187-.061.833.379.647z" transform="translate(-120.142 -122.402)" style="fill:#1f0e03"/>
            </g>
            <g data-name="Group 38">
                <path data-name="Path 49" d="M345.428 375.221c2.357-1.432 5.048-2.1 7.47-3.384 2.4-1.274 4.786-2.581 7.269-3.691.441-.2.058-.842-.379-.647-2.483 1.109-4.871 2.412-7.268 3.69-2.423 1.292-5.111 1.951-7.471 3.384a.375.375 0 0 0 .379.648z" transform="translate(-119.704 -122.213)" style="fill:#1f0e03"/>
            </g>
            <g data-name="Group 39">
                <path data-name="Path 50" d="M397.472 303.423c.251 1.331 2.134 1.285 2.743.256a1.158 1.158 0 0 0-.552-1.541 1.593 1.593 0 0 0-2.042.332c-.275.4.375.774.647.378.33-.477 1.708.022 1.224.557-.368.407-1.181.438-1.3-.181-.09-.474-.813-.273-.723.2z" transform="translate(-132.876 -105.798)" style="fill:#1f0e03"/>
            </g>
            <g data-name="Group 40">
                <path data-name="Path 51" d="M396.144 310.973c-.191 1.326 1.346 1.7 2.238.961a1.219 1.219 0 0 0 .31-1.614 1.548 1.548 0 0 0-1.733-.27c-.459.145-.262.869.2.723a1.172 1.172 0 0 1 .917-.031c.232.136-.079.555-.2.646-.274.2-1.085.348-1-.215.068-.473-.654-.677-.723-.2z" transform="translate(-132.54 -107.801)" style="fill:#1f0e03"/>
            </g>
            <g data-name="Group 41">
                <path data-name="Path 52" d="M395.541 320.331c.066 1.5 2.284.9 2.507-.232.271-1.387-2.147-2.146-2.383-.642-.074.473.648.676.723.2.091-.579.918-.182.928.267.008.355-1.007.837-1.025.407-.021-.481-.771-.483-.75 0z" transform="translate(-132.393 -109.984)" style="fill:#1f0e03"/>
            </g>
            <g data-name="Group 42">
                <path data-name="Path 53" d="M376.063 375.488a7.6 7.6 0 0 0 .456 3.417c.176.444.9.25.723-.2a7.076 7.076 0 0 1-.429-3.218c.049-.48-.7-.475-.75 0z" transform="translate(-127.507 -124.134)" style="fill:#1f0e03"/>
            </g>
            <g data-name="Group 43">
                <path data-name="Path 54" d="M388.508 359.876c1.4.983 1.51 2.932 1.9 4.45.525 2.007.913 4.5.025 6.46-.2.436.447.818.647.378 1-2.213.585-4.748.052-7.038-.413-1.775-.659-3.779-2.25-4.9-.4-.279-.77.372-.378.647z" transform="translate(-130.59 -120.134)" style="fill:#1f0e03"/>
            </g>
            <g data-name="Group 44">
                <path data-name="Path 55" d="M364.418 246.894c-1.178 8.742 11.737 8.771 17.312 8.505.481-.023.483-.772 0-.75-4.921.235-17.671.471-16.589-7.556.064-.472-.659-.676-.723-.2z" transform="translate(-124.58 -91.95)" style="fill:#1f0e03"/>
            </g>
            <path data-name="Path 56" d="M391.493 256.934a2.821 2.821 0 1 1-2.764-2.249 2.547 2.547 0 0 1 2.764 2.249z" transform="translate(-129.996 -93.97)" style="fill:#ffbc45"/>
            <path data-name="Path 57" d="M385.249 194.222c-9.183.23-14.287 5.2-16.858 10.489a8.487 8.487 0 0 1 2.609.726A14.7 14.7 0 0 1 383.259 198c17.906-.793 25.459 13.244 25.792 20.6a1.981 1.981 0 0 0 3.317-.451c-.335-10.192-8.993-24.379-27.119-23.927z" transform="translate(-125.594 -78.825)" style="fill:#ffbc45"/>
            <path data-name="Path 58" d="M430 237.132a7.223 7.223 0 0 1-7.221 7.223 7.221 7.221 0 0 1-7.222-7.223v-5.012a7.221 7.221 0 0 1 7.222-7.221A7.222 7.222 0 0 1 430 232.12z" transform="translate(-137.406 -86.51)" style="fill:#ffbc45"/>
            <g data-name="Group 45">
                <path data-name="Path 59" d="M429.336 237.329a4.44 4.44 0 0 1-8.6 1.414c-.536-1.366-.231-3.3-.231-4.739 0-4.988 6.86-5.85 8.6-1.414.536 1.365.231 3.3.231 4.738a.375.375 0 0 0 .75 0c0-3.007.294-5.909-2.558-7.783-3.456-2.27-7.574.777-7.772 4.458-.16 2.958-.184 5.983 2.557 7.784 3.457 2.27 7.574-.778 7.773-4.46.026-.481-.724-.478-.75.002z" transform="translate(-138.443 -87.478)" style="fill:#1f0e03"/>
            </g>
        </g>
        <g data-name="Group 47">
            <path data-name="Path 60" d="M286.392 358.171h57.627c2.653 0 3.243 5.306-1.179 5.306h-132.2c-3.979-7.959-21.812-56.6-23.581-61.164s-.147-9.874 7.075-9.874h50.7c5.305 0 11.2.882 14.885 8.989s26.673 56.743 26.673 56.743z" transform="translate(-80.017 -103.425)" style="fill:#5f7e91"/>
            <path data-name="Path 61" d="M362.147 363.267a3.444 3.444 0 0 0 .477-.213.244.244 0 0 0 .04-.02c2.264-1.268 1.487-4.862-.7-4.862h-57.626l-.045-.1-.112-.235c-.2-.433-.6-1.281-1.169-2.476-4.945-10.464-22.2-47.007-25.35-53.935-3.684-8.108-9.579-8.989-14.885-8.989h-4.717c5.307 0 11.2.882 14.886 8.989s26.676 56.743 26.676 56.743l1.99 5.162s2.484.059 6.45.144h52.723a4.752 4.752 0 0 0 .74-.058 3.442 3.442 0 0 0 .409-.1c.066-.017.147-.029.213-.05z" transform="translate(-97.963 -103.425)" style="fill:#49687a"/>
            <path data-name="Path 62" d="M251.392 338.633c1.455 3.6-.269 6.514-3.85 6.514s-7.665-2.916-9.119-6.514.269-6.517 3.85-6.517 7.665 2.918 9.119 6.517z" transform="translate(-92.916 -113.362)" style="stroke:#1f0e03;stroke-miterlimit:10;fill:none"/>
        </g>
        <g data-name="Group 48">
            <path data-name="Path 63" d="M417.416 392.7H209.523v32.955c22.823 4.859 53.582 8.37 83.872 8.753 41.467.524 84.465.053 124.021-1.87z" transform="translate(-85.808 -128.534)" style="fill:#f5cdb3"/>
            <path data-name="Path 64" d="M423.161 390.415a3.562 3.562 0 0 1-3.562 3.561H201.573a3.561 3.561 0 0 1-3.56-3.561 3.562 3.562 0 0 1 3.56-3.562H419.6a3.562 3.562 0 0 1 3.562 3.562z" transform="translate(-82.925 -127.069)" style="fill:#c97440"/>
        </g>
    </g>
    <g data-name="Group 57">
        <path data-name="Path 65" d="M168.85 214.641c4.942 4.683 8.977 4.683 8.968 0l-.035-17.025a8.8 8.8 0 0 0-8.983-8.516h-17.94c-4.932 0-4.924 3.832.018 8.514z" transform="translate(-70.191 -77.544)" style="fill:#ffbc45"/>
        <path data-name="Rectangle 2" d="M38.383 0h86.39a38.382 38.382 0 0 1 38.382 38.382V57.06a38.381 38.381 0 0 1-38.381 38.381H38.382A38.382 38.382 0 0 1 0 57.059V38.383A38.383 38.383 0 0 1 38.383 0z" transform="translate(53.374 25.114)" style="fill:#ffbc45"/>
        <text data-name="HELP!" transform="translate(125.747 53.195)" style="font-family:Raleway-Bold,Raleway;font-weight:700;font-size:15px;fill:#c97440"><tspan x="0" y="0">HELP!</tspan></text>
        <path data-name="Rectangle 3" transform="translate(127.446 62.575)" style="fill:#fff2db" d="M0 0h73.659v4.79H0z"/>
        <path data-name="Rectangle 4" transform="translate(127.446 74.212)" style="fill:#fff2db" d="M0 0h63.609v4.789H0z"/>
        <path data-name="Rectangle 5" transform="translate(127.446 85.849)" style="fill:#fff2db" d="M0 0h42.191v4.789H0z"/>
        <path data-name="Rectangle 6" transform="translate(127.446 97.483)" style="fill:#fff2db" d="M0 0h68.239v4.791H0z"/>
        <g data-name="Group 54">
            <path data-name="Path 66" d="M181.481 171.243c-2.195-5.451-9.789-9.346-13.669-9.294h-13.1c-4.308.406-11.475 3.843-13.67 9.294a28.94 28.94 0 0 0 40.443 0z" transform="translate(-68.656 -70.744)" style="fill:#31241c"/>
            <path data-name="Path 67" d="M160.16 147.023s-1.255 10.309-2.121 16.139c-.633 4.258 14.649 5.455 15.113.864.406-5.444.872-14.671.872-14.671" transform="translate(-72.909 -67.006)" style="fill:#c97440"/>
            <path data-name="Path 68" d="m160.046 151.76.621-4.737 13.863 2.332s-.145 2.835-.338 6.39a13.266 13.266 0 0 1-14.146-3.985z" transform="translate(-73.416 -67.006)" style="fill:#ab5d2d"/>
            <path data-name="Path 69" d="M181.972 127.3a13.378 13.378 0 0 1-12.342 14.339 13.378 13.378 0 0 1-14.338-12.345l-1.056-14.109a13.375 13.375 0 0 1 12.343-14.335 13.377 13.377 0 0 1 14.339 12.341z" transform="translate(-71.952 -55.432)" style="fill:#c97440"/>
            <g data-name="Group 50">
                <path data-name="Path 70" d="M166.641 120.655a7.008 7.008 0 0 0 4.507-2.8c.56-.782-.731-1.523-1.284-.751a5.544 5.544 0 0 1-3.618 2.121c-.938.2-.54 1.632.395 1.434z" transform="translate(-74.835 -59.43)" style="fill:#31241c"/>
            </g>
            <g data-name="Group 51">
                <path data-name="Path 71" d="M185.945 117.383a2.933 2.933 0 0 1-2.21-1.628c-.463-.84-1.748-.089-1.284.751a4.337 4.337 0 0 0 3.1 2.311c.938.176 1.337-1.257.4-1.434z" transform="translate(-79.002 -59.083)" style="fill:#31241c"/>
            </g>
            <g data-name="Group 52">
                <path data-name="Path 72" d="M177.871 132.941a.562.562 0 0 1-.419-.937l1.787-2-2.051-.851a.562.562 0 1 1 .43-1.039l2.783 1.154a.563.563 0 0 1 .2.894l-2.315 2.59a.559.559 0 0 1-.415.189z" transform="translate(-77.622 -62.259)" style="fill:#31241c"/>
            </g>
            <g data-name="Group 53">
                <path data-name="Path 73" d="M173.519 141.16a.562.562 0 0 1-.325-1.021c2.214-1.565 4.2-2.195 5.911-1.871a.562.562 0 0 1-.21 1.1c-1.395-.265-3.1.3-5.051 1.684a.561.561 0 0 1-.325.108z" transform="translate(-76.649 -64.793)" style="fill:#31241c"/>
            </g>
            <path data-name="Path 74" d="M172.572 127.8a1.626 1.626 0 1 1-1.19-1.968 1.627 1.627 0 0 1 1.19 1.968z" transform="translate(-75.751 -61.687)" style="fill:#1a191f"/>
            <path data-name="Path 75" d="M185.543 127.028a1.626 1.626 0 1 1-1.19-1.965 1.627 1.627 0 0 1 1.19 1.965z" transform="translate(-78.999 -61.494)" style="fill:#1a191f"/>
            <path data-name="Path 76" d="M155.756 132.343a4.855 4.855 0 0 1-3.574 5.866 4.856 4.856 0 0 1-5.868-3.572l-.363-1.491a4.859 4.859 0 0 1 3.575-5.868 4.86 4.86 0 0 1 5.868 3.574z" transform="translate(-69.852 -62.026)" style="fill:#c97440"/>
            <path data-name="Path 77" d="M148.336 118.951c-1.142-3.252-6.708-16.484 1.57-16.883.513-5.194 7.735-7.934 16.753-9.7s14.642 2.455 13.957 6.679-6.223 5.766-10.617 4.509c-1.256 4.566-7.307 3.027-8.619 2.112-1.014 4.424-6.038 5.494-5.466 8.577s.827 6.221.941 6.849-2.511 1.856-3.081.6-2.827-3.513-5.438-2.743z" transform="translate(-69.76 -53.214)" style="fill:#31241c"/>
        </g>
        <g data-name="Group 55">
            <path data-name="Path 78" d="M182.472 209.045c5.474 1.086 2.337-17.484 2.3-20.283l-.375.375c11.779.1 23.562.136 35.341.032 8.421-.073 16.834-.289 25.257-.289 5.179 0 10.33-.191 15.5-.391 5.546-.214 11.075-.2 16.478-1.632 10.336-2.746 14.1-13.677 15.168-23.269.053-.48-.7-.474-.75 0-.793 7.119-2.951 14.921-8.678 19.663-4.314 3.572-10.672 4.026-16.025 4.285-5.331.259-10.685.485-16.022.561-16.882.242-33.777.407-50.661.369q-7.805-.017-15.612-.081a.377.377 0 0 0-.375.375c.03 2.361 2.472 20.319-1.352 19.561-.471-.094-.673.629-.2.723z" transform="translate(-78.964 -71.065)" style="fill:#1f0e03"/>
        </g>
        <g data-name="Group 56">
            <path data-name="Path 79" d="M328.335 120.787c.006 9.311.406 18.673-.229 27.971-.033.483.717.479.75 0 .635-9.3.235-18.66.229-27.971a.375.375 0 0 0-.75 0z" transform="translate(-115.505 -60.345)" style="fill:#1f0e03"/>
        </g>
    </g>
    <g data-name="Group 67">
        <path data-name="Rectangle 7" d="M39.792 0h89.566a39.793 39.793 0 0 1 39.793 39.793v19.362a39.793 39.793 0 0 1-39.793 39.793H39.793A39.793 39.793 0 0 1 0 59.155V39.792A39.792 39.792 0 0 1 39.792 0z" style="fill:#ffbc45" transform="translate(334.707 112.948)"/>
        <path data-name="Path 80" d="M532.951 337c-5.124 4.853-9.309 4.853-9.3 0s.028-12.8.038-17.65a9.121 9.121 0 0 1 9.316-8.826h18.6c5.114 0 5.106 3.971-.018 8.826z" transform="translate(-164.477 -107.954)" style="fill:#ffbc45"/>
        <text data-name="THANKS!" transform="translate(356.583 143.206)" style="font-size:14px;font-family:Raleway-Bold,Raleway;font-weight:700;fill:#c97440"><tspan x="0" y="0">THANKS!</tspan></text>
        <path data-name="Rectangle 8" transform="translate(354.561 153.867)" style="fill:#fff2db" d="M0 0h76.367v4.965H0z"/>
        <path data-name="Rectangle 9" transform="translate(354.561 165.929)" style="fill:#fff2db" d="M0 0h65.947v4.968H0z"/>
        <path data-name="Rectangle 10" transform="translate(354.561 177.994)" style="fill:#fff2db" d="M0 0h43.741v4.966H0z"/>
        <g data-name="Group 63">
            <path data-name="Path 81" d="M642.759 294.466c2.276-5.651 10.148-9.689 14.171-9.636h13.586c4.466.421 11.9 3.985 14.171 9.636a30.006 30.006 0 0 1-41.928 0z" transform="translate(-194.306 -101.519)" style="fill:#31241c"/>
            <g data-name="Group 62">
                <path data-name="Path 82" d="M673.329 269.356s1.3 10.688 2.2 16.732c.656 4.413-15.187 5.655-15.668.9-.421-5.643-.9-15.209-.9-15.209" transform="translate(-198.362 -97.644)" style="fill:#c97440"/>
                <path data-name="Path 83" d="m673.972 274.268-.643-4.912-14.373 2.419s.149 2.94.351 6.625a13.76 13.76 0 0 0 14.665-4.132z" transform="translate(-198.362 -97.644)" style="fill:#ab5d2d"/>
                <path data-name="Path 84" d="M646.624 248.905a13.873 13.873 0 0 0 12.8 14.866 13.87 13.87 0 0 0 14.864-12.8l1.1-14.628a13.867 13.867 0 0 0-12.8-14.863 13.865 13.865 0 0 0-14.865 12.8z" transform="translate(-195.264 -85.644)" style="fill:#c97440"/>
                <g data-name="Group 58">
                    <path data-name="Path 85" d="M670.372 240.793a4.223 4.223 0 0 0-4.076-2.261c-.941.109-.951 1.6 0 1.487a2.783 2.783 0 0 1 2.792 1.525c.442.851 1.726.1 1.284-.751z" transform="translate(-200.022 -89.919)" style="fill:#31241c"/>
                </g>
                <g data-name="Group 59">
                    <path data-name="Path 86" d="M651.449 240.188a3.185 3.185 0 0 1 2.774-.925c.932.226 1.328-1.209.4-1.434a4.677 4.677 0 0 0-4.221 1.307c-.662.693.388 1.747 1.051 1.052z" transform="translate(-196.166 -89.723)" style="fill:#31241c"/>
                </g>
                <g data-name="Group 60">
                    <path data-name="Path 87" d="M659.164 254.744a.559.559 0 0 1-.419-.187l-2.4-2.686a.562.562 0 0 1 .2-.893l2.886-1.2a.562.562 0 0 1 .43 1.039l-2.154.893 1.873 2.1a.562.562 0 0 1-.42.937z" transform="translate(-197.672 -92.73)" style="fill:#31241c"/>
                </g>
                <g data-name="Group 61">
                    <path data-name="Path 88" d="M658.795 264.8c-1.54 0-2.582-1.632-3.187-4.99a.561.561 0 0 1 .15-.49.573.573 0 0 1 .486-.166 25.156 25.156 0 0 0 3.888.283c.9 0 1.869-.037 2.974-.112a.561.561 0 0 1 .522.846c-1.838 3.117-3.419 4.629-4.833 4.629zm-1.929-4.427c.47 2.111 1.159 3.3 1.928 3.3.495 0 1.552-.436 3.3-3.165a29.436 29.436 0 0 1-5.228-.133z" transform="translate(-197.521 -95.088)" style="fill:#31241c"/>
                </g>
                <path data-name="Path 89" d="M664.877 249.427a1.686 1.686 0 1 0 1.233-2.042 1.687 1.687 0 0 0-1.233 2.042z" transform="translate(-199.833 -92.129)" style="fill:#1a191f"/>
                <path data-name="Path 90" d="M651.428 248.628a1.687 1.687 0 1 0 1.235-2.04 1.688 1.688 0 0 0-1.235 2.04z" transform="translate(-196.464 -91.93)" style="fill:#1a191f"/>
            </g>
            <path data-name="Path 91" d="M679.947 254.138a5.036 5.036 0 0 0 3.7 6.083 5.034 5.034 0 0 0 6.083-3.706l.376-1.545a5.034 5.034 0 0 0-3.7-6.083 5.038 5.038 0 0 0-6.083 3.706z" transform="translate(-203.583 -92.482)" style="fill:#c97440"/>
            <path data-name="Path 92" d="M678.93 240.254c1.183-3.374 6.952-17.091-1.628-17.5-.534-5.386-8.019-8.226-17.369-10.061s-15.181 2.546-14.471 6.924 6.452 5.976 11.007 4.675c1.3 4.734 7.574 3.135 8.937 2.19 1.05 4.586 6.257 5.7 5.667 8.891s-.858 6.45-.977 7.1 2.6 1.923 3.2.621 2.926-3.64 5.634-2.84z" transform="translate(-194.968 -83.345)" style="fill:#31241c"/>
        </g>
        <g data-name="Group 64">
            <path data-name="Path 93" d="M676.292 313.572c11.01-.436 22.81-7.442 25.154-18.821.1-.471-.626-.672-.723-.2-2.276 11.05-13.737 17.846-24.431 18.27-.482.019-.484.768 0 .75z" transform="translate(-202.613 -103.886)" style="fill:#1f0e03"/>
        </g>
        <g data-name="Group 65">
            <path data-name="Path 94" d="M664.141 319.846c2.008.071 4.018.111 6.027.156a.375.375 0 0 0 0-.75c-2.01-.045-4.019-.085-6.027-.156-.484-.018-.482.732 0 .75z" transform="translate(-199.57 -110.101)" style="fill:#1f0e03"/>
        </g>
        <g data-name="Group 66">
            <path data-name="Path 95" d="M535.615 336.236c3.775-3.4 7.564-6.775 11.112-10.411 1.642-1.682 3.106-3.877 5.088-5.209a7.83 7.83 0 0 1 4-.994c2.7-.156 5.419-.086 8.122-.123 4.9-.067 9.8-.329 14.705-.319 5.254.01 10.506.247 15.753.486 10.222.466 20.468.95 30.671-.1.476-.049.48-.8 0-.75-10.438 1.076-20.923.546-31.379.07-5.5-.25-11-.464-16.5-.454-4.91.008-9.817.284-14.727.337-3.347.037-8.01-.705-11.025 1.2-1.868 1.182-3.27 3.257-4.755 4.823-3.653 3.854-7.651 7.367-11.6 10.915-.36.323.172.852.53.53z" transform="translate(-167.31 -109.934)" style="fill:#1f0e03"/>
        </g>
    </g>
    <g data-name="Group 76">
        <path data-name="Rectangle 11" d="M20.829 0h134.935a20.829 20.829 0 0 1 20.829 20.829v4.1a20.83 20.83 0 0 1-20.83 20.83H20.829A20.829 20.829 0 0 1 0 24.93v-4.1A20.829 20.829 0 0 1 20.829 0z" style="fill:#f5cdb3" transform="translate(265.485 44.511)"/>
        <g data-name="Group 73">
            <g data-name="Group 68">
                <path data-name="Path 96" d="M427.718 113.955c.547-1.109 1.443-1.109 1.99 0l1.748 3.542a4.8 4.8 0 0 0 3.22 2.34l3.909.568c1.223.178 1.5 1.03.615 1.893l-2.827 2.755a4.8 4.8 0 0 0-1.23 3.786l.668 3.892c.209 1.219-.516 1.746-1.61 1.171l-3.5-1.839a4.8 4.8 0 0 0-3.981 0l-3.5 1.837c-1.094.576-1.819.049-1.609-1.17l.667-3.892a4.8 4.8 0 0 0-1.229-3.786l-2.827-2.755c-.885-.863-.609-1.715.615-1.893l3.907-.57a4.8 4.8 0 0 0 3.22-2.34z" transform="translate(-137.944 -58.518)" style="fill:#c97440"/>
            </g>
            <g data-name="Group 69">
                <path data-name="Path 97" d="M469.386 113.955c.548-1.109 1.443-1.109 1.991 0l1.746 3.542a4.8 4.8 0 0 0 3.22 2.34l3.908.568c1.223.178 1.5 1.03.615 1.893l-2.827 2.755a4.8 4.8 0 0 0-1.229 3.786l.667 3.892c.21 1.219-.515 1.746-1.609 1.17l-3.5-1.837a4.8 4.8 0 0 0-3.981 0l-3.5 1.839c-1.094.575-1.819.048-1.609-1.171l.667-3.892a4.8 4.8 0 0 0-1.229-3.786L459.9 122.3c-.885-.863-.609-1.715.615-1.893l3.907-.57a4.806 4.806 0 0 0 3.221-2.34z" transform="translate(-148.379 -58.518)" style="fill:#c97440"/>
            </g>
            <g data-name="Group 70">
                <path data-name="Path 98" d="M511.052 113.955c.548-1.109 1.444-1.109 1.991 0l1.747 3.542a4.8 4.8 0 0 0 3.22 2.34l3.908.568c1.223.178 1.5 1.03.615 1.893l-2.827 2.755a4.8 4.8 0 0 0-1.23 3.786l.668 3.892c.209 1.219-.516 1.746-1.61 1.17l-3.5-1.837a4.8 4.8 0 0 0-3.981 0l-3.494 1.837c-1.094.576-1.819.049-1.61-1.17l.666-3.892a4.8 4.8 0 0 0-1.23-3.786l-2.826-2.755c-.885-.863-.609-1.715.615-1.893l3.905-.568a4.81 4.81 0 0 0 3.22-2.341z" transform="translate(-158.814 -58.518)" style="fill:#c97440"/>
            </g>
            <g data-name="Group 71">
                <path data-name="Path 99" d="M552.72 113.955c.548-1.109 1.444-1.109 1.991 0l1.746 3.542a4.8 4.8 0 0 0 3.22 2.34l3.908.568c1.223.178 1.5 1.03.615 1.893l-2.827 2.755a4.8 4.8 0 0 0-1.229 3.786l.667 3.892c.21 1.219-.515 1.746-1.609 1.17l-3.5-1.837a4.8 4.8 0 0 0-3.981 0l-3.5 1.837c-1.094.576-1.819.049-1.61-1.17l.667-3.892a4.806 4.806 0 0 0-1.23-3.786l-2.818-2.753c-.885-.863-.609-1.715.615-1.893l3.907-.57a4.806 4.806 0 0 0 3.221-2.34z" transform="translate(-169.249 -58.518)" style="fill:#c97440"/>
            </g>
            <g data-name="Group 72">
                <path data-name="Path 100" d="M594.386 113.955c.548-1.109 1.444-1.109 1.992 0l1.748 3.542a4.8 4.8 0 0 0 3.221 2.34l3.907.568c1.224.178 1.5 1.03.615 1.893l-2.829 2.755a4.8 4.8 0 0 0-1.229 3.786l.667 3.892c.21 1.219-.515 1.746-1.609 1.171l-3.5-1.839a4.8 4.8 0 0 0-3.981 0L589.9 133.9c-1.094.576-1.819.049-1.61-1.17l.668-3.892a4.805 4.805 0 0 0-1.23-3.786L584.9 122.3c-.885-.863-.609-1.715.615-1.893l3.905-.568a4.81 4.81 0 0 0 3.221-2.341z" transform="translate(-179.684 -58.518)" style="fill:#c97440"/>
            </g>
        </g>
        <g data-name="Group 74">
            <path data-name="Path 101" d="M502.765 157.3c2.466-.029 4.928-.246 7.394-.274a.375.375 0 0 0 0-.75c-2.466.028-4.928.246-7.394.274a.375.375 0 0 0 0 .75z" transform="translate(-159.155 -69.325)" style="fill:#1f0e03"/>
        </g>
        <g data-name="Group 75">
            <path data-name="Path 102" d="M517.211 153.645c8.813-.2 17.627.195 26.439.052 4.4-.072 8.759-.483 13.147-.7 4.612-.226 9.235-.148 13.847-.029 4.407.113 8.811.285 13.219.35a40.23 40.23 0 0 0 9.122-.456c4.9-1.058 6.978-5.022 7.3-9.732.034-.483-.717-.48-.75 0-.181 2.614-.786 5.183-2.732 7.054-1.77 1.7-4.436 2.162-6.783 2.346a102.184 102.184 0 0 1-10.575-.054c-4.154-.106-8.307-.266-12.463-.339-8.3-.145-16.519.723-24.805.829-8.324.107-16.646-.26-24.97-.073a.375.375 0 0 0 0 .75z" transform="translate(-162.772 -65.941)" style="fill:#1f0e03"/>
        </g>
    </g>
    <g data-name="Group 79">
        <path data-name="Rectangle 12" d="M20.828 0h51.251a20.829 20.829 0 0 1 20.829 20.829v7.73a20.829 20.829 0 0 1-20.829 20.829h-51.25A20.829 20.829 0 0 1 0 28.559v-7.731A20.828 20.828 0 0 1 20.828 0z" style="fill:#f5cdb3" transform="translate(0 153.087)"/>
        <text data-name="24/7" transform="translate(17.532 183.359)" style="font-size:22px;font-family:Raleway-Bold,Raleway;font-weight:700;fill:#c97440"><tspan x="0" y="0">24/7</tspan></text>
        <g data-name="Group 77">
            <path data-name="Path 103" d="M115.741 305.257c10.689-2.617 22.6 2.642 32.342-3.94.4-.269.024-.919-.379-.648-9.621 6.5-21.571 1.271-32.162 3.865-.47.115-.271.838.2.723z" transform="translate(-62.204 -105.469)" style="fill:#1f0e03"/>
        </g>
        <g data-name="Group 78">
            <path data-name="Path 104" d="M163.22 269.759c.166 1.612.085 3.223.3 4.832a37.84 37.84 0 0 1 .51 5.548c-.035 3.566-.336 7.361-2.407 10.385-.274.4.376.774.648.378 1.819-2.657 2.279-5.854 2.456-9a25.507 25.507 0 0 0-.094-4.908c-.335-2.42-.42-4.812-.668-7.23-.049-.476-.8-.481-.75 0z" transform="translate(-73.796 -97.655)" style="fill:#1f0e03"/>
        </g>
    </g>
</svg>
