<?xml version="1.0" encoding="UTF-8"?>
<!DOCTYPE svg PUBLIC "-//W3C//DTD SVG 1.1//EN" "http://www.w3.org/Graphics/SVG/1.1/DTD/svg11.dtd">
<!-- Creator: CorelDRAW 2020 (64-Bit) -->
<svg xmlns="http://www.w3.org/2000/svg" xml:space="preserve" width="121.306mm" height="120.909mm" version="1.1" style="shape-rendering:geometricPrecision; text-rendering:geometricPrecision; image-rendering:optimizeQuality; fill-rule:evenodd; clip-rule:evenodd"
viewBox="0 0 12130.58 12090.86"
 xmlns:xlink="http://www.w3.org/1999/xlink"
 xmlns:xodm="http://www.corel.com/coreldraw/odm/2003">
 <defs>
  <style type="text/css">
   <![CDATA[
    .fil1 {fill:#FEFEFE}
    .fil2 {fill:#2B2A29}
    .fil3 {fill:black}
    .fil4 {fill:white}
    .fil0 {fill:url(#id3)}
   ]]>
  </style>
     <clipPath id="id0">
      <rect x="1033.09" y="1834.38" width="10084.33" height="5385.01"/>
     </clipPath>
     <clipPath id="id1">
      <rect x="993.78" y="1834.47" width="10162.86" height="5384.69"/>
     </clipPath>
    <clipPath id="id2">
     <rect x="2181.54" y="8792.85" width="7347.76" height="1738.59"/>
    </clipPath>
  <linearGradient id="id3" gradientUnits="userSpaceOnUse" x1="6064.83" y1="12091.78" x2="6064.83" y2="0.15">
   <stop offset="0" style="stop-opacity:1; stop-color:#615F5F"/>
   <stop offset="0.121569" style="stop-opacity:1; stop-color:#888584"/>
   <stop offset="0.270588" style="stop-opacity:1; stop-color:#61605F"/>
   <stop offset="0.439216" style="stop-opacity:1; stop-color:#FEFEFE"/>
   <stop offset="0.619608" style="stop-opacity:1; stop-color:#1F1C1F"/>
   <stop offset="0.858824" style="stop-opacity:1; stop-color:#FEFEFE"/>
   <stop offset="1" style="stop-opacity:1; stop-color:#4C4949"/>
  </linearGradient>
 </defs>
 <g id="Layer_x0020_1">
  <metadata id="CorelCorpID_0Corel-Layer"/>
  <g id="_1912247221472">
   <path class="fil0" d="M6065.29 0c3349.79,0 6065.29,2706.53 6065.29,6045.35 0,3338.83 -2715.5,6045.51 -6065.29,6045.51 -3349.79,0 -6065.29,-2706.68 -6065.29,-6045.51 0,-3338.82 2715.5,-6045.35 6065.29,-6045.35l0 0z"/>
   <path class="fil1" d="M6065.29 564.51c3037.02,0 5498.94,2453.87 5498.94,5480.92 0,3027.05 -2461.92,5481.07 -5498.94,5481.07 -3037.02,0 -5498.94,-2454.02 -5498.94,-5481.07 0,-3027.05 2461.92,-5480.92 5498.94,-5480.92z"/>
   <path class="fil2" d="M6065.29 564.51c3037.02,0 5498.94,2331.26 5498.94,5207.18 0,2875.83 -2461.92,5207.17 -5498.94,5207.17 -3037.02,0 -5498.94,-2331.34 -5498.94,-5207.17 0,-2875.92 2461.92,-5207.18 5498.94,-5207.18z"/>
   <g>
    <image x="228.5" y="250.66" width="11317.56" height="7283.1" xlink:href="One Million_Images\One Million_ImgID1.png"/>
   </g>
   <path class="fil3" d="M6022.97 11603.56c484.72,0 868.21,-40.06 1329.3,-147.75 384.92,-89.9 674.12,-196.17 1027.41,-350.99 308.36,-135.13 603.23,-316.67 874.31,-499.89 246.26,-166.45 545.96,-424.53 749.92,-628.49l248.21 -264.54c25.76,-32.01 52.9,-60.41 79.4,-93 210.8,-259.17 400.69,-515.35 566.65,-811.78 79.62,-142.2 164.79,-296.63 234.12,-454.91 141.54,-323.13 263.96,-650.2 350.21,-1024.1 107.78,-467.23 148.52,-841.76 148.53,-1332.6 0.01,-953.5 -285.42,-1935.38 -727.15,-2698.44 -142.14,-245.52 -241.94,-390.47 -409.06,-616.45 -49.85,-67.4 -101.76,-128.26 -152.75,-191.94l-118.43 -135.81c-7.57,-8.33 -10.87,-14.25 -18.38,-22.83l-362.66 -367.4c-8.16,-7.29 -13.91,-11.53 -22.44,-18.73 -9.71,-8.18 -13.22,-13.59 -22.6,-22.38l-230.77 -195.96c-31.76,-26.36 -63.02,-49.84 -96.32,-76.06 -90.22,-71.04 -200.05,-149.78 -297.6,-215.14 -113.5,-76.05 -197.97,-126.99 -318.38,-198.61 -113.39,-67.44 -329.31,-181.62 -450.72,-234.31 -160.92,-69.83 -315.91,-138.96 -487.58,-197.56 -548.25,-187.15 -1153.71,-311.86 -1745.53,-311.84l-188.72 0.01c-754.68,0.03 -1580.88,203.68 -2244.96,513.82 -681.39,318.22 -1195.72,716.24 -1620.06,1141.01 -30,30.04 -54.91,57.61 -83.28,89.09 -23.65,26.25 -61.4,61.22 -83.39,88.83 -7.91,9.93 -9.49,11.46 -19.62,21.38l-100.92 116.62c-92.75,106.37 -179.97,225.1 -264.53,338.46 -208.83,279.98 -424.46,668.46 -566.53,984.13 -301.15,669.09 -481.41,1454.19 -479.14,2283.95 4.72,1727.73 789.83,3070.57 1619.95,3899.92l359.2 330.1c291.39,234.46 459.86,367.28 810.48,567.89 139.85,80.01 298.08,166.19 454.81,234.39 370.7,161.3 622.67,255.25 1025.77,352.36 381.48,91.91 824.22,149.56 1233.25,149.55z"/>
   <path class="fil4" d="M7292.49 3639.05l0 18.17c0,413.98 481.4,665.98 826.97,426.36 13.2,-9.14 26.34,-18.4 37.1,-27.82l33.5 -31.42c30.62,-30.52 34.16,-35.15 60.4,-69.45 67.84,-88.7 97.68,-201.51 97.68,-318.44 0,-130.52 -62.2,-269.34 -152.22,-360 -39.5,-39.79 -97.55,-80.91 -151.02,-105.98 -170.88,-80.11 -376.67,-62.82 -529.15,47.12 -21.05,15.17 -54.66,41.7 -71.01,58.87 -72.96,76.61 -152.25,204.69 -152.25,362.59z"/>
   <path class="fil4" d="M4426.35 3123.52c-274.41,29.19 -501.09,268.5 -472.01,577.67 25.65,272.64 270.34,501.54 576.42,472.73 272.6,-25.67 505.21,-269.83 474.13,-577.77 -8.11,-80.37 -30.05,-138.92 -61.85,-200.62 -16.06,-31.15 -34.75,-54.98 -53.05,-79.49 -24.77,-33.19 -68.23,-71.01 -101.38,-95.89 -98.17,-73.68 -236.99,-109.96 -362.26,-96.63z"/>
   <g>
    <g style="clip-path:url(#id0)">
     <image x="1033.09" y="1832.85" width="10087.18" height="5386.54" xlink:href="One Million_Images\One Million_ImgID2.png"/>
    </g>
    <g style="clip-path:url(#id1)">
     <image x="993.78" y="1832.94" width="10165.73" height="5386.22" xlink:href="One Million_Images\One Million_ImgID3.png"/>
    </g>
   </g>
   <g>
    <path class="fil4" d="M8219.06 7247.51c-2.3,11.91 -4.74,23.73 -7.31,35.46 2.38,-12.73 5.97,-30.83 9.92,-49.58 -0.41,2.02 -0.77,3.99 -1.09,5.89 0.45,-2.33 0.93,-4.84 1.42,-7.44 0,0 0,0 0,0 -0.05,0.24 -0.1,0.48 -0.15,0.72 0.05,-0.24 0.1,-0.48 0.15,-0.72 -0.55,3.01 -1.1,6.01 -1.67,9 0.08,-0.52 0.17,-1.04 0.25,-1.56 -0.56,2.96 -1.08,5.7 -1.52,8.23zm0 0c0.43,-2.22 0.85,-4.44 1.27,-6.67 -29.24,188.16 407.99,-196.87 201.28,357.52 -44.3,106.77 -114.76,241.08 -184.46,336.14 -128,174.8 -181.46,231.62 -335.33,370.78 -29.22,26.36 -101.18,84.85 -130.12,104.94 -7.37,5.1 -12.29,10.29 -19.93,15.39l-58.92 41.67c-136.88,89.88 -200.51,126.36 -354.52,201 -121.65,58.92 -267.13,111.05 -412.41,152.39 -324,92.21 -689.5,126.6 -1056.99,95.98 -481.02,-40.25 -926.74,-203.26 -1271.36,-433.55 -81.85,-54.64 -183.1,-130.29 -250.75,-193.63l-51.82 -47.28c-12.28,-12.05 -22.73,-21.51 -34.68,-33.47l-97.07 -103.77c-282.09,-324.67 -274.99,-310.95 -374.73,-729.52 -0.61,-42.17 -38.98,-42.93 -12.42,-68.87 2.25,-2.2 3.77,-3.82 4.77,-4.99 -0.76,3.15 2.01,7.83 24.92,5.16 114.82,115.96 248.94,-17.64 234.23,-107.92 0.54,0.89 0.71,0.71 1.09,11.35 59.81,294.98 69.98,325.1 210.27,546.85 35.43,56.07 71.89,104.27 110.87,153.89 82.12,104.77 140.08,154.81 231.91,238.49 42.12,38.49 142.54,113.05 193.54,146.77 54.2,35.98 111.21,70.13 173.19,103.85 410.43,223.09 917.8,323.75 1434.04,273.55 706.72,-68.79 1217.29,-409.03 1491.6,-740.74 149.08,-180.23 269.21,-394.46 325.22,-649.85 -5.15,26.64 -5.16,29.53 7.31,-35.46zm2.62 -14.12c0.05,-0.28 0.11,-0.56 0.17,-0.84 -0.06,0.29 -0.12,0.56 -0.17,0.84zm-4181.66 -34.58c-0.42,-0.7 -1.08,-2.05 -2.25,-9.82 0.96,3.2 1.71,6.48 2.25,9.82zm-259.15 102.76c0.6,-2.54 3.49,-4.08 0,0zm45.49 68.37l4.61 19.35c45.59,191.47 68.41,287.28 110.33,368.88 42.07,81.93 106.63,156.21 235.76,304.78l14.91 17.15 -0.03 0.03 95.27 101.85 0.05 -0.05c6.13,6.14 12.24,11.94 18.44,17.83 4.71,4.48 9.49,9.04 14.89,14.31l0.01 -0.01 51.82 47.28 0.3 0.45c30.33,28.4 68.52,60 108.99,91.25 45.9,35.46 94.2,69.94 136.99,98.51 173.47,115.92 373.24,214.61 590.59,288.73 207.48,70.75 430.94,119.02 662.77,138.42 181.15,15.09 361.34,14.29 535.73,-1.55 175.94,-15.97 346.84,-47.31 507.71,-93.09 74.11,-21.09 148.16,-44.98 218.83,-71.08 66.46,-24.56 129.89,-51.04 187.48,-78.93 76.39,-37.02 130.19,-64.48 181.45,-93.59 51.71,-29.37 100.97,-60.38 167.75,-104.23l-0.04 -0.06 58.92 -41.67 0.75 -0.44c1.73,-1.16 4.58,-3.51 7.4,-5.85l0.07 0.09c3.74,-3.11 7.53,-6.23 12.01,-9.33 12.89,-8.95 36.02,-26.95 59.88,-46.19 25.32,-20.43 51.34,-42.22 66.37,-55.78l0.07 0.08c75.5,-68.27 126.49,-116.48 174.62,-169.42 47.66,-52.42 92.33,-109.45 155.43,-195.63 31.98,-43.62 64.36,-96.19 94.22,-150.61 33.14,-60.41 63.02,-122.8 85.78,-177.65l0.04 0.02c70.66,-189.89 64.69,-248.8 33.69,-260.35 -20,-7.45 -55.79,-1.14 -89.07,4.73 -31.63,5.57 -61.56,10.85 -87.65,6.39 -16.45,159.54 -47.87,251.31 -71.53,270.81 -7.08,15.36 -11.95,15.73 -14.71,1.99 -3.6,-2.61 -6.73,-7.88 -9.24,-15.83 -6.16,13.42 -12.51,26.7 -19.02,39.85 -59.15,119.43 -132.01,227.62 -213.15,325.7 -152.29,184.15 -375.84,370.84 -663.94,513.9 -240.5,119.44 -526.27,208.54 -853.41,240.38 -260.07,25.28 -517.88,12.84 -762.45,-33.81 -248.29,-47.36 -483.22,-130 -693.32,-244.2 -31.62,-17.2 -61.84,-34.44 -90.85,-51.83 -29.72,-17.81 -58.04,-35.66 -85.16,-53.66 -27.11,-17.92 -69.21,-48.16 -109.55,-78.76 -34.81,-26.4 -68.02,-52.93 -88.54,-71.66l-0.07 0.08 -21.49 -19.55c-80.96,-73.57 -136.88,-124.39 -214.66,-223.61l-0.07 0.05c-18.54,-23.6 -37.19,-47.83 -57.52,-75.72 -19.22,-26.37 -37.76,-53.21 -55.59,-81.44 -71.6,-113.16 -110.07,-177.64 -138.74,-252.66 -20.16,-52.79 -35.01,-109.92 -52.85,-192.51 -10.9,11.62 -23.22,22.04 -36.6,30.67 -26.42,17.02 -57.32,27.43 -90.36,27.07 -24.46,-0.27 -49.59,-6.35 -74.32,-19.88z"/>
   </g>
   <g style="clip-path:url(#id2)">
    <image x="2181.54" y="8792.85" width="7347.75" height="1738.59" xlink:href="One Million_Images\One Million_ImgID4.png"/>
   </g>
  </g>
 </g>
</svg>
