<svg xmlns="http://www.w3.org/2000/svg" width="84.82" height="45.646" viewBox="0 0 84.82 45.646">
    <defs>
        <linearGradient id="si56qcl09a" y1=".5" x2="1" y2=".5" gradientUnits="objectBoundingBox">
            <stop offset="0" stop-color="#192841"/>
            <stop offset="1" stop-color="#305ba2"/>
        </linearGradient>
    </defs>
    <path data-name="password_FILL0_wght400_GRAD0_opsz48 (1)" d="M8.747 59.967a2.728 2.728 0 0 1-2.072-.867 2.973 2.973 0 0 1-.819-2.121 2.728 2.728 0 0 1 .867-2.072 2.973 2.973 0 0 1 2.121-.819h71.23a2.8 2.8 0 0 1 2.892 2.892 2.962 2.962 0 0 1-2.988 2.988zm-1.06-25.542a2.463 2.463 0 0 1-1.06-1.349 1.849 1.849 0 0 1 .193-1.639l2.7-4.627h-5.4a2.04 2.04 0 0 1-1.494-.627A2.155 2.155 0 0 1 2 24.593a2.04 2.04 0 0 1 .627-1.493 2.155 2.155 0 0 1 1.59-.627h5.3l-2.7-4.627a1.972 1.972 0 0 1-.241-1.639 2.252 2.252 0 0 1 1.014-1.349 1.849 1.849 0 0 1 1.639-.193 2.463 2.463 0 0 1 1.349 1.06l2.6 4.53 2.6-4.53a1.987 1.987 0 0 1 1.349-1.157 2.117 2.117 0 0 1 1.639.289 2.252 2.252 0 0 1 1.012 1.349 1.972 1.972 0 0 1-.241 1.639l-2.7 4.627h5.4a2.139 2.139 0 0 1 2.121 2.121 2.155 2.155 0 0 1-.627 1.59 2.04 2.04 0 0 1-1.494.627h-5.4l2.7 4.627a2.064 2.064 0 0 1 .241 1.687 1.918 1.918 0 0 1-1.012 1.3 1.849 1.849 0 0 1-1.639.193 2.463 2.463 0 0 1-1.349-1.06l-2.6-4.53-2.6 4.53a1.984 1.984 0 0 1-1.3 1.157 2.026 2.026 0 0 1-1.591-.289zm31.133-.1a2.263 2.263 0 0 1-1.012-1.4 2.064 2.064 0 0 1 .241-1.687l2.7-4.627h-5.4a2.04 2.04 0 0 1-1.494-.627 2.155 2.155 0 0 1-.627-1.59 2.04 2.04 0 0 1 .627-1.494 2.155 2.155 0 0 1 1.59-.627h5.3l-2.7-4.627a1.972 1.972 0 0 1-.241-1.639 2.252 2.252 0 0 1 1.012-1.349 1.849 1.849 0 0 1 1.639-.193 2.463 2.463 0 0 1 1.349 1.06l2.6 4.53 2.6-4.53a1.984 1.984 0 0 1 1.3-1.157 2.026 2.026 0 0 1 1.59.289 2.463 2.463 0 0 1 1.06 1.349 1.849 1.849 0 0 1-.193 1.639l-2.7 4.627h5.4a2.139 2.139 0 0 1 2.13 2.128 2.155 2.155 0 0 1-.627 1.59 2.04 2.04 0 0 1-1.494.627h-5.4l2.7 4.627a2.158 2.158 0 0 1 .241 1.735A1.938 1.938 0 0 1 50 34.329a2.064 2.064 0 0 1-1.687.241 2.187 2.187 0 0 1-1.4-1.108l-2.503-4.435-2.51 4.434a2.462 2.462 0 0 1-1.4 1.06 1.939 1.939 0 0 1-1.687-.193zm31.229 0a2.263 2.263 0 0 1-1.012-1.4 2.064 2.064 0 0 1 .241-1.687l2.7-4.627h-5.4a2.04 2.04 0 0 1-1.494-.627 2.155 2.155 0 0 1-.627-1.59 2.04 2.04 0 0 1 .627-1.494 2.155 2.155 0 0 1 1.59-.627h5.3l-2.7-4.627a1.972 1.972 0 0 1-.241-1.639 2.252 2.252 0 0 1 1.012-1.349 1.849 1.849 0 0 1 1.639-.193 2.463 2.463 0 0 1 1.349 1.06l2.6 4.53 2.6-4.53a1.987 1.987 0 0 1 1.253-1.157 2.21 2.21 0 0 1 1.639.289 2.463 2.463 0 0 1 1.06 1.349A1.849 1.849 0 0 1 82 17.654l-2.7 4.626h5.4a2.139 2.139 0 0 1 2.12 2.12 2.155 2.155 0 0 1-.627 1.59 2.04 2.04 0 0 1-1.494.627H79.3l2.7 4.627a2.158 2.158 0 0 1 .241 1.735 1.938 1.938 0 0 1-1.012 1.349 2.064 2.064 0 0 1-1.687.241 2.187 2.187 0 0 1-1.4-1.108l-2.506-4.434-2.506 4.434a2.462 2.462 0 0 1-1.4 1.06 1.939 1.939 0 0 1-1.687-.193z" transform="translate(-2 -14.321)" style="fill:url(#si56qcl09a)"/>
</svg>
