<svg xmlns="http://www.w3.org/2000/svg" width="407.089" height="306.075" viewBox="0 0 407.089 306.075">
    <g data-name="Group 172">
        <path data-name="Path 325" d="M102.058 361.8s-50.693-36.1-65.286-97.546S44.452 128.3 86.7 90.666s118.284-12.289 152.08 19.2l33.795 31.491s32.26 17.665 74.5 16.129 79.88 56.07 89.866 101.386S423.115 364.1 423.115 364.1z" transform="translate(-32.299 -71.853)" style="fill:#ddecff"/>
        <path data-name="Path 326" d="M79.078 371.186s-35.332-19.2-44.549-63.75S65.252 222.178 69.093 199.9s-4.608-49.925 30.724-71.431 98.314-13.826 122.124-19.2 51.461-42.244 99.082-33.8 93.706 33.8 96.011 89.1-15.362 56.838 2.3 86.794 24.579 50.693 16.13 81.416-26.115 39.172-26.115 39.172z" transform="translate(-32.36 -72.023)" style="mix-blend-mode:multiply;isolation:isolate;fill:#ddecff"/>
        <path data-name="Path 327" d="M160.931 370.111c-2.2-2.3-34.432-66.823 1.465-125.965s126.01-52.228 161.904-29.186 53.482 53 57.144 84.489-20.509 80.651-20.509 80.651z" transform="translate(-40.441 -80.934)" style="mix-blend-mode:multiply;isolation:isolate;fill:#ddecff"/>
        <g data-name="Group 162">
            <g data-name="Group 1" transform="translate(327.194 150.603)">
                <rect data-name="Rectangle 2" width="50.693" height="29.955" rx="5" style="fill:#60a8ff"/>
                <path data-name="Path 4" d="m411.645 277.816 6.563-15.554h-13.126z" transform="translate(-386.298 -236.147)" style="fill:#60a8ff"/>
            </g>
            <g data-name="Group 6">
                <g data-name="Group 4">
                    <g data-name="Group 2">
                        <path data-name="Path 5" d="M411.984 244.335h11.855v1.734l5.812-3.351-5.812-3.35v1.732h-11.855z" transform="translate(-59.601 -83.897)" style="fill:#223a7a"/>
                    </g>
                    <g data-name="Group 3">
                        <path data-name="Path 6" d="M429.65 251.93H417.8v-1.73l-5.812 3.351 5.812 3.35v-1.734h11.85z" transform="translate(-59.601 -84.676)" style="fill:#fff"/>
                    </g>
                </g>
                <g data-name="Group 5">
                    <path data-name="Path 7" d="m403.486 254.186-.564.205a17.934 17.934 0 0 1-2.672-4.195 15.053 15.053 0 0 1-.945-4.859l.412-.172-2.506-6a4.914 4.914 0 0 0-1.218 1.38c-1.419 2.4-1.278 6.076.149 9.67s2.952 6.8 5.736 8.816a5.5 5.5 0 0 0 4.144 1.225z" transform="translate(-58.379 -83.883)" style="fill:#223a7a"/>
                    <path data-name="Path 8" d="m406.023 254.582-.779.283 2.566 6.142a4.586 4.586 0 0 0 .775-.335 1.494 1.494 0 0 0 .675-1.862l-1.34-3.377a1.492 1.492 0 0 0-1.897-.851z" transform="translate(-59.116 -84.985)" style="fill:#223a7a"/>
                    <path data-name="Path 9" d="M399.416 238.026a5.935 5.935 0 0 0-1.005.472l2.56 6.126.862-.36a1.492 1.492 0 0 0 .815-1.918l-1.346-3.454a1.488 1.488 0 0 0-1.886-.866z" transform="translate(-58.625 -83.795)" style="fill:#223a7a"/>
                </g>
            </g>
        </g>
        <g data-name="Group 163">
            <path data-name="Path 10" d="M149.221 364.794v-69.128s-.768-18.626 9.025-24 51.078-2.5 51.078-2.5v95.625z" transform="translate(-40.705 -85.985)" style="fill:#1c83ff"/>
        </g>
        <g data-name="Group 164">
            <g data-name="Group 9">
                <path data-name="Path 11" d="M227.163 199.5s-2.5 20.929-3.456 22.658l-.96 1.728-4.8 3.265s9.217 13.056 20.546 15.169 10.369-4.608 10.369-4.608l-1.728-3.648 2.3-19.97s-20.543-9.406-22.271-14.594z" transform="translate(-45.648 -81.032)" style="fill:#ff9d8c"/>
            </g>
            <path data-name="Path 12" d="m211.532 230.906 7.489-3.265s4.8 7.873 15.938 12.482 11.329 1.92 11.9 0a7.3 7.3 0 0 0-.192-4.033l.824-6.723 4.454 1.484L267.41 355.91l-39.748 1.92z" transform="translate(-45.187 -83.055)" style="fill:#fff"/>
            <g data-name="Group 10">
                <path data-name="Path 13" d="M251.05 229.641s2.688 6.209 5.184 20.8 4.8 39.172 5.376 56.07.96 55.494.96 55.494h50.117c.576 0 4.033-19.01 4.033-19.01s-21.89-18.754-23.042-21.826c-.768-2.048-.384-40-3.648-57.478s-7.489-20.994-16.322-25.346c-9.129-4.497-22.658-8.704-22.658-8.704z" transform="translate(-48.028 -83.199)" style="fill:#223a7a"/>
            </g>
            <g data-name="Group 11">
                <path data-name="Path 14" d="M279.077 342.324a.464.464 0 0 1-.464-.464c0-1.373-.244-20.878-.48-39.742s-.48-38.375-.48-39.754a.464.464 0 1 1 .928 0c0 1.373.244 20.878.479 39.742s.481 38.375.481 39.754a.464.464 0 0 1-.464.464z" transform="translate(-49.941 -85.518)" style="fill:#8593b6"/>
            </g>
            <g data-name="Group 12">
                <path data-name="Path 15" d="m171.571 343.5-.384 26.69h58.374s2.5-22.659 1.536-24.771-59.526-1.919-59.526-1.919z" transform="translate(-42.286 -91.386)" style="fill:#223a7a"/>
            </g>
            <g data-name="Group 13" style="mix-blend-mode:multiply;isolation:isolate">
                <path data-name="Path 16" d="M240.738 221.762a30.51 30.51 0 0 0 8.167 4.386l1.37-11.875s-15.433-7.07-20.67-12.33c1.095 5.976 3.787 13.895 11.133 19.819z" transform="translate(-46.486 -81.207)" style="fill:#8e9bbb"/>
            </g>
            <g data-name="Group 14">
                <path data-name="Path 17" d="M267.942 157.171a41.552 41.552 0 0 1 4.8 15.361c.768 8.449 0 30.147-6.912 39.364s-21.315 6.529-27.843.961c-5.992-5.111-11.906-10.754-13.442-21.891s3.264-32.259 16.9-36.676 26.497 2.881 26.497 2.881z" transform="translate(-46.103 -77.679)" style="fill:#ff9d8c"/>
            </g>
            <g data-name="Group 22">
                <g data-name="Group 15">
                    <path data-name="Path 18" d="M286.075 358s-.677 0-1.708-.028c-.241-.009-.51 0-.789-.009-.993-.028-2.2-.056-3.415-.093l-.817-.028c-1.207-.028-2.237.121-3.2.065h-.028c-.2-.009-.5.019-.743.028a1.808 1.808 0 0 1-.306.009 4.511 4.511 0 0 1-1.271-.5 86.332 86.332 0 0 0-19.917-2.654c-8.576.037-16.27.622-17.522-.427-1.262-1.067-2.023-11.842 5.3-12.548l9 3.415s20.557-2.441 28.093 3.118c7.555 5.56 7.323 9.652 7.323 9.652z" transform="translate(-46.913 -91.265)" style="fill:#ff9d8c"/>
                </g>
                <g data-name="Group 17">
                    <g data-name="Group 16">
                        <path data-name="Path 19" d="M278.349 358.682c-.2-.009-.5.019-.743.028a8.706 8.706 0 0 0-.789-1.058c-2.32-2.367-7.926-3.9-9.958-4.39a.349.349 0 0 1-.26-.418.357.357 0 0 1 .427-.26c2.961.715 9.244 2.543 11.026 5.541.056.084.204.375.297.557z" transform="translate(-49.145 -92.039)" style="fill:#223a7a"/>
                    </g>
                </g>
                <g data-name="Group 19">
                    <g data-name="Group 18">
                        <path data-name="Path 20" d="M282.6 358.463a22.16 22.16 0 0 1-.816-.029c-2.534-4.62-6.679-5.946-11.8-7.594l-.3-.1a.357.357 0 0 1-.222-.442.352.352 0 0 1 .442-.222l.3.1c5.41 1.739 9.767 3.136 12.396 8.287z" transform="translate(-49.35 -91.858)" style="fill:#223a7a"/>
                    </g>
                </g>
                <g data-name="Group 21">
                    <g data-name="Group 20">
                        <path data-name="Path 21" d="M287.033 358.4c-.241-.006-.51 0-.789-.01a20.242 20.242 0 0 0-13.351-9.9.348.348 0 0 1-.287-.406.359.359 0 0 1 .406-.278c6.932 1.309 12.522 6.968 14.021 10.594z" transform="translate(-49.577 -91.695)" style="fill:#223a7a"/>
                    </g>
                </g>
            </g>
            <g data-name="Group 23">
                <path data-name="Path 22" d="M228.459 180.376a17.974 17.974 0 0 0 7.2-7.681 21.85 21.85 0 0 0 2.592-10.753s5.376-.864 13.442 1.536 17.665 5.664 25.73 1.056 8.065-12 4.128-15.074c-4.408-3.44-13.153-1.344-13.153-1.344s3.36-3.264 1.536-5.184-8.448.576-8.448.576-8.065-6.433-23.33-5.665-22.563 11.426-23.427 23.33 3.456 23.81 3.456 23.81z" transform="translate(-45.408 -76.593)" style="fill:#223a7a"/>
            </g>
            <g data-name="Group 25" style="mix-blend-mode:multiply;isolation:isolate">
                <g data-name="Group 24">
                    <path data-name="Path 23" d="M262.6 186.767c-.865 2.133-.844 4.609-1.062 6.873-.17 1.761-.493 3.814 1.12 5 .771.568 4.416 2.1 2.541 3.34a4.927 4.927 0 0 1-2.726.306c-.561-.026-1.127-.05-1.686-.092-.6-.045-1.193-.226-1.795-.229a.351.351 0 0 0-.175.649 7.58 7.58 0 0 0 3.521.838 5.325 5.325 0 0 0 2.915-.513 2.087 2.087 0 0 0 1.331-1.494 2.382 2.382 0 0 0-1.146-2.056c-.727-.538-1.617-.789-2.35-1.313-1.017-.729-.934-1.955-.862-3.089.172-2.73.8-5.414 1.044-8.131.037-.416-.538-.416-.67-.091z" transform="translate(-48.574 -80.099)" style="fill:#8e9bbb"/>
                </g>
            </g>
            <g data-name="Group 26">
                <path data-name="Path 24" d="M271.027 193.407c-.287 1.619-1.464 2.763-2.63 2.557s-1.879-1.685-1.593-3.3 1.464-2.764 2.63-2.558 1.88 1.682 1.593 3.301z" transform="translate(-49.157 -80.354)" style="fill:#223a7a"/>
            </g>
            <g data-name="Group 27">
                <path data-name="Path 25" d="M255.171 192.01c-.26 1.747-1.491 3.01-2.748 2.823s-2.068-1.755-1.808-3.5 1.491-3.01 2.749-2.823 2.067 1.755 1.807 3.5z" transform="translate(-47.994 -80.24)" style="fill:#223a7a"/>
            </g>
            <g data-name="Group 29">
                <g data-name="Group 28">
                    <path data-name="Path 26" d="M267.623 186.3c.9.151 1.8 0 2.707.06.218.016.433.047.65.068.154.015-.288-.045-.073-.009l.139.022c.113.02.226.044.338.071.193.047.38.12.573.162a2.2 2.2 0 0 0 .547.071l.3-.04-.187.033a1.789 1.789 0 0 0 .368-.039 1 1 0 0 0 .689-1.213 1.158 1.158 0 0 0-.2-.392c-.038-.05-.077-.1-.117-.149l.109.124a2.625 2.625 0 0 0-.12-.158.579.579 0 0 0-.205-.205c-.072-.056-.143-.113-.217-.165a2.639 2.639 0 0 0-.833-.334 6.777 6.777 0 0 0-1.65-.212 11.469 11.469 0 0 0-1.633.13 3.14 3.14 0 0 0-1.4.518.926.926 0 0 0-.432.9.891.891 0 0 0 .65.754z" transform="translate(-49.172 -79.917)" style="fill:#223a7a"/>
                </g>
            </g>
            <g data-name="Group 31">
                <g data-name="Group 30">
                    <path data-name="Path 27" d="M256 183.626a3.775 3.775 0 0 0-.375-.194c-.11-.05-.407-.205-.182-.083-.082-.045-.163-.09-.246-.132a5.614 5.614 0 0 0-1.16-.415 7.7 7.7 0 0 0-2.7-.186 6.278 6.278 0 0 0-2.665.833 1.7 1.7 0 0 0-.335.238c-.066.084-.131.168-.194.253l.055-.084a.944.944 0 0 0-.4.782.78.78 0 0 0 .415.691 1.176 1.176 0 0 0 .933.008h-.485a1.742 1.742 0 0 0 .723-.007c.01 0 .259-.064.095-.03s.262-.032.307-.038.342-.036.036-.007l.168-.019c.146-.019.29-.036.435-.047a40.283 40.283 0 0 1 1.9-.1c.589-.019 1.19-.024 1.778 0 .252.01.5.02.756.026.143 0 .082.026-.015 0 .051.017.106.026.158.041.1.029.208.063.31.1a.884.884 0 0 0 1.052-.517.9.9 0 0 0-.365-1.114z" transform="translate(-47.795 -79.815)" style="fill:#223a7a"/>
                </g>
            </g>
            <g data-name="Group 32">
                <path data-name="Path 28" d="M260.964 212.137a8.684 8.684 0 0 1 4.338-3.905c-1.609-.163-9.2-.867-11.121.222-2.148 1.219.4 6.114 4.837 6.36a6.069 6.069 0 0 0 1.295-.075 6.411 6.411 0 0 1 .651-2.602z" transform="translate(-48.197 -81.633)" style="fill:#223a7a"/>
            </g>
            <g data-name="Group 33">
                <path data-name="Path 29" d="M223.739 201.306s.768 2.976 5.184 6.434a51.2 51.2 0 0 0 10.818 5.984l.511-2.24s-6.625-2.88-9.7-6.048-3.456-4.9-3.456-4.9z" transform="translate(-46.064 -81.106)" style="fill:#dee1eb"/>
            </g>
            <g data-name="Group 34">
                <path data-name="Path 30" d="M242.125 210.545a5.552 5.552 0 0 1 5.786 4.463c.248 1.818-1.46 3.856-5.455 2.066-4.963-2.224-3.885-6.363-.331-6.529z" transform="translate(-47.168 -81.825)" style="fill:#223a7a"/>
            </g>
            <g data-name="Group 35">
                <path data-name="Path 31" d="M226.122 174.856s1.535-11.035 8.929-18.53c14.114-14.3 26.115-13.441 26.115-13.441s-.1-2.017-4.609-3.553c-4.237-1.442-6.144-.672-6.144-.672s-11.618.96-21.41 11.809-10.849 24.674-10.849 24.674z" transform="translate(-45.663 -76.642)" style="fill:#dee1eb"/>
            </g>
            <g data-name="Group 38">
                <g data-name="Group 36">
                    <path data-name="Path 32" d="M224.454 176.211c-9.246-1.568-14.4 5.664-14.786 12.961s4.918 12.844 12 12.29c15.94-1.248 14.115-23.331 2.786-25.251z" transform="translate(-45.051 -79.341)" style="fill:#fff"/>
                </g>
                <g data-name="Group 37">
                    <path data-name="Path 33" d="M220.133 194.68a6.3 6.3 0 0 1-5.683-3.387 7.021 7.021 0 0 1 .27-7.256.348.348 0 1 1 .575.392 6.321 6.321 0 0 0-.235 6.531 5.6 5.6 0 0 0 5.249 3.021 6.091 6.091 0 0 0 5.041-2.721 7.693 7.693 0 0 0 .761-6.819 5.191 5.191 0 0 0-5.18-3.406.348.348 0 0 1-.091-.69 5.819 5.819 0 0 1 5.921 3.848 8.407 8.407 0 0 1-.833 7.454 6.774 6.774 0 0 1-5.6 3.03z" transform="translate(-45.333 -79.651)" style="fill:#818fb3"/>
                </g>
            </g>
            <g data-name="Group 39">
                <path data-name="Path 34" d="M209.332 228.262s-28.035 6.912-37.827 18.05-14.4 66.055-14.593 76.232 6.912 14.4 11.137 17.282 22.85 8.065 37.827 8.833 29.188 0 29.188 0a19.947 19.947 0 0 1 2.256-8.064c2.136-4.453 4.848-5.376 4.848-5.376l-12.868-4.61s-2.253-40.367-5.761-59.91c-4.029-22.467-14.207-42.437-14.207-42.437z" transform="translate(-41.259 -83.1)" style="fill:#223a7a"/>
            </g>
            <g data-name="Group 40">
                <path data-name="Path 35" d="M262.847 324.339a.449.449 0 0 1-.187-.04.463.463 0 0 1-.237-.612c2.626-5.926 5.349-17.561 6.881-25.724l.126-.659c.464-2.4 1.041-5.388-.11-7.449-.588-1.052-1.914-3.333-3.19-5.526-1.324-2.277-2.575-4.427-2.923-5.069-.676-1.254 1.453-4.6 4.536-9.2.832-1.242 1.552-2.313 1.971-3.039 1.1-1.9.367-3.642-.48-5.659l-.288-.694c-.768-1.884-1.641-3.773-2.484-5.6-.344-.746-.69-1.493-1.029-2.244q-.677-1.488-1.361-3.023a177.157 177.157 0 0 0-9.113-18.346.464.464 0 0 1 .8-.474 177.868 177.868 0 0 1 9.161 18.44q.686 1.53 1.36 3.02.51 1.122 1.026 2.238c.848 1.834 1.725 3.732 2.5 5.636l.285.685c.864 2.056 1.757 4.182.427 6.482-.435.753-1.162 1.837-2 3.091-1.607 2.4-4.951 7.381-4.489 8.237.34.629 1.587 2.774 2.908 5.044 1.279 2.2 2.609 4.485 3.2 5.54 1.318 2.357.7 5.529.213 8.077l-.126.654c-.559 2.973-3.516 18.193-6.945 25.929a.463.463 0 0 1-.432.285z" transform="translate(-48.305 -83.28)" style="fill:#8593b6"/>
            </g>
            <g data-name="Group 41">
                <path data-name="Path 36" d="M232.142 325.853a.461.461 0 0 1-.329-.136c-2.183-2.2-12.7-20.419-13.488-23.846-.429-1.876.648-6.633 1.689-11.235.807-3.565 1.641-7.251 1.4-8.249-.355-1.491-3.045-3.689-5.647-5.815-3.143-2.567-6.394-5.222-7.023-7.615-.716-2.718-.1-19.737.3-31 .146-4.049.26-7.248.26-8.388a.464.464 0 0 1 .463-.464.464.464 0 0 1 .464.463c0 1.158-.115 4.364-.261 8.422-.378 10.526-1.011 28.142-.33 30.729.552 2.1 3.826 4.772 6.713 7.132 2.847 2.326 5.536 4.523 5.963 6.32.287 1.207-.5 4.664-1.4 8.667-.971 4.292-2.071 9.153-1.689 10.824.768 3.359 11.1 21.238 13.241 23.4a.464.464 0 0 1-.329.791z" transform="translate(-44.962 -83.16)" style="fill:#8593b6"/>
            </g>
            <g data-name="Group 42">
                <path data-name="Path 37" d="M193.29 320.49a.532.532 0 0 1-.066 0 .465.465 0 0 1-.394-.524c.341-2.414 5.668-50.488 5.912-54.171a.459.459 0 0 1 .494-.432.465.465 0 0 1 .433.494c-.245 3.688-5.578 51.823-5.919 54.241a.463.463 0 0 1-.46.392z" transform="translate(-43.841 -85.767)" style="fill:#8593b6"/>
            </g>
            <g data-name="Group 43">
                <path data-name="Path 38" d="M230.743 337.45a.46.46 0 0 1-.174-.034c-1.181-.478-6.4-2.238-13-4.463-13.326-4.495-31.577-10.649-35.047-12.452a.464.464 0 0 1 .428-.823c3.407 1.77 22.368 8.164 34.916 12.4 6.616 2.232 11.843 3.994 13.05 4.483a.465.465 0 0 1-.174.895z" transform="translate(-43.083 -89.669)" style="fill:#8593b6"/>
            </g>
            <g data-name="Group 44">
                <path data-name="Path 39" d="M223.561 358.75c-11.727 0-34.464-2.115-51.736-8.224a.464.464 0 0 1 .309-.875c21.819 7.718 52.343 9.036 58.022 7.761a.465.465 0 0 1 .2.907 37.044 37.044 0 0 1-6.795.431z" transform="translate(-42.309 -91.826)" style="fill:#8593b6"/>
            </g>
        </g>
        <g data-name="Group 165">
            <g data-name="Group 53">
                <g data-name="Group 46">
                    <path data-name="Path 40" d="M82.544 232.633c3.642 3.2 8.253 5.255 11.447 8.958 1.258 1.457 2.387 3.008 3.554 4.536.849 1.112 3.117 2.956 3.485 4.354.162.615.128-.218-.035-.835-.006-.027-.02-.051-.028-.077-.318-2.83-.547-5.671-.646-8.517s.078-5.69-.1-8.524c-.251-4-1.5-7.871-4.768-10.377-1.6-1.224-3.651-1.969-5.119-3.328-1.394-1.29-.835-2.768-.016-4.206a14.33 14.33 0 0 0 2-4.219 7.448 7.448 0 0 0-1.217-5.079c-1.9-3.192-6.118-6.752-10.112-6.275-3.331.4-3.709 4.24-3.661 6.917.046 2.6.3 5.2.329 7.8.025 2.675-.43 5.3-.468 7.962-.067 4.53 2.026 7.982 5.355 10.91z" transform="translate(-35.526 -80.995)" style="fill:#6baeff"/>
                    <path data-name="Path 41" d="M115.537 275.686a42.74 42.74 0 0 1 3.607-6.876c1.962-3.017 4.137-5.957 5.455-9.334 1.346-3.449 1.148-7.137 1.281-10.769.1-2.67.89-5.331.676-8.007-.1-1.284-.842-3.36-2.5-3.147-1.292.165-2.059 1.767-2.556 2.789a49.119 49.119 0 0 0-2.111 5.557c-.251.732-.491 1.478-.808 2.184-.185.411-.772 1.414-1.327 1.277-.943-.234-.086-4.085.054-4.768.705-3.426 1.765-6.611 1.913-10.137.213-5.112-.184-11.2-5.184-13.993-1.307-.73-2.962-1.166-4.2-.073-1.225 1.078-1.571 2.947-1.753 4.486-.559 4.721.553 9.192 2.066 13.634 1.249 3.668 2.738 7.453 2.846 11.375.1 3.775-1.86 7.121-2.782 10.687a33.808 33.808 0 0 0-1.173 10.539 88.872 88.872 0 0 0 .243 6.886c.155 2.114.339 4.227.6 6.331.053.425.1.87.158 1.314-.812-1.956-1.1-4.195-1.768-6.161-1.2-3.492-2.584-6.913-3.731-10.423a86.255 86.255 0 0 0-3.093-8.608 20.855 20.855 0 0 0-4.781-7.3 6.975 6.975 0 0 0-4.7-1.826 12.987 12.987 0 0 0-3.231.687 3.634 3.634 0 0 1-3.471-.611c-3.583-2.755-4.673-7.693-7.326-11.181-1.979-2.6-6.673-7.036-10.126-4.2-1.83 1.5-2.335 4.413-2.24 6.641a16.1 16.1 0 0 0 2.8 7.693c1.548 2.486 3.546 4.713 4.969 7.269a7.716 7.716 0 0 1 .839 4.662 11.118 11.118 0 0 0 .281 4.706c1.643 4.65 6.772 4 10.761 4.123a29.861 29.861 0 0 1 8.437 1.393 9.38 9.38 0 0 1 6.15 6.055c.792 2.192 1.216 4.682 2.708 6.544a6.96 6.96 0 0 0 2.653 1.975c1.555.688 6.3.987 6.333.554a21.354 21.354 0 0 1 1.236-4.357c.799-2.576 1.749-5.096 2.795-7.59z" transform="translate(-34.69 -82.486)" style="fill:#6baeff"/>
                    <path data-name="Path 42" d="M141.084 278.441c-.413-2.658-.333-5.587-1.592-8.028a.364.364 0 0 0-.491-.129c-.9.5-.939 1.957-1.013 2.85-.122 1.481-.031 2.966-.213 4.443a33.213 33.213 0 0 1-1.854 7.716 8.3 8.3 0 0 1-5.775 5.2 14.61 14.61 0 0 0-5.053 2.229 10.627 10.627 0 0 0-2.964 4.087c-1.865 4.182-2.754 8.858-3.619 13.327-.582 3.009-1.057 6.032-1.788 9.01a88.414 88.414 0 0 0-1.933 8.98c-.071.153-.146.305-.211.46-.191.455.52.7.766.322 2.884-4.438 6.4-8.423 11.189-10.868 2.164-1.1 5.04-1.333 6.845-3.067 1.374-1.32 1.562-3.334 1.357-5.129a16.113 16.113 0 0 0-2.577-6.309c-.646-1.1-1.41-2.287-1.149-3.628a4.677 4.677 0 0 1 2.343-2.845c1.993-1.237 4.322-1.793 5.954-3.576a9.777 9.777 0 0 0 2.523-5.948 41.022 41.022 0 0 0-.745-9.097z" transform="translate(-38.213 -86.118)" style="fill:#6baeff"/>
                    <path data-name="Path 43" d="M99.517 294.79a38.243 38.243 0 0 0-9.072-8.4c-1.843-1.225-6.193-3.641-7.071-.029-.514 2.118 1.557 4.2 2.921 5.527 2.049 1.995 4.42 3.715 6.149 6.013-2.141.684-4.378.817-6.238 2.3-2.2 1.752-3.19 5.136-1.007 7.283a13.853 13.853 0 0 0 3.8 2.329c1.723.834 3.477 1.591 5.243 2.328 3.813 1.593 7.673 3.208 10.924 5.817 3.314 2.658 6.429 7.153 6.692 11.49.026.414-.132.037.116-.152.135.122.588-.1.587-.338a45.746 45.746 0 0 0-3.854-18.459 77.1 77.1 0 0 0-9.19-15.709z" transform="translate(-35.965 -87.14)" style="fill:#6baeff"/>
                </g>
                <g data-name="Group 47">
                    <path data-name="Path 44" d="M91.3 231c1.4 2.912 2.872 5.759 4.43 8.6a68.981 68.981 0 0 1 4.121 8.368c1.382 3.593 2.831 7.132 4.292 10.693a105.478 105.478 0 0 1 3.964 11.324 134.218 134.218 0 0 1 4.485 23.026 93.53 93.53 0 0 1 .469 11.9c-.085 3.1-.435 6.176-.727 9.263a54.765 54.765 0 0 0-.253 9.687c.225 2.7.653 5.9 2.744 7.822a.481.481 0 0 0 .752-.58c-2.485-5.1-2.346-10.653-1.871-16.18.263-3.052.626-6.086.729-9.15a91.592 91.592 0 0 0-.389-11.682 138.2 138.2 0 0 0-4.215-22.567 101.967 101.967 0 0 0-3.707-11.166c-1.446-3.66-3.117-7.22-4.518-10.9-2.534-6.652-6.4-12.55-9.816-18.748-.178-.322-.645-.039-.488.286z" transform="translate(-36.539 -83.266)" style="fill:#43588e"/>
                </g>
                <g data-name="Group 48">
                    <path data-name="Path 45" d="M114.335 287.562c.4-4.844.832-9.508 2.464-14.129.762-2.155 1.684-4.251 2.42-6.414.607-1.788 1.516-4.24 1.048-6.141a.219.219 0 0 0-.42 0c-.313 1.086-.278 2.277-.5 3.389a29.986 29.986 0 0 1-.849 3.2c-.716 2.239-1.653 4.383-2.464 6.587A32.6 32.6 0 0 0 114 287.562a.167.167 0 0 0 .333 0z" transform="translate(-38.168 -85.434)" style="fill:#43588e"/>
                </g>
                <g data-name="Group 49">
                    <path data-name="Path 46" d="M84.122 259.622c1.923 4.645 7.7 4.913 11.913 5.953a11.164 11.164 0 0 1 6.819 5.352 40.9 40.9 0 0 1 3.894 9.372.029.029 0 0 0 .056-.016c-1.177-5.568-2.864-12.271-8.6-14.862-4.6-2.076-10.659-1.034-13.6-6-.145-.245-.594-.081-.477.2z" transform="translate(-36.023 -85.331)" style="fill:#43588e"/>
                </g>
                <g data-name="Group 50">
                    <path data-name="Path 47" d="M111.091 288.842c.229.309.438.631.675.935a2.521 2.521 0 0 0 .383.412.89.89 0 0 0 .535.273.117.117 0 0 0 .1-.174 1.843 1.843 0 0 0-.4-.367c-.137-.122-.278-.24-.411-.367-.269-.254-.515-.531-.778-.791-.051-.05-.148.018-.1.079z" transform="translate(-37.963 -87.448)" style="fill:#43588e"/>
                </g>
                <g data-name="Group 51">
                    <path data-name="Path 48" d="M98.132 304.693a46.814 46.814 0 0 1 8.807 9.473 57.275 57.275 0 0 1 3.207 5.276 58.863 58.863 0 0 1 2.592 6.114c.063.158.349.161.328-.044-.46-4.369-3.228-8.113-5.443-11.747a28.043 28.043 0 0 0-4.121-4.985 36.646 36.646 0 0 0-5.072-4.475c-.226-.16-.515.209-.3.387z" transform="translate(-37.027 -88.565)" style="fill:#43588e"/>
                </g>
                <g data-name="Group 52">
                    <path data-name="Path 49" d="M125.826 299.182c-1.6.9-1.649 3.428-1.681 5.04-.059 3.1.706 6-.652 8.952-1.227 2.665-3.187 4.889-4.729 7.363-1.442 2.316-2.865 5.276-2.833 8.064 0 .162.249.252.324.087a33.61 33.61 0 0 0 1.206-4.029 16.913 16.913 0 0 1 1.968-4.157c1.482-2.3 3.3-4.39 4.507-6.861 1.267-2.605 1.082-5.185 1-8.008-.053-1.8-.234-4.692 1.219-6.03.227-.21-.064-.57-.326-.421z" transform="translate(-38.312 -88.196)" style="fill:#43588e"/>
                </g>
            </g>
            <path data-name="Path 50" d="M113.636 331.181c-6.434-.089-18.69-.16-18.69-.16l3.033 22.517a10.209 10.209 0 0 0 10.117 8.847h11.08a10.21 10.21 0 0 0 10.118-8.847l3.033-22.517s-12.257.071-18.691.16z" transform="translate(-36.803 -90.488)" style="fill:#fff"/>
        </g>
        <g data-name="Group 166">
            <g data-name="Group 58">
                <g data-name="Group 55">
                    <path data-name="Path 51" d="m439.052 286.528-36.708 72.711-107.019.768 33.027-74.5z" transform="translate(-51.212 -87.215)" style="fill:#f6f7fa"/>
                </g>
                <g data-name="Group 56">
                    <path data-name="Path 52" d="m218.8 359.426.02-5.82h69.278l31.875-69.9h110.8l2.785 2.689H325.314l-33.124 72.968s-73.39-.129-73.39.063z" transform="translate(-45.709 -87.086)" style="fill:#d9dee8"/>
                </g>
                <g data-name="Group 57">
                    <path data-name="Path 53" d="M388.363 329.306c-1.209 3.627-7.771 6.428-14.656 6.255s-11.487-3.252-10.279-6.878 7.771-6.428 14.656-6.255 11.489 3.252 10.279 6.878z" transform="translate(-56.094 -89.87)" style="fill:#d9dee8"/>
                </g>
            </g>
            <g data-name="Group 59">
                <path data-name="Path 54" d="M297.841 360a.475.475 0 0 1-.192-.042.464.464 0 0 1-.23-.614l33.247-73.24H439.2a.464.464 0 1 1 0 .928H331.264l-33 72.7a.464.464 0 0 1-.423.268z" transform="translate(-51.359 -87.258)" style="fill:#fff"/>
            </g>
        </g>
        <g data-name="Group 167">
            <g data-name="Group 61">
                <path data-name="Rectangle 3" style="fill:#596b9b" d="M0 0h127.309v28.227H0z" transform="translate(40.957 277.849)"/>
                <path data-name="Rectangle 4" transform="translate(167.538 277.849)" style="fill:#7a89af" d="M0 0h229.053v28.227H0z"/>
            </g>
            <path data-name="Path 55" d="M203.738 371.228H76.429v5.184h355.635v-5.184z" transform="translate(-35.472 -93.379)" style="fill:#bdc4d7;mix-blend-mode:multiply;isolation:isolate"/>
            <path data-name="Rectangle 5" style="fill:#6f7fa9" d="M0 0h139.022v6.913H0z" transform="translate(34.812 272.28)"/>
            <path data-name="Rectangle 6" transform="translate(173.107 272.28)" style="fill:#9ca6c3" d="M0 0h229.053v6.913H0z"/>
        </g>
        <g data-name="Group 168" transform="translate(86.146 91.675)">
            <rect data-name="Rectangle 7" width="55.014" height="32.508" rx="5.426" style="fill:#fff"/>
            <path data-name="Path 56" d="m196.887 187.592-16.879-7.122v14.245z" transform="translate(-129.066 -171.338)" style="fill:#fff"/>
            <g data-name="Group 63" transform="translate(13.736 13.145)">
                <circle data-name="Ellipse 1" cx="3.109" cy="3.109" r="3.109" style="fill:#223a7a"/>
                <circle data-name="Ellipse 2" cx="3.109" cy="3.109" r="3.109" transform="translate(10.662)" style="fill:#223a7a"/>
                <circle data-name="Ellipse 3" cx="3.109" cy="3.109" r="3.109" transform="translate(21.324)" style="fill:#223a7a"/>
            </g>
        </g>
        <g data-name="Group 169">
            <path data-name="Path 57" d="M416.525 96.262H312.77a12.065 12.065 0 0 0-12.07 12.065v49.222a12.065 12.065 0 0 0 12.065 12.065h9.3c.261 4.461-.378 11.1-4.1 19.586a52.134 52.134 0 0 0 22.494-19.586h76.064a12.065 12.065 0 0 0 12.065-12.065v-49.222a12.065 12.065 0 0 0-12.063-12.065z" transform="translate(-51.599 -73.608)" style="fill:#60a8ff"/>
            <path data-name="Path 58" d="M373.623 121.141h-51.461a2.56 2.56 0 0 1-2.561-2.561 2.56 2.56 0 0 1 2.561-2.56h51.461a2.56 2.56 0 0 1 2.561 2.56 2.56 2.56 0 0 1-2.561 2.561z" transform="translate(-52.958 -75.029)" style="fill:#fff"/>
            <path data-name="Path 59" d="M410.523 137.364h-89.354a1.568 1.568 0 0 1-1.569-1.564 1.569 1.569 0 0 1 1.568-1.568h89.353a1.568 1.568 0 0 1 1.568 1.568 1.567 1.567 0 0 1-1.566 1.564z" transform="translate(-52.958 -76.338)" style="fill:#d2e6ff"/>
            <path data-name="Path 60" d="M410.523 146.743h-89.354a1.568 1.568 0 0 1-1.568-1.568 1.569 1.569 0 0 1 1.568-1.568h89.353a1.568 1.568 0 0 1 1.568 1.568 1.567 1.567 0 0 1-1.567 1.568z" transform="translate(-52.958 -77.012)" style="fill:#d2e6ff"/>
            <path data-name="Path 61" d="M391.031 156.743h-69.862a1.568 1.568 0 0 1-1.568-1.568 1.569 1.569 0 0 1 1.568-1.568h69.861a1.568 1.568 0 0 1 1.568 1.568 1.568 1.568 0 0 1-1.567 1.568z" transform="translate(-52.958 -77.731)" style="fill:#d2e6ff"/>
            <path data-name="Path 62" d="M414.711 121.141h-24.549a2.56 2.56 0 0 1-2.561-2.561 2.56 2.56 0 0 1 2.561-2.56h24.549a2.56 2.56 0 0 1 2.56 2.56 2.56 2.56 0 0 1-2.56 2.561z" transform="translate(-57.847 -75.029)" style="fill:#fff"/>
        </g>
        <g data-name="Group 170" transform="translate(265.26 126.537)">
            <rect data-name="Rectangle 8" width="31.587" height="22.754" rx="2" transform="translate(0 10.017)" style="fill:#fff"/>
            <g data-name="Group 69">
                <g data-name="Group 66">
                    <path data-name="Path 63" d="M334.1 233.8a.694.694 0 0 1-.443-.16l-15.171-12.53a.7.7 0 0 1 .886-1.073l14.722 12.163 14.34-12.477a.7.7 0 1 1 .913 1.05l-14.785 12.866a.7.7 0 0 1-.462.161z" transform="translate(-318.12 -209.01)" style="fill:#6f7fa9"/>
                </g>
                <g data-name="Group 67">
                    <path data-name="Path 64" d="M318.935 241.972a.7.7 0 0 1-.5-1.176l10.609-11.154a.7.7 0 1 1 1.008.96l-10.609 11.154a.693.693 0 0 1-.508.216z" transform="translate(-318.12 -209.72)" style="fill:#6f7fa9"/>
                </g>
                <g data-name="Group 68">
                    <path data-name="Path 65" d="M350.392 241.575a.693.693 0 0 1-.493-.2l-10.567-10.6a.7.7 0 1 1 .987-.983l10.566 10.6a.7.7 0 0 1-.493 1.187z" transform="translate(-319.622 -209.731)" style="fill:#6f7fa9"/>
                </g>
            </g>
            <g data-name="Group 71">
                <g data-name="Group 70" transform="translate(23.722)">
                    <circle data-name="Ellipse 4" cx="9.313" cy="9.313" r="9.313" style="fill:#ff5f42"/>
                </g>
                <text data-name="85" transform="translate(26.489 12.178)" style="font-size:10px;font-family:Quicksand-Bold,Quicksand;font-weight:700;fill:#fff"><tspan x="0" y="0">85</tspan></text>
            </g>
        </g>
        <g data-name="Group 171">
            <g data-name="Group 73" transform="translate(333.713 116.484)">
                <rect data-name="Rectangle 9" width="61.83" height="15.938" rx="4" style="fill:#223a7a"/>
            </g>
            <g data-name="Group 74">
                <path data-name="Path 66" d="M399.808 209.8a.73.73 0 0 1-.587-.261.87.87 0 0 1-.2-.652l.236-2.064c.017-.052.008-.086-.026-.1a.131.131 0 0 0-.131.027l-1.7 1.227a.8.8 0 0 1-.652.17.812.812 0 0 1-.548-.4.787.787 0 0 1-.092-.731.839.839 0 0 1 .484-.444l1.906-.862c.053-.017.079-.044.079-.078s-.026-.061-.079-.079l-1.906-.862a.777.777 0 0 1-.471-.5.86.86 0 0 1 .079-.679.819.819 0 0 1 .548-.406.855.855 0 0 1 .652.144l1.7 1.254a.131.131 0 0 0 .131.027c.034-.018.043-.053.026-.1l-.236-2.063a.846.846 0 0 1 .21-.653.8.8 0 0 1 .626-.262.777.777 0 0 1 .783.915l-.235 2.063c-.018.052-.009.087.026.1a.132.132 0 0 0 .131-.027l1.7-1.227a.827.827 0 0 1 .666-.171.746.746 0 0 1 .536.406.79.79 0 0 1 .091.731.836.836 0 0 1-.484.444l-1.905.862c-.053.018-.079.044-.079.079s.026.061.079.078l1.905.862a.821.821 0 0 1 .484.5.767.767 0 0 1-.091.679.74.74 0 0 1-.536.4.871.871 0 0 1-.666-.143l-1.7-1.254a.132.132 0 0 0-.131-.027c-.035.019-.044.053-.026.1l.235 2.064a.75.75 0 0 1-.2.652.842.842 0 0 1-.632.261z" transform="translate(-58.455 -81.172)" style="fill:#fff"/>
            </g>
            <g data-name="Group 75">
                <path data-name="Path 67" d="M411.932 209.8a.732.732 0 0 1-.587-.261.873.873 0 0 1-.2-.652l.235-2.064c.018-.052.009-.086-.026-.1a.132.132 0 0 0-.131.027l-1.7 1.227a.8.8 0 0 1-.653.17.814.814 0 0 1-.549-.4.787.787 0 0 1-.091-.731.837.837 0 0 1 .483-.444l1.907-.862c.052-.017.079-.044.079-.078s-.027-.061-.079-.079l-1.907-.862a.775.775 0 0 1-.47-.5.86.86 0 0 1 .078-.679.821.821 0 0 1 .549-.406.856.856 0 0 1 .653.144l1.7 1.254a.132.132 0 0 0 .131.027c.035-.018.044-.053.026-.1l-.235-2.063a.849.849 0 0 1 .209-.653.8.8 0 0 1 .627-.262.776.776 0 0 1 .782.915l-.234 2.063c-.018.052-.009.087.026.1a.132.132 0 0 0 .131-.027l1.7-1.227a.826.826 0 0 1 .666-.171.746.746 0 0 1 .535.406.786.786 0 0 1 .09.731.832.832 0 0 1-.483.444l-1.906.862c-.052.018-.078.044-.078.079s.026.061.078.078l1.906.862a.818.818 0 0 1 .483.5.763.763 0 0 1-.09.679.74.74 0 0 1-.535.4.87.87 0 0 1-.666-.143l-1.7-1.254a.132.132 0 0 0-.131-.027c-.035.019-.044.053-.026.1l.234 2.064a.749.749 0 0 1-.195.652.844.844 0 0 1-.636.261z" transform="translate(-59.327 -81.172)" style="fill:#fff"/>
            </g>
            <g data-name="Group 76">
                <path data-name="Path 68" d="M424.057 209.8a.73.73 0 0 1-.587-.261.874.874 0 0 1-.2-.652l.236-2.064c.017-.052.008-.086-.026-.1a.132.132 0 0 0-.131.027l-1.7 1.227a.8.8 0 0 1-.653.17.812.812 0 0 1-.548-.4.79.79 0 0 1-.092-.731.839.839 0 0 1 .484-.444l1.907-.862c.052-.017.078-.044.078-.078s-.026-.061-.078-.079l-1.907-.862a.773.773 0 0 1-.47-.5.856.856 0 0 1 .078-.679.819.819 0 0 1 .552-.412.857.857 0 0 1 .653.144l1.7 1.254a.132.132 0 0 0 .131.027c.034-.018.043-.053.026-.1l-.236-2.063a.85.85 0 0 1 .21-.653.8.8 0 0 1 .626-.262.776.776 0 0 1 .783.915l-.235 2.063c-.018.052-.009.087.027.1a.132.132 0 0 0 .131-.027l1.7-1.227a.825.825 0 0 1 .666-.171.745.745 0 0 1 .535.406.784.784 0 0 1 .091.731.837.837 0 0 1-.483.444l-1.906.862c-.053.018-.079.044-.079.079s.026.061.079.078l1.906.862a.82.82 0 0 1 .483.5.764.764 0 0 1-.091.679.739.739 0 0 1-.535.4.869.869 0 0 1-.666-.143l-1.7-1.254a.132.132 0 0 0-.131-.027c-.036.019-.045.053-.027.1l.235 2.064a.752.752 0 0 1-.195.652.846.846 0 0 1-.641.267z" transform="translate(-60.199 -81.172)" style="fill:#fff"/>
            </g>
            <g data-name="Group 77">
                <path data-name="Path 69" d="M436.182 209.8a.733.733 0 0 1-.588-.261.873.873 0 0 1-.2-.652l.236-2.064c.017-.052.008-.086-.026-.1a.131.131 0 0 0-.131.027l-1.7 1.227a.8.8 0 0 1-.652.17.812.812 0 0 1-.549-.4.787.787 0 0 1-.092-.731.839.839 0 0 1 .484-.444l1.906-.862c.053-.017.079-.044.079-.078s-.026-.061-.079-.079l-1.906-.862a.777.777 0 0 1-.471-.5.86.86 0 0 1 .079-.679.819.819 0 0 1 .549-.406.855.855 0 0 1 .652.144l1.7 1.254a.131.131 0 0 0 .131.027c.034-.018.043-.053.026-.1l-.236-2.063a.846.846 0 0 1 .21-.653.8.8 0 0 1 .626-.262.777.777 0 0 1 .783.915l-.235 2.063c-.018.052-.009.087.026.1a.132.132 0 0 0 .131-.027l1.7-1.227a.827.827 0 0 1 .666-.171.746.746 0 0 1 .536.406.789.789 0 0 1 .091.731.836.836 0 0 1-.484.444l-1.905.862c-.053.018-.079.044-.079.079s.026.061.079.078l1.905.862a.822.822 0 0 1 .484.5.767.767 0 0 1-.091.679.74.74 0 0 1-.536.4.871.871 0 0 1-.666-.143l-1.7-1.254a.132.132 0 0 0-.131-.027c-.035.019-.044.053-.026.1l.235 2.064a.75.75 0 0 1-.2.652.842.842 0 0 1-.631.261z" transform="translate(-61.07 -81.172)" style="fill:#fff"/>
            </g>
            <g data-name="Group 78">
                <path data-name="Path 70" d="M448.306 209.8a.731.731 0 0 1-.587-.261.873.873 0 0 1-.2-.652l.235-2.064c.018-.052.008-.086-.026-.1a.132.132 0 0 0-.131.027l-1.7 1.227a.8.8 0 0 1-.653.17.813.813 0 0 1-.548-.4.787.787 0 0 1-.091-.731.838.838 0 0 1 .483-.444L447 205.7c.052-.017.079-.044.079-.078s-.027-.061-.079-.079l-1.907-.862a.773.773 0 0 1-.47-.5.859.859 0 0 1 .078-.679.821.821 0 0 1 .548-.406.856.856 0 0 1 .653.144l1.7 1.254a.132.132 0 0 0 .131.027c.034-.018.044-.053.026-.1l-.235-2.063a.849.849 0 0 1 .209-.653.8.8 0 0 1 .627-.262.776.776 0 0 1 .782.915l-.234 2.063c-.018.052-.009.087.026.1a.132.132 0 0 0 .131-.027l1.7-1.227a.826.826 0 0 1 .666-.171.746.746 0 0 1 .535.406.786.786 0 0 1 .09.731.832.832 0 0 1-.483.444l-1.906.862c-.052.018-.078.044-.078.079s.026.061.078.078l1.906.862a.818.818 0 0 1 .483.5.764.764 0 0 1-.09.679.74.74 0 0 1-.535.4.87.87 0 0 1-.666-.143l-1.7-1.254a.132.132 0 0 0-.131-.027c-.035.019-.044.053-.026.1l.234 2.064a.75.75 0 0 1-.195.652.844.844 0 0 1-.641.271z" transform="translate(-61.942 -81.172)" style="fill:#67acff"/>
            </g>
        </g>
    </g>
</svg>
