<svg xmlns="http://www.w3.org/2000/svg" width="87" height="60.914" viewBox="0 0 87 60.914">
  <g id="Group_1" data-name="Group 1" transform="translate(-6.5 -19.543)">
    <path id="youtube" d="M85.208,3.45A10.9,10.9,0,0,0,77.54-4.219C70.732-6.082,43.5-6.082,43.5-6.082s-27.232,0-34.04,1.792A11.12,11.12,0,0,0,1.792,3.45C0,10.257,0,24.375,0,24.375S0,38.564,1.792,45.3a10.9,10.9,0,0,0,7.668,7.668c6.879,1.863,34.04,1.863,34.04,1.863s27.232,0,34.04-1.792a10.9,10.9,0,0,0,7.669-7.668C87,38.564,87,24.447,87,24.447s.072-14.19-1.792-21ZM34.829,37.418V11.332L57.475,24.375Zm0,0" transform="translate(6.499 25.625)" fill="rgba(0,0,0,0.5)"/>
    <path id="Polygon_1" data-name="Polygon 1" d="M15,0,30,25H0Z" transform="translate(66 35) rotate(90)" fill="#fff"/>
  </g>
</svg>
