<?xml version="1.0" encoding="UTF-8"?>
<!DOCTYPE svg PUBLIC "-//W3C//DTD SVG 1.1//EN" "http://www.w3.org/Graphics/SVG/1.1/DTD/svg11.dtd">
<!-- Creator: CorelDRAW 2020 (64-Bit) -->
<svg xmlns="http://www.w3.org/2000/svg" xml:space="preserve" width="105.292mm" height="104.948mm" version="1.1" style="shape-rendering:geometricPrecision; text-rendering:geometricPrecision; image-rendering:optimizeQuality; fill-rule:evenodd; clip-rule:evenodd"
viewBox="0 0 10529.16 10494.82"
 xmlns:xlink="http://www.w3.org/1999/xlink"
 xmlns:xodm="http://www.corel.com/coreldraw/odm/2003">
 <defs>
  <style type="text/css">
   <![CDATA[
    .fil2 {fill:#FFED00}
    .fil1 {fill:#65381C}
    .fil7 {fill:#FEFEFE;fill-rule:nonzero}
    .fil3 {fill:#2B2A29;fill-rule:nonzero}
    .fil6 {fill:#FFED00;fill-rule:nonzero}
    .fil0 {fill:url(#id0)}
    .fil4 {fill:url(#id1)}
    .fil5 {fill:url(#id2)}
   ]]>
  </style>
  <linearGradient id="id0" gradientUnits="userSpaceOnUse" x1="-456.94" y1="5246.78" x2="10987.87" y2="5246.78">
   <stop offset="0" style="stop-opacity:1; stop-color:#8F5527"/>
   <stop offset="0.0117647" style="stop-opacity:1; stop-color:#8F5527"/>
   <stop offset="0.290196" style="stop-opacity:1; stop-color:#A67729"/>
   <stop offset="0.411765" style="stop-opacity:1; stop-color:#FFF2C7"/>
   <stop offset="0.568627" style="stop-opacity:1; stop-color:#FDE07F"/>
   <stop offset="1" style="stop-opacity:1; stop-color:#874B26"/>
  </linearGradient>
  <linearGradient id="id1" gradientUnits="userSpaceOnUse" xlink:href="#id0" x1="1684.33" y1="5246.78" x2="8844.6" y2="5246.78">
  </linearGradient>
  <linearGradient id="id2" gradientUnits="userSpaceOnUse" xlink:href="#id0" x1="3616.01" y1="7591.13" x2="6914.69" y2="2904.37">
  </linearGradient>
 </defs>
 <g id="Layer_x0020_1">
  <metadata id="CorelCorpID_0Corel-Layer"/>
  <g id="_1912277364688">
   <path class="fil0" d="M5264.58 0c2907.56,0 5264.58,2349.37 5264.58,5247.35 0,2898.16 -2357.02,5247.47 -5264.58,5247.47 -2907.56,0 -5264.58,-2349.31 -5264.58,-5247.47 0,-2897.98 2357.02,-5247.35 5264.58,-5247.35z"/>
   <path class="fil1" d="M508.96 5116.83c72.39,-2635.11 2260.21,-4712.77 4886.71,-4640.56 2626.44,72.17 4696.92,2266.72 4624.53,4901.77 -72.39,2635.12 -2260.27,4712.78 -4886.71,4640.56 -2626.44,-72.16 -4696.92,-2266.71 -4624.53,-4901.77z"/>
   <polygon class="fil1" points="1246.73,4420.13 1385.41,4884.71 1836.93,4883.74 1471.15,5169.94 1611.48,5633.89 1246.73,5346.21 881.93,5633.89 1022.32,5169.94 656.48,4883.74 1108,4884.71 "/>
   <polygon class="fil2" points="1332.47,4355.84 1471.21,4820.42 1922.73,4819.45 1556.89,5105.54 1697.28,5569.55 1332.47,5281.87 967.72,5569.55 1108.06,5105.54 742.28,4819.45 1193.8,4820.42 "/>
   <path class="fil3" d="M2122.61 2483.83c65.09,56.3 60.76,103.37 19.29,151.06l-43.3 49.91 116.03 100.63 37.14 -42.78c50.48,-58.08 100.4,-59.33 175.93,6.21l63.83 55.22c71.71,62.53 69.37,105.31 34.06,145.81 -35.32,40.73 -79.41,46.89 -137.54,-3.36l-75.3 -65.55 -104.74 120.65 67.14 58.42c129.84,112.89 260.48,112.44 369.32,-12.84 108.84,-125.38 91.16,-254.65 -38.74,-367.6l-63.77 -55.28c-82.21,-71.7 -164.69,-98.63 -247.92,-58.87 27.89,-83.74 -2.63,-158.81 -89.45,-234.34l-20.99 -18.2c-129.9,-112.95 -260.53,-112.38 -369.32,12.89 -108.84,124.99 -91.16,254.48 38.68,367.49l44.27 38.22 104.79 -120.65 -52.25 -45.41c-57.91,-50.48 -57.85,-94.98 -22.54,-135.43 35.31,-40.73 77.07,-48.94 150.09,14.27l45.29 39.53z"/>
   <path class="fil3" d="M2824.68 2481.15c105.99,135.25 237.88,156.93 368.63,54.53 130.52,-102.45 141.36,-235.6 35.14,-370.91l-121.05 -154.88c-97.78,-124.53 -201.32,-154.65 -299.32,-77.92 -59.33,46.49 -79.47,105.13 -64.58,171.71l-121.34 -154.83c-63.32,-81.12 -54.7,-124.93 -7.58,-161.83 42.15,-33.15 86.99,-31.15 134.23,29.26l23.84 30.46 125.62 -98.57 -16.95 -21.79c-106.16,-135.55 -234.51,-160.02 -365.03,-57.68 -137.88,108.05 -142.62,236.68 -30.75,379.47l339.14 432.98zm23.84 -385.63c42.27,-33.26 86.77,-31.09 134.29,29.32l119.28 152.48c47.46,60.36 37.82,103.14 -4.45,136.23 -42.5,33.14 -86.02,32.17 -133.49,-28.24l-119.28 -152.48c-47.46,-60.41 -38.79,-104.23 3.65,-137.31z"/>
   <polygon class="fil3" points="3710.54,1033.21 3487.26,1106.8 3823.95,2128.15 3963.82,2082.11 3725.89,1359.91 4083.68,2042.69 4235.36,1992.66 4105.07,1223.69 4346.26,1956.04 4497.94,1906.01 4161.54,884.67 3938.27,958.31 4067.82,1719.53 "/>
   <path class="fil3" d="M4846.66 1012.16c-6.33,-76.55 25.27,-108.44 78.78,-112.89 53.51,-4.17 89.51,21.96 95.84,98.52l46.89 578.84c6.11,76.56 -25.21,108.56 -78.66,112.89 -53.57,4.23 -89.85,-21.96 -95.9,-98.51l-46.95 -578.85zm-122.36 581.64c13.8,171.48 112.15,262.13 277.58,248.78 165.32,-13.47 247.75,-118.66 233.95,-290.19l-45.24 -557.4c-13.8,-171.48 -112.21,-262.12 -277.58,-248.83 -165.38,13.52 -247.75,118.71 -233.95,290.3l45.24 557.34z"/>
   <polygon class="fil3" points="5870.46,1879.54 6042.46,1902.25 6183.36,836.01 6034.13,816.21 5949.93,1454.44 5862.08,793.51 5651.86,765.84 5511.02,1832.14 5661.79,1851.88 5763.62,1079.82 "/>
   <polygon class="fil3" points="6594.03,1096.76 6757.7,1162.93 6413.02,2017.77 6569.84,2080.97 6914.46,1226.14 7078.35,1291.97 7135.85,1149.47 6651.48,954.32 "/>
   <polygon class="fil3" points="7324.9,1956.44 7487.31,2058.78 7241.96,2448.86 7387.59,2540.48 7960.22,1630.08 7814.64,1538.41 7569.06,1928.49 7406.7,1826.26 7652,1436.18 7508.87,1346.22 6936.25,2256.5 7079.32,2346.58 "/>
   <path class="fil3" d="M8168.72 2136.59c-223.33,211.3 -26.41,479.7 -186.99,631.73 -55.85,52.76 -99.15,47.17 -136,8.38 -37.02,-39.19 -40.1,-82.71 15.46,-135.48l55.85 -53 -109.87 -116.03 -47.87 45.58c-125.04,118.26 -137.19,248.32 -23.27,368.74 114.21,120.43 244.56,115.47 369.6,-2.79 223.11,-211.24 26.41,-479.64 187,-631.73 55.84,-52.71 98.06,-50.54 135.02,-11.4 36.97,38.84 36.97,81.4 -18.82,134.17l-32.4 30.52 109.81 116.03 24.41 -23.22c125.11,-118.14 138.51,-247.18 25.33,-366.63 -112.83,-119.4 -242.5,-113.01 -367.26,5.13z"/>
   <path class="fil3" d="M1956.76 7200.44l64.85 101.91 -640.37 407.25 83.88 131.94 839.4 -533.83 -56.43 -88.72c-69.32,15.39 -132.97,23.94 -197.81,-78.04l-93.52 59.49zm-29.44 1186.09l298.31 286.53 98.42 -102.48 -185.52 -178.2 590.66 -614.92 -112.79 -108.33 -689.08 717.4zm1281.97 -212.62l-186.21 -133.03 -707.54 717.22 116.83 83.31 126.82 -131.14 156.19 111.45 -82.94 162.57 128.38 91.66 448.47 -902.04zm-201.84 72.39l-231 453.16 -122.64 -87.49 353.64 -365.67zm211.06 1075.28l143.01 73.11 57.31 -590.03 395.32 -295.82 -139.15 -71.13 -379.44 292.83 197.2 -385.97 -139.21 -71.13 -452.69 885.84 139.27 71.15 139.01 -272.04 84.41 -59.03 -45.04 422.22zm584.85 -213.85l168.52 56.26 -135.2 404.43 150.96 50.38 315.37 -943.39 -150.95 -50.44 -135.19 404.31 -168.43 -56.42 135.17 -404.26 -148.27 -49.61 -315.45 943.5 148.28 49.55 135.19 -404.31zm1160.41 669.16l160.15 11.32 -177.89 -565.35 248.22 -426.87 -155.9 -11.05 -234.8 417.91 30.67 -432.41 -155.95 -11.07 -70.35 992.34 155.95 11.06 21.66 -304.84 54.62 -87.3 123.62 406.26zm329.5 4.18l156.29 -4.63 -29.3 -994.34 -156.29 4.63 29.3 994.34zm355.75 -21.6l410.13 -53.05 -18.23 -140.91 -255.06 32.99 -109.36 -845.67 -155.12 20.11 127.64 986.53zm497.64 -859.2c-19.29,-68.41 3.44,-102.8 51.28,-116.36 47.84,-13.56 85.3,3.97 104.61,72.27l146.07 516.95c19.33,68.48 -3.48,102.96 -51.29,116.41 -47.84,13.56 -85.24,-3.96 -104.6,-72.32l-146.07 -516.95zm-7.08 549.89c43.23,153.22 148.66,217.85 296.4,176.15 147.68,-41.71 203.64,-152.07 160.4,-305.23l-140.7 -497.74c-43.23,-153.21 -148.71,-217.91 -296.39,-176.2 -147.67,41.65 -203.64,152.07 -160.4,305.23l140.69 497.79zm495.32 -956.74l-198.49 88.59 405.62 908.31 124.56 -55.57 -286.85 -642.38 393.23 594.83 134.97 -60.24 -192.27 -695.49 290.87 651.38 134.96 -60.18 -405.62 -908.37 -198.57 88.69 190.72 688.37 -393.13 -597.94zm617.43 -168.33l221.12 -154.87 -81.5 -116.41 -349.23 244.57 570.61 814.79 349.28 -244.56 -81.5 -116.4 -221.2 154.91 -167.09 -238.62 175.76 -123.08 -81.49 -116.46 -175.84 123.18 -158.92 -227.05zm278.93 -197.45l124.33 -106.1 553.53 648.57 118.88 -101.49 -553.48 -648.56 124.28 -106.11 -92.24 -108.08 -367.53 313.64 92.23 108.13zm1342.44 -142.76c-38.09,-12.59 -65.74,-34.97 -102.08,-66.82l-115.36 -101.22c-77.99,-68.41 -151.49,-98.88 -227.6,-61.64 21.35,-73.86 -7.32,-142.51 -84.22,-209.95l-58.77 -51.56c-115.36,-101.22 -217.92,-98.5 -324.75,23.36l-155.56 177.3 747.92 655.9 103.05 -117.5 -304.46 -267.04 35.55 -40.62c46.88,-53.42 93.14,-54.38 162.56,6.51l117.56 103c60.9,53.43 76.44,59.5 101.24,69.91l104.92 -119.63zm-808.75 -371.02c36.57,-41.69 75.97,-39.13 129.34,7.68l73.73 64.66c59.88,52.42 55.67,96.02 17.26,139.9l-40.26 45.9 -229.71 -201.43 49.64 -56.71zm278.61 -371.26l146.53 -226.85 -119.42 -77.08 -231.27 358.18 835.58 539.7 231.33 -358.17 -119.35 -77.12 -146.47 226.87 -244.73 -158.12 116.41 -180.21 -119.34 -77.18 -116.42 180.27 -232.85 -150.29zm249.27 -218.48c259,116.88 419.74,-145.71 606.27,-61.55 64.72,29.3 75.15,68.32 54.72,113.63 -20.5,45.36 -56.65,63.29 -121.44,34.09l-64.73 -29.25 -60.81 134.7 55.65 25.17c145.05,65.49 260.7,30.42 323.89,-109.56 63.12,-139.82 13.01,-249.74 -132.03,-315.28 -259.1,-116.95 -419.75,145.71 -606.31,61.48 -64.72,-29.3 -77.59,-66.3 -57.17,-111.56 20.5,-45.41 56.78,-60.17 121.52,-30.98l37.62 16.98 60.8 -134.65 -28.5 -12.83c-145.03,-65.6 -260.14,-31.77 -322.71,106.82 -62.57,138.54 -11.81,247.25 133.23,312.79z"/>
   <path class="fil4" d="M5264.58 1964.03c1819.3,0 3294.16,1470.01 3294.16,3283.32 0,1813.49 -1474.86,3283.5 -3294.16,3283.5 -1819.36,0 -3294.16,-1470.01 -3294.16,-3283.5 0,-1813.31 1474.8,-3283.32 3294.16,-3283.32l0 0z"/>
   <path class="fil5" d="M2823.76 3530.28c951.47,-1352.44 2815.55,-1680.06 4163.6,-731.73 1348.05,948.39 1669.5,2813.61 718.04,4166.05 -951.47,1352.44 -2815.55,1679.94 -4163.6,731.67 -1348.05,-948.39 -1669.5,-2813.61 -718.04,-4165.99l0 0z"/>
   <path class="fil1" d="M2950.63 3619.55c902.01,-1282.16 2669.23,-1592.71 3947.17,-693.67 1277.94,899.04 1582.68,2667.34 680.67,3949.44 -901.95,1282.05 -2669.17,1592.66 -3947.11,693.62 -1277.94,-899.04 -1582.68,-2667.28 -680.73,-3949.39z"/>
   <polygon class="fil1" points="9142.44,4420.13 9281.17,4884.71 9732.69,4883.74 9366.85,5169.94 9507.24,5633.89 9142.44,5346.21 8777.69,5633.89 8918.02,5169.94 8552.24,4883.74 9003.76,4884.71 "/>
   <polygon class="fil2" points="9228.23,4355.84 9366.91,4820.42 9818.43,4819.45 9452.65,5105.54 9592.98,5569.55 9228.23,5281.87 8863.42,5569.55 9003.81,5105.54 8637.98,4819.45 9089.5,4820.42 "/>
   <polygon class="fil3" points="3198.27,5803.09 3425.25,5803.09 3546.53,4714.83 3397.3,4714.83 3308.65,5579.19 3223.14,4714.83 3058.34,4714.83 2975.96,5572.97 2884.23,4714.83 2717.89,4714.83 2839.17,5803.09 3073.91,5803.09 3136.09,5223.17 "/>
   <path class="fil3" d="M3988.07 4714.83l-250.32 0 -174.1 1088.26 156.99 0 29.55 -197.38 209.92 0 29.5 197.38 172.62 0 -174.16 -1088.26zm-133.72 192.76l82.43 550.43 -164.8 0 82.37 -550.43z"/>
   <path class="fil3" d="M4773.19 5803.09c-17.12,-40.39 -18.66,-79.29 -18.66,-132.17l0 -167.89c0,-113.52 -28.01,-195.84 -113.52,-231.6 76.22,-35.83 111.98,-108.9 111.98,-220.77l0 -85.57c0,-167.89 -76.21,-250.26 -253.45,-250.26l-258.08 0 0 1088.26 171.03 0 0 -443.01 59.1 0c77.69,0 111.92,37.3 111.92,138.33l0 171.02c0,88.65 6.22,105.71 15.57,133.66l174.11 0zm-278.27 -932.81c60.58,0 87.05,34.17 87.05,111.98l0 107.25c0,87.05 -38.9,115 -102.62,115l-66.86 0 0 -334.23 82.43 0z"/>
   <path class="fil3" d="M5398.18 5803.09c-17.11,-40.39 -18.65,-79.29 -18.65,-132.17l0 -167.89c0,-113.52 -28.01,-195.84 -113.52,-231.6 76.21,-35.83 111.98,-108.9 111.98,-220.77l0 -85.57c0,-167.89 -76.22,-250.26 -253.46,-250.26l-258.07 0 0 1088.26 171.02 0 0 -443.01 59.1 0c77.7,0 111.92,37.3 111.92,138.33l0 171.02c0,88.65 6.22,105.71 15.58,133.66l174.1 0zm-278.27 -932.81c60.58,0 87.05,34.17 87.05,111.98l0 107.25c0,87.05 -38.9,115 -102.62,115l-66.86 0 0 -334.23 82.43 0z"/>
   <path class="fil3" d="M5870.81 4714.83l-250.32 0 -174.11 1088.26 156.99 0 29.55 -197.38 209.93 0 29.5 197.38 172.62 0 -174.16 -1088.26zm-133.72 192.76l82.43 550.43 -164.8 0 82.37 -550.43z"/>
   <polygon class="fil3" points="6489.58,5803.09 6665.28,5803.09 6665.28,4714.83 6512.91,4714.83 6512.91,5366.29 6337.21,4714.83 6122.66,4714.83 6122.66,5803.09 6276.57,5803.09 6276.57,5014.83 "/>
   <polygon class="fil3" points="6738.3,4870.28 6917.08,4870.28 6917.08,5803.09 7088.1,5803.09 7088.1,4870.28 7266.89,4870.28 7266.89,4714.83 6738.3,4714.83 "/>
   <polygon class="fil3" points="7501.63,5803.09 7672.65,5803.09 7672.65,5442.45 7888.8,4714.83 7725.53,4714.83 7594.96,5210.73 7464.32,4714.83 7285.54,4714.83 7501.63,5442.45 "/>
   <polygon class="fil6" points="3211.79,5695.16 3438.77,5695.16 3560.05,4606.9 3410.82,4606.9 3322.17,5471.26 3236.66,4606.9 3071.86,4606.9 2989.48,5465.04 2897.75,4606.9 2731.41,4606.9 2852.69,5695.16 3087.43,5695.16 3149.61,5115.24 "/>
   <path class="fil6" d="M4001.59 4606.9l-250.32 0 -174.1 1088.26 156.99 0 29.55 -197.43 209.92 0 29.5 197.43 172.62 0 -174.16 -1088.26zm-133.72 192.81l82.43 550.38 -164.8 0 82.37 -550.38z"/>
   <path class="fil6" d="M4786.71 5695.16c-17.12,-40.44 -18.66,-79.29 -18.66,-132.17l0 -167.83c0,-113.58 -28.01,-195.9 -113.52,-231.72 76.22,-35.77 111.98,-108.79 111.98,-220.77l0 -85.51c0,-167.83 -76.21,-250.26 -253.45,-250.26l-258.08 0 0 1088.26 171.03 0 0 -443.02 59.1 0c77.69,0 111.92,37.26 111.92,138.34l0 171.02c0,88.65 6.22,105.65 15.57,133.66l174.11 0zm-278.27 -932.81c60.58,0 87.05,34.17 87.05,111.98l0 107.25c0,87.05 -38.9,115 -102.62,115l-66.86 0 0 -334.23 82.43 0z"/>
   <path class="fil6" d="M5411.7 5695.16c-17.11,-40.44 -18.65,-79.29 -18.65,-132.17l0 -167.83c0,-113.58 -28.01,-195.9 -113.52,-231.72 76.21,-35.77 111.98,-108.79 111.98,-220.77l0 -85.51c0,-167.83 -76.22,-250.26 -253.46,-250.26l-258.07 0 0 1088.26 171.02 0 0 -443.02 59.1 0c77.7,0 111.92,37.26 111.92,138.34l0 171.02c0,88.65 6.22,105.65 15.58,133.66l174.1 0zm-278.27 -932.81c60.58,0 87.05,34.17 87.05,111.98l0 107.25c0,87.05 -38.9,115 -102.62,115l-66.86 0 0 -334.23 82.43 0z"/>
   <path class="fil6" d="M5884.32 4606.9l-250.31 0 -174.11 1088.26 156.99 0 29.55 -197.43 209.93 0 29.5 197.43 172.62 0 -174.17 -1088.26zm-133.71 192.81l82.43 550.38 -164.8 0 82.37 -550.38z"/>
   <polygon class="fil6" points="6503.1,5695.16 6678.8,5695.16 6678.8,4606.9 6526.43,4606.9 6526.43,5258.31 6350.73,4606.9 6136.18,4606.9 6136.18,5695.16 6290.09,5695.16 6290.09,4906.9 "/>
   <polygon class="fil6" points="6751.82,4762.35 6930.6,4762.35 6930.6,5695.16 7101.62,5695.16 7101.62,4762.35 7280.41,4762.35 7280.41,4606.9 6751.82,4606.9 "/>
   <polygon class="fil6" points="7515.15,5695.16 7686.17,5695.16 7686.17,5334.52 7902.32,4606.9 7739.05,4606.9 7608.48,5102.8 7477.84,4606.9 7299.06,4606.9 7515.15,5334.52 "/>
   <path class="fil7" d="M1988.67 7134.32l64.84 101.97 -640.38 407.3 83.89 131.89 839.39 -533.83 -56.43 -88.72c-69.31,15.38 -132.95,23.88 -197.8,-78.04l-93.51 59.43zm-29.47 1186.2l298.32 286.47 98.43 -102.48 -185.54 -178.14 590.67 -614.98 -112.78 -108.32 -689.1 717.45zm1281.99 -212.68l-186.22 -133.02 -707.54 717.22 116.83 83.36 126.83 -131.2 156.19 111.45 -82.94 162.57 128.37 91.66 448.48 -902.04zm-201.84 72.4l-231.01 453.16 -122.63 -87.49 353.64 -365.67zm211.05 1075.28l143.01 73.11 57.31 -590.03 395.31 -295.77 -139.14 -71.18 -379.44 292.88 197.19 -385.96 -139.2 -71.19 -452.69 885.84 139.28 71.09 139.01 -272.04 84.4 -58.92 -45.04 422.17zm584.85 -213.86l168.51 56.33 -135.19 404.37 150.96 50.43 315.38 -943.45 -150.95 -50.49 -135.18 404.32 -168.45 -56.37 135.17 -404.26 -148.27 -49.61 -315.44 943.49 148.28 49.56 135.18 -404.32zm1160.42 669.17l160.13 11.38 -177.88 -565.41 248.22 -426.87 -155.9 -11.06 -234.8 417.92 30.68 -432.42 -155.96 -11.06 -70.34 992.33 155.95 11.07 21.65 -304.85 54.63 -87.3 123.62 406.27zm329.5 4.17l156.27 -4.57 -29.3 -994.33 -156.28 4.57 29.31 994.33zm355.75 -21.59l410.12 -53.06 -18.23 -140.9 -255.05 32.94 -109.37 -845.62 -155.11 20.05 127.64 986.59zm497.64 -859.21c-19.29,-68.41 3.44,-102.79 51.29,-116.41 47.82,-13.45 85.28,4.03 104.6,72.32l146.06 516.96c19.34,68.47 -3.47,102.96 -51.29,116.41 -47.84,13.56 -85.24,-3.96 -104.6,-72.32l-146.06 -516.96zm-7.09 549.9c43.24,153.16 148.66,217.85 296.4,176.15 147.68,-41.71 203.64,-152.07 160.39,-305.18l-140.68 -497.85c-43.24,-153.16 -148.71,-217.86 -296.38,-176.2 -147.68,41.71 -203.65,152.13 -160.42,305.29l140.69 497.79zm495.33 -956.75l-198.5 88.59 405.63 908.32 124.55 -55.57 -286.84 -642.38 393.22 594.88 134.98 -60.3 -192.29 -695.43 290.87 651.38 134.97 -60.24 -405.62 -908.31 -198.56 88.64 190.72 688.37 -393.13 -597.95zm617.41 -168.27l221.14 -154.93 -81.51 -116.4 -349.23 244.57 570.61 814.79 349.28 -244.56 -81.51 -116.35 -221.18 154.86 -167.1 -238.57 175.78 -123.19 -81.51 -116.4 -175.83 123.17 -158.94 -226.99zm278.95 -197.5l124.33 -106.11 553.53 648.58 118.86 -101.43 -553.46 -648.62 124.27 -106.12 -92.24 -108.07 -367.52 313.64 92.23 108.13zm1342.44 -142.76c-38.09,-12.59 -65.74,-34.97 -102.09,-66.82l-115.37 -101.16c-77.97,-68.47 -151.47,-98.94 -227.58,-61.75 21.35,-73.87 -7.32,-142.52 -84.22,-209.9l-58.78 -51.56c-115.36,-101.22 -217.92,-98.51 -324.73,23.3l-155.57 177.36 747.92 655.9 103.04 -117.5 -304.46 -267.04 35.54 -40.56c46.89,-53.48 93.16,-54.5 162.57,6.45l117.57 103c60.88,53.49 76.44,59.5 101.23,69.96l104.93 -119.68zm-808.76 -371.02c36.58,-41.69 75.98,-39.19 129.35,7.68l73.72 64.66c59.88,52.41 55.66,96.07 17.26,139.9l-40.25 45.84 -229.71 -201.37 49.63 -56.71zm278.62 -371.31l146.52 -226.8 -119.41 -77.08 -231.28 358.18 835.58 539.7 231.33 -358.17 -119.34 -77.12 -146.48 226.87 -244.73 -158.12 116.41 -180.22 -119.33 -77.17 -116.44 180.32 -232.83 -150.39zm249.26 -218.43c258.99,116.93 419.75,-145.71 606.26,-61.49 64.74,29.18 75.17,68.2 54.72,113.62 -20.49,45.31 -56.64,63.29 -121.42,33.98l-64.74 -29.19 -60.8 134.64 55.66 25.17c145.05,65.49 260.68,30.48 323.88,-109.5 63.11,-139.82 13,-249.74 -132.04,-315.29 -259.1,-116.95 -419.74,145.72 -606.31,61.49 -64.72,-29.3 -77.6,-66.25 -57.16,-111.62 20.49,-45.3 56.77,-60.11 121.51,-30.93l37.62 16.98 60.8 -134.64 -28.5 -12.83c-145.03,-65.6 -260.14,-31.77 -322.71,106.82 -62.57,138.59 -11.81,247.24 133.23,312.79z"/>
   <path class="fil7" d="M2128.2 2381.43c65.09,56.25 60.76,103.43 19.29,151.06l-43.3 49.97 116.03 100.57 37.14 -42.78c50.48,-58.07 100.4,-59.39 175.93,6.16l63.83 55.28c71.71,62.58 69.37,105.36 34.06,145.81 -35.32,40.73 -79.41,46.89 -137.54,-3.37l-75.3 -65.55 -104.74 120.66 67.15 58.35c129.83,113.01 260.47,112.44 369.31,-12.77 108.84,-125.33 91.16,-254.66 -38.73,-367.55l-63.78 -55.39c-82.2,-71.65 -164.69,-98.58 -247.92,-58.76 27.89,-83.8 -2.63,-158.87 -89.45,-234.4l-20.99 -18.14c-129.9,-113.01 -260.53,-112.44 -369.32,12.84 -108.84,124.93 -91.16,254.53 38.68,367.43l44.27 38.27 104.79 -120.7 -52.25 -45.3c-57.91,-50.54 -57.85,-95.09 -22.54,-135.48 35.31,-40.73 77.07,-49 150.09,14.26l45.29 39.53z"/>
   <path class="fil7" d="M2830.27 2378.69c105.99,135.32 237.88,156.99 368.63,54.54 130.52,-102.4 141.36,-235.54 35.14,-370.91l-121.05 -154.82c-97.78,-124.59 -201.32,-154.66 -299.32,-77.93 -59.33,46.49 -79.47,105.14 -64.58,171.71l-121.34 -154.82c-63.32,-81.18 -54.7,-124.99 -7.58,-161.9 42.15,-33.09 86.99,-31.09 134.23,29.32l23.84 30.41 125.62 -98.46 -16.95 -21.85c-106.16,-135.49 -234.51,-159.96 -365.03,-57.67 -137.88,108.04 -142.62,236.62 -30.75,379.41l339.14 432.97zm23.84 -385.57c42.27,-33.26 86.77,-31.09 134.29,29.32l119.28 152.49c47.46,60.35 37.82,103.13 -4.45,136.22 -42.5,33.14 -86.02,32.23 -133.49,-28.24l-119.28 -152.48c-47.46,-60.41 -38.79,-104.22 3.65,-137.31z"/>
   <polygon class="fil7" points="3716.13,930.82 3492.85,1004.46 3829.54,2025.75 3969.41,1979.77 3731.48,1257.46 4089.27,1940.24 4240.95,1890.27 4110.66,1121.29 4351.85,1853.59 4503.53,1803.62 4167.13,782.33 3943.86,855.91 4073.41,1617.19 "/>
   <path class="fil7" d="M4852.25 909.71c-6.33,-76.5 25.27,-108.39 78.78,-112.84 53.51,-4.16 89.51,22.02 95.84,98.58l46.89 578.78c6.11,76.56 -25.21,108.56 -78.66,112.95 -53.57,4.17 -89.85,-22.02 -95.9,-98.57l-46.95 -578.9zm-122.36 581.64c13.81,171.53 112.15,262.18 277.58,248.83 165.32,-13.46 247.75,-118.71 233.95,-290.19l-45.24 -557.4c-13.8,-171.47 -112.21,-262.06 -277.58,-248.89 -165.38,13.58 -247.75,118.77 -233.95,290.42l45.24 557.23z"/>
   <polygon class="fil7" points="5876.05,1777.15 6048.05,1799.85 6188.95,733.67 6039.72,713.81 5955.52,1351.98 5867.67,691.11 5657.45,663.44 5516.61,1729.74 5667.38,1749.48 5769.21,977.36 "/>
   <polygon class="fil7" points="6599.62,994.36 6763.29,1060.48 6418.62,1915.37 6575.43,1978.52 6920.05,1123.74 7083.94,1189.57 7141.44,1047.07 6657.07,851.98 "/>
   <polygon class="fil7" points="7330.49,1854.04 7492.9,1956.38 7247.55,2346.52 7393.18,2438.08 7965.81,1527.63 7820.23,1436.07 7574.65,1826.09 7412.3,1723.87 7657.59,1333.73 7514.46,1243.88 6941.84,2154.1 7084.91,2244.12 "/>
   <path class="fil7" d="M8174.31 2034.25c-223.33,211.24 -26.41,479.64 -186.99,631.73 -55.85,52.76 -99.15,47.12 -136,8.32 -37.02,-39.19 -40.1,-82.71 15.46,-135.48l55.85 -52.94 -109.87 -116.09 -47.86 45.58c-125.05,118.26 -137.2,248.27 -23.28,368.69 114.21,120.48 244.56,115.52 369.6,-2.74 223.11,-211.24 26.41,-479.64 187,-631.72 55.84,-52.77 98.06,-50.49 135.02,-11.41 36.97,38.9 36.97,81.4 -18.82,134.17l-32.4 30.52 109.81 116.09 24.41 -23.28c125.11,-118.14 138.51,-247.18 25.33,-366.57 -112.83,-119.4 -242.5,-113.07 -367.26,5.13z"/>
   <path class="fil7" d="M7259.41 4040.95l35.94 -111.07c83.17,29.27 143.3,54.48 181.12,75.93 -9.92,-94.41 -15.29,-159.61 -15.8,-195.04l114.26 0c-1.59,51.74 -7.47,116.49 -18.19,194.24 53.9,-27.04 115.63,-52.25 185.11,-75.13l35.94 111.07c-66.23,22.02 -131.21,36.79 -195.04,44.04 31.94,27.61 76.72,77.3 134.68,148.37l-93.89 66.86c-30.35,-41.36 -66.29,-97.66 -107.59,-168.85 -38.91,73.81 -73.02,130.23 -102.29,168.85l-92.3 -66.86c60.42,-74.84 103.88,-124.18 129.9,-148.37 -67.37,-13.12 -131.21,-27.9 -191.85,-44.04z"/>
   <path class="fil7" d="M8655.34 2394.56l21.4 -66.12c49.51,17.42 85.31,32.43 107.83,45.2 -5.91,-56.21 -9.11,-95.02 -9.41,-116.12l68.03 0c-0.96,30.81 -4.45,69.36 -10.84,115.65 32.1,-16.1 68.84,-31.11 110.21,-44.73l21.4 66.12c-39.43,13.11 -78.12,21.91 -116.12,26.22 19.02,16.44 45.68,46.02 80.18,88.34l-55.9 39.8c-18.07,-24.62 -39.46,-58.14 -64.05,-100.53 -23.16,43.95 -43.47,77.54 -60.9,100.53l-54.95 -39.8c35.97,-44.56 61.85,-73.94 77.34,-88.34 -40.11,-7.81 -78.12,-16.61 -114.22,-26.22z"/>
   <path class="fil7" d="M8783.17 6330.52l-18.85 58.25c-43.62,-15.35 -75.15,-28.57 -94.98,-39.82 5.2,49.51 8.02,83.71 8.29,102.28l-59.93 0c0.84,-27.13 3.92,-61.09 9.55,-101.86 -28.27,14.18 -60.64,27.4 -97.08,39.4l-18.85 -58.25c34.73,-11.55 68.81,-19.29 102.29,-23.09 -16.76,-14.48 -40.24,-40.54 -70.64,-77.81l49.25 -35.07c15.91,21.69 34.76,51.22 56.42,88.56 20.4,-38.72 38.29,-68.3 53.64,-88.56l48.4 35.07c-31.68,39.25 -54.48,65.12 -68.12,77.81 35.33,6.88 68.81,14.63 100.61,23.09z"/>
  </g>
 </g>
</svg>
